<?xml version="1.0" standalone="no"?>
<!DOCTYPE svg PUBLIC "-//W3C//DTD SVG 20010904//EN"
 "http://www.w3.org/TR/2001/REC-SVG-20010904/DTD/svg10.dtd">
<svg version="1.0" xmlns="http://www.w3.org/2000/svg"
 width="260.000000pt" height="260.000000pt" viewBox="0 0 260.000000 260.000000"
 preserveAspectRatio="xMidYMid meet">
<metadata>
Created by potrace 1.11, written by Peter Selinger 2001-2013
</metadata>
<g transform="translate(0.000000,260.000000) scale(0.100000,-0.100000)"
fill="#000000" stroke="none">
<path d="M1248 2305 c-1 -1 -25 -6 -53 -10 -71 -9 -219 -60 -295 -102 -171
-93 -312 -235 -403 -405 -30 -56 -97 -227 -96 -243 0 -3 -5 -31 -12 -63 -7
-31 -13 -111 -13 -177 -1 -155 8 -216 51 -350 136 -417 521 -692 960 -684 323
5 589 135 785 382 l38 49 -22 17 c-13 10 -90 64 -171 120 l-148 103 -21 -29
c-12 -15 -48 -53 -80 -84 -149 -144 -367 -195 -566 -133 -244 75 -406 318
-403 604 2 271 157 500 396 584 67 23 227 32 296 16 102 -23 213 -85 289 -160
39 -38 70 -74 70 -80 0 -9 198 118 255 163 5 4 29 21 52 38 l43 31 -46 58
c-138 176 -359 303 -599 344 -69 12 -297 21 -307 11z"/>
</g>
</svg>
