<svg width="336.19049" height="520.75989" xmlns="http://www.w3.org/2000/svg">
 <defs>
  <polygon id="polygon6410" transform="scale(53) " points="0,-1 0.58778525,0.80901699 -0.95105652,-0.30901699 0.95105652,-0.30901699 -0.58778525,0.80901699 0,-1 "/>
  <clipPath id="clipPath6412">
   <path id="path6414" d="m0,-200l0,800l300,0l0,-800l-300,0z"/>
  </clipPath>
  <polygon id="polygon2386" transform="scale(53) " points="0,-1 0.58778525,0.80901699 -0.95105652,-0.30901699 0.95105652,-0.30901699 -0.58778525,0.80901699 0,-1 "/>
  <clipPath id="clipPath2388">
   <path id="path2390" d="m0,-200l0,800l300,0l0,-800l-300,0z"/>
  </clipPath>
  <polygon id="polygon2886" transform="scale(53) " points="0,-1 0.58778525,0.80901699 -0.95105652,-0.30901699 0.95105652,-0.30901699 -0.58778525,0.80901699 0,-1 "/>
  <clipPath id="clipPath2888">
   <path id="path2890" d="m0,-200l0,800l300,0l0,-800l-300,0z"/>
  </clipPath>
  <clipPath id="clip">
   <path id="path10" d="m0,-200l0,800l300,0l0,-800l-300,0z"/>
  </clipPath>
  <polygon id="star" transform="scale(53) " points="0,-1 0.58778525,0.80901699 -0.95105652,-0.30901699 0.95105652,-0.30901699 -0.58778525,0.80901699 0,-1 "/>
 </defs>
 <g>
  <title>background</title>
  <rect fill="none" id="canvas_background" height="522.75989" width="338.19049" y="-1" x="-1"/>
 </g>
 <g>
  <title>Layer 1</title>
  <g stroke="null" id="layer1">
   <path stroke="#000000" fill="#f30a0a" fill-rule="evenodd" stroke-width="2.8" stroke-miterlimit="4" id="path2848" d="m165.677128,498.359872c-96.818101,-47.075024 -99.940396,-137.436496 -96.432418,-225.823708l96.85005,-0.465559l101.094858,0.068469c3.5135,90.099655 -5.681685,181.756336 -101.51249,226.220797z"/>
   <g stroke="null" id="g5797">
    <rect stroke="#000000" fill="#ffffff" stroke-width="2.8" stroke-linecap="round" stroke-miterlimit="4" stroke-dashoffset="0" id="rect4816" y="308.561999" x="140.084691" height="5.609384" width="53.289151"/>
    <rect stroke="#000000" fill="#ffffff" stroke-width="2.8" stroke-linecap="round" stroke-miterlimit="4" stroke-dashoffset="0" id="rect4814" y="342.618979" x="139.684019" height="5.609384" width="56.093844"/>
    <rect stroke="#000000" fill="#ffffff" stroke-width="2.8" stroke-linecap="round" stroke-miterlimit="4" stroke-dashoffset="0" id="rect4812" y="375.802169" x="137.280003" height="6.010055" width="61.703225"/>
    <rect stroke="#000000" fill="#ffffff" stroke-width="2.8" stroke-linecap="round" stroke-miterlimit="4" stroke-dashoffset="0" id="rect4810" y="411.133596" x="132.872626" height="6.811395" width="69.315967"/>
    <path stroke="#000000" fill="#ffffff" fill-rule="evenodd" stroke-width="2.8" stroke-miterlimit="4" id="path4804" d="m127.26324,449.998621l11.619438,-155.860753l6.811393,0l-10.818098,155.860753l-7.612733,0z"/>
    <path stroke="#000000" fill="#ffffff" fill-rule="evenodd" stroke-width="2.8" stroke-miterlimit="4" id="path4806" d="m206.85807,449.998621l-11.619438,-155.860753l-6.811393,0l10.818098,155.860753l7.612733,0z"/>
   </g>
  </g>
 </g>
</svg>