<?xml version="1.0" standalone="no"?>
<!DOCTYPE svg PUBLIC "-//W3C//DTD SVG 1.1//EN" "http://www.w3.org/Graphics/SVG/1.1/DTD/svg11.dtd">
<svg xmlns="http://www.w3.org/2000/svg"><metadata>This SVG WebFont was generated by YouWorkForThem.
Copyright Â© 2019 by BumBumType. All rights reserved.</metadata><defs><font horiz-adv-x="1101" id="ywftsvg"><font-face ascent="1610" bbox="-293 -494 2703 2216" cap-height="1464" descent="-438" font-family="" font-stretch="normal" font-weight="500" panose-1="0 0 6 0 0 0 0 0 0 0" underline-position="0" underline-thickness="0" unicode-range="U+0020-2212" units-per-em="2048" x-height="985"/><missing-glyph horiz-adv-x="1781"/><glyph d="M1042 1489q-66 0 -65.5 -117t67.5 -387h275l-14 -57h-261v-686q0 -115 29 -153t131 -75v-14h-542v14q86 37 110.5 75t24.5 153v686h-394v-686q0 -115 25 -153t111 -75v-14h-519v14q86 37 111 75t25 153v686h-127v57h127v29q0 254 106.5 381t292.5 127q119 0 254 -31 l-102 -180h-9q-119 162 -209 162q-102 0 -102 -238q0 -90 16 -250h394v88q0 467 293 467q127 0 315 -84l-158 -182l-12 4q-103 211 -193 211z" glyph-name="f_f.liga" horiz-adv-x="1345" unicode="ff"/><glyph d="M1038 242q0 -115 24.5 -153t113.5 -75v-14h-521v14q86 37 111 75t25 153v686h-385v-686q0 -115 28.5 -153t128.5 -75v-14h-540v14q86 37 110.5 75t24.5 153v686h-129v57h129v35q0 127 29.5 223t72.5 151.5t102.5 89.5t109.5 45t101 11q164 0 388 -100l-154 -230h-8 q-117 285 -234 285q-63 0 -111 -73.5t-48 -241.5v-195h385q141 0 247 29v-772z" glyph-name="f_i.liga" horiz-adv-x="1189" unicode="fi"/><glyph d="M1055 242q0 -115 24.5 -153t112.5 -75v-14h-520v14q86 37 110.5 75t24.5 153v1116q-121 135 -236 135q-166 0 -165 -291v-217h288l-2 -57h-286v-686q0 -115 28.5 -153t132.5 -75v-14h-547v14q88 37 113 75t25 153v686h-131v57h131v72q0 133 36.5 231t98 150.5t131.5 77 t149 24.5q129 0 318 -53l164 43v-1288z" glyph-name="f_l.liga" horiz-adv-x="1206" unicode="fl"/><glyph glyph-name=".notdef" horiz-adv-x="1781"/><glyph glyph-name="glyph1" horiz-adv-x="0"/><glyph glyph-name="glyph2" horiz-adv-x="681"/><glyph glyph-name="space" horiz-adv-x="462" unicode=" "/><glyph d="M215 418q-72 782 -109 1028v18h271v-18q-39 -272 -109 -1028h-53zM241.5 -14q-59.5 0 -102.5 42t-43 99t44 100t102 43q59 0 102 -43t43 -100t-43 -99t-102.5 -42z" glyph-name="exclam" horiz-adv-x="479" unicode="!"/><glyph d="M174 952h-27q-39 223 -98 512h225q-53 -250 -100 -512zM483 950h-28q-41 240 -99 512h226q-74 -362 -99 -512z" glyph-name="quotedbl" horiz-adv-x="626" unicode="&quot;"/><glyph d="M1229 852h-307l-131 -365h303l-11 -55h-311l-154 -432h-49l154 432h-348l-158 -432h-49l158 432h-289l10 55h297l133 365h-295l11 55h305l149 414h49l-149 -414h344l147 414h49l-147 -414h299zM741 487l131 365h-346l-133 -365h348z" glyph-name="numbersign" horiz-adv-x="1269" unicode="#"/><glyph d="M1059 389q0 -203 -134 -308.5t-317 -107.5v-161h-67v163q-193 20 -412 127l-25 377h15q45 -98 100 -184t143.5 -163t178.5 -93v565l-27 17q-68 39 -85 50t-74.5 48t-77 56.5t-58.5 59t-53 72.5t-27.5 79t-13.5 95q0 170 117.5 272.5t298.5 110.5v146h67v-148 q156 -10 338 -76l41 -366h-14q-68 135 -161 244.5t-204 138.5v-506q12 -8 41 -25q94 -55 135 -79.5t107.5 -74.5t94.5 -90t50.5 -102.5t22.5 -136.5zM336 1192q0 -82 45 -135t160 -121v475q-84 -4 -144.5 -60.5t-60.5 -158.5zM608 33q98 4 163 68.5t65 170.5q0 94 -55.5 159 t-172.5 134v-532z" glyph-name="dollar" horiz-adv-x="1150" unicode="$"/><glyph d="M457 -29l-43 27l997 1501l41 -31zM446 539q-174 0 -281.5 130t-107.5 322q0 195 107.5 333t288.5 138q174 0 281.5 -130t107.5 -324q0 -193 -108 -331t-288 -138zM475 578q78 0 130 86t52 249q0 115 -23.5 227.5t-78.5 197.5t-131 85q-78 0 -131 -86t-53 -250 q0 -115 24.5 -227t79.5 -197t131 -85zM1427 913q174 0 281 -129t107 -323q0 -193 -108 -332t-288 -139q-174 0 -281.5 131t-107.5 325q0 193 107.5 330t289.5 137zM1397 874q-78 0 -130.5 -86t-52.5 -249q0 -115 24 -226.5t79 -196.5t131 -85q78 0 131 86t53 250 q0 115 -23.5 226.5t-79.5 196t-132 84.5z" glyph-name="percent" horiz-adv-x="1867" unicode="%"/><glyph d="M526 -25q-207 0 -339 98.5t-132 262.5q0 156 119 255t320 165q-215 258 -215 415q0 131 108.5 225.5t280.5 94.5q162 0 262 -86t100 -203q0 -98 -74.5 -182t-212.5 -170l381 -438q37 53 70 139t41 133q2 10 2 21q0 59 -35 97t-106 72v15h415v-15q-90 -51 -131 -96 t-88 -131q-63 -168 -133 -276l148 -164q53 -59 108 -60q84 0 150 119l14 -6q-27 -111 -102.5 -199t-186.5 -88q-80 0 -146.5 49.5t-156.5 149.5q-189 -197 -461 -197zM713 889q129 154 129 315q0 117 -52.5 177.5t-117.5 60.5q-63 0 -110.5 -53.5t-47.5 -141.5 q0 -80 46.5 -157.5t152.5 -200.5zM641 92q172 0 311 123l-426 500q-219 -113 -219 -301q0 -137 95.5 -229.5t238.5 -92.5z" glyph-name="ampersand" horiz-adv-x="1597" unicode="&amp;"/><glyph d="M174 952h-27q-39 223 -98 512h225q-53 -250 -100 -512z" glyph-name="quotesingle" horiz-adv-x="317" unicode="'"/><glyph d="M322 606q0 -244 56 -439.5t134 -313t193 -230.5l-11 -18q-571 330 -571 1001q0 670 571 1000l11 -19q-115 -113 -193 -229.5t-134 -312t-56 -439.5z" glyph-name="parenleft" horiz-adv-x="739" unicode="("/><glyph d="M49 1606q571 -332 572 -1000q0 -670 -572 -1001l-12 18q180 172 282.5 400.5t102.5 583t-102.5 580.5t-282.5 400z" glyph-name="parenright" horiz-adv-x="739" unicode=")"/><glyph d="M907 1087l-18 -6l-379 -14l299 -223l10 -15l-190 -135l-11 13l-137 346l-135 -346l-10 -13l-193 133l13 15l297 225l-377 14l-19 4l74 222l16 -7l316 -200l-98 346v18h235v-18l-100 -348l319 202l17 7z" glyph-name="asterisk" horiz-adv-x="960" unicode="*"/><glyph d="M887 713v-56h-400v-389h-51v389h-399v56h399v385h51v-385h400z" glyph-name="plus" horiz-adv-x="917" unicode="+"/><glyph d="M246 274q59 0 101 -45t42 -131q0 -102 -64.5 -214.5t-193.5 -178.5l-8 16q119 137 147 277h-20q-59 0 -101.5 40t-42.5 97.5t42.5 98t97.5 40.5z" glyph-name="comma" horiz-adv-x="491" unicode=","/><glyph d="M674 580v-76h-596v76h596z" glyph-name="hyphen" horiz-adv-x="747" unicode="-"/><glyph d="M252 -14q-59 0 -102.5 42t-43.5 101t43.5 102t102.5 43t101 -43t42 -102t-42 -101t-101 -42z" glyph-name="period" horiz-adv-x="497" unicode="."/><glyph d="M6 -240l592 1821h53l-592 -1821h-53z" glyph-name="slash" horiz-adv-x="684" unicode="/"/><glyph d="M584 -27q-217 0 -370 205t-153 539q0 340 155 543.5t366 203.5q213 0 367.5 -206.5t154.5 -544.5q0 -334 -151.5 -537t-368.5 -203zM584 25q121 0 193.5 183t72.5 511q0 342 -77 518t-193 176q-115 0 -191 -176t-76 -518q0 -346 77 -520t194 -174z" glyph-name="zero" horiz-adv-x="1163" unicode="0"/><glyph d="M104 0v14q115 43 142.5 81t27.5 163v864q0 76 -39.5 112t-160.5 73v10l444 158v-1217q0 -125 27.5 -163t142.5 -81v-14h-584z" glyph-name="one" horiz-adv-x="729" unicode="1"/><glyph d="M668 217q115 0 169 33t126 133l12 -4l-117 -379h-844v45q328 328 481.5 562.5t153.5 414.5q0 127 -66.5 202.5t-168.5 75.5q-176 0 -342 -194l-29 12q84 147 210 246.5t271 99.5q143 0 249 -98t106 -262q0 -184 -147.5 -381t-485.5 -506h422z" glyph-name="two" horiz-adv-x="1011" unicode="2"/><glyph d="M82 1167q211 295 489 295q143 0 235.5 -77.5t92.5 -200.5q0 -229 -344 -363v-2q33 8 74 8q154 0 259 -105.5t105 -281.5q0 -213 -151.5 -339t-356.5 -126q-190 0 -419 88l108 246l14 -4q55 -113 136.5 -194.5t181.5 -81.5q111 0 184.5 101t73.5 253q0 154 -78 248 t-207 94q-80 0 -180 -41l-12 35q393 190 393 409q0 98 -59.5 146.5t-159.5 48.5q-197 0 -357 -174z" glyph-name="three" horiz-adv-x="1054" unicode="3"/><glyph d="M1102 426h-203v-168q0 -125 27.5 -163t142.5 -81v-14h-567v14q115 43 142.5 81t27.5 163v168h-625v37l801 995h51v-921h223zM174 537h498v637z" glyph-name="four" horiz-adv-x="1167" unicode="4"/><glyph d="M504 891q205 0 341 -119t136 -323q0 -219 -154.5 -347.5t-357.5 -128.5q-190 0 -408 97l99 280h14q127 -330 301 -330q102 0 187.5 102.5t85.5 280.5q0 180 -90.5 269.5t-229.5 89.5q-158 0 -305 -84l182 760h438q111 0 158 27.5t107 105.5l12 -4l-125 -344h-582 l-88 -383q115 51 279 51z" glyph-name="five" horiz-adv-x="1081" unicode="5"/><glyph d="M641 813q180 0 303 -107.5t123 -283.5q0 -190 -142.5 -319.5t-357.5 -129.5q-98 0 -184 30t-161 91.5t-118 169t-43 250.5q0 340 232.5 597t617.5 347l7 -26q-248 -113 -411 -311.5t-204 -448.5q137 141 338 141zM573 18q109 0 186 94.5t77 256.5q0 152 -72 253t-211 101 q-150 0 -260 -121q-4 -61 -4 -98q0 -207 75.5 -346.5t208.5 -139.5z" glyph-name="six" horiz-adv-x="1128" unicode="6"/><glyph d="M231 0q121 625 582 1200h-481q-119 0 -171 -32.5t-120 -133.5l-12 4l112 400h873v-37q-264 -317 -379 -634.5t-170 -766.5h-234z" glyph-name="seven" horiz-adv-x="1036" unicode="7"/><glyph d="M541 -27q-199 0 -339.5 105.5t-140.5 283.5q0 135 87.5 233.5t232.5 141.5q-266 139 -266 367q0 164 125 262t307 98q178 0 298 -92t120 -219q0 -113 -93.5 -203t-197.5 -127q68 -35 110.5 -61.5t106 -80.5t97.5 -128t34 -164q0 -182 -136 -299t-345 -117zM637 844 q154 123 154 305q0 117 -68 191.5t-174 74.5q-100 0 -162.5 -65.5t-62.5 -167.5q0 -106 72.5 -177t240.5 -161zM545 25q117 0 190.5 76.5t73.5 193.5q0 127 -96.5 221t-298.5 199q-72 -45 -120 -132t-48 -210q0 -160 83 -254t216 -94z" glyph-name="eight" horiz-adv-x="1081" unicode="8"/><glyph d="M563 1464q96 0 183.5 -29.5t161 -90t116.5 -168t43 -250.5q0 -340 -232.5 -597t-617.5 -349l-6 28q248 111 410.5 309.5t203.5 448.5q-137 -141 -336 -141q-180 0 -304 107.5t-124 283.5q0 188 142.5 318t359.5 130zM575 715q150 0 261 121q4 61 4 94q0 217 -79 353 t-208 136q-109 0 -184.5 -94t-75.5 -256q0 -152 71.5 -253t210.5 -101z" glyph-name="nine" horiz-adv-x="1128" unicode="9"/><glyph d="M231.5 680q-59.5 0 -102.5 43t-43 102.5t43 102.5t102.5 43t102.5 -43t43 -102.5t-43 -102.5t-102.5 -43zM231.5 -18q-59.5 0 -102.5 43t-43 102t43 102t102.5 43t102.5 -43t43 -102t-43 -102t-102.5 -43z" glyph-name="colon" horiz-adv-x="458" unicode=":"/><glyph d="M231.5 680q-59.5 0 -102.5 43t-43 102.5t43 102.5t102.5 43t102.5 -43t43 -102.5t-43 -102.5t-102.5 -43zM246 274q59 0 101 -45t42 -131q0 -102 -64.5 -214.5t-193.5 -178.5l-8 16q119 137 147 277h-20q-59 0 -102.5 40t-43.5 97.5t42.5 98t99.5 40.5z" glyph-name="semicolon" horiz-adv-x="471" unicode=";"/><glyph d="M864 250l-827 434v47l827 438v-61l-762 -403l762 -394v-61z" glyph-name="less" horiz-adv-x="894" unicode="&lt;"/><glyph d="M53 780v56h727v-56h-727zM53 526v56h727v-56h-727z" glyph-name="equal" horiz-adv-x="831" unicode="="/><glyph d="M37 250v61l760 394l-760 403v61l827 -438v-47z" glyph-name="greater" horiz-adv-x="894" unicode=">"/><glyph d="M322 420q6 104 40.5 196.5t79.5 158t90.5 127t76 133t30.5 147.5q0 104 -49 182t-129 78q-90 0 -155.5 -97.5t-104.5 -226.5l-8 -2l-136 232q205 143 416 143q172 0 282.5 -88t110.5 -242q0 -90 -43 -169t-107.5 -141.5t-130 -122.5t-119.5 -140t-69 -168h-75zM366.5 -14 q-59.5 0 -102.5 42t-43 99t44 100t102 43q59 0 102 -43t43 -100t-43 -99t-102.5 -42z" glyph-name="question" horiz-adv-x="909" unicode="?"/><glyph d="M1343 -78l113 -123q-250 -137 -547 -137q-223 0 -416.5 100.5t-312.5 285.5t-119 417q0 209 93.5 392t268.5 300t392 117q250 0 413 -147.5t158 -381.5l-14 -710h-18q-100 98 -160 98q-33 0 -76 -31.5t-103.5 -64.5t-135.5 -33q-170 0 -269.5 139.5t-99.5 333.5 q0 205 109.5 349.5t289.5 144.5q166 0 281 -111v21q0 70 -41 145.5t-139.5 138t-231.5 62.5q-70 0 -135 -15.5t-138 -61.5t-127 -119t-89 -196.5t-35 -285.5q0 -207 56.5 -371t150.5 -265t210.5 -153.5t246.5 -52.5q147 0 255.5 63.5t169.5 151.5zM1167 211l17 463 q-31 90 -103.5 171t-162.5 81q-190 0 -191 -381q0 -244 71.5 -352.5t164.5 -108.5q108 0 204 127z" glyph-name="at" horiz-adv-x="1517" unicode="@"/><glyph d="M1282 197q29 -78 58.5 -111t119.5 -72v-14h-622v14q90 37 123.5 64.5t33.5 64.5q0 33 -30 115l-88 242h-490l-22 -62q-72 -193 -72 -258q0 -57 37 -92t129 -74v-14h-434v14q111 80 159.5 157t114.5 255l301 827l-65 131q156 63 247 129zM418 588h428l-215 594z" glyph-name="A" horiz-adv-x="1480" unicode="A"/><glyph d="M858 823q106 -16 196.5 -58t160 -132t69.5 -211q0 -190 -158.5 -306t-420.5 -116h-668v14q115 43 142.5 81t27.5 163v948q0 125 -27.5 163t-142.5 81v14h686q236 0 359.5 -101t123.5 -239q0 -86 -57 -151.5t-130 -97t-161 -48.5v-4zM649 1407h-162v-588h156q121 0 202 82 t81 215q0 127 -75 209t-202 82zM702 59q285 14 285 342q0 186 -83 277.5t-230 85.5l-187 -8v-604q0 -39 56.5 -65t158.5 -28z" glyph-name="B" horiz-adv-x="1376" unicode="B"/><glyph d="M768 1436q-162 0 -284 -178.5t-122 -512.5q0 -342 127 -528t287 -186q125 0 251 113.5t226 271.5h15l-41 -369q-236 -74 -463 -74q-326 0 -514.5 205t-188.5 543q0 360 205 565t506 205q193 0 455 -74l41 -364h-13q-104 162 -231 272.5t-256 110.5z" glyph-name="C" horiz-adv-x="1390" unicode="C"/><glyph d="M592 1464q410 0 619.5 -189.5t209.5 -512.5q0 -328 -199.5 -545t-535.5 -217h-649v14q115 43 142.5 81t27.5 163v948q0 125 -27.5 163t-142.5 81v14h555zM696 59q199 12 311.5 194.5t112.5 496.5q0 657 -538 657h-95v-1255q0 -83 209 -93z" glyph-name="D" horiz-adv-x="1482" unicode="D"/><glyph d="M1184 385h14l-49 -385h-1112v14q115 43 142.5 81t27.5 163v948q0 125 -27.5 163t-142.5 81v14h1038l37 -374h-12q-45 131 -145.5 224t-247.5 93h-220v-596h218q158 0 247 147h11v-368h-11q-92 168 -247 166l-218 -4v-600q0 -41 64.5 -67t179.5 -26h84q119 0 215.5 98.5 t153.5 227.5z" glyph-name="E" horiz-adv-x="1294" unicode="E"/><glyph d="M1090 1464l36 -374h-12q-45 131 -145.5 224t-247.5 93h-234v-596h209q158 0 248 147h10v-368h-10q-90 168 -248 166l-209 -4v-494q0 -125 34 -163t173 -81v-14h-657v14q115 43 142.5 81t27.5 163v948q0 125 -27.5 163t-142.5 81v14h1053z" glyph-name="F" horiz-adv-x="1193" unicode="F"/><glyph d="M733 -27q-283 0 -477.5 196t-194.5 546q0 348 199 562t535 214q236 0 469 -84l39 -371h-13q-240 399 -504 400q-178 0 -301 -180.5t-123 -518.5q0 -336 124 -520t315 -184q59 0 113.5 14t102.5 61.5t48 118.5v275q0 121 -51 178t-203 59v23h629v-12q-49 -33 -67.5 -53.5 t-27 -62.5t-8.5 -130v-467h-12q-70 55 -141 55q-43 0 -105.5 -29.5t-152 -59.5t-193.5 -30z" glyph-name="G" horiz-adv-x="1538" unicode="G"/><glyph d="M1561 1450q-113 -43 -140.5 -80t-27.5 -164v-948q0 -127 27.5 -164t140.5 -80v-14h-619v14q115 43 142.5 81t27.5 163v500h-625v-500q0 -127 28 -164t140 -80v-14h-618v14q115 43 142.5 81t27.5 163v948q0 125 -27.5 163t-142.5 81v14h618v-14q-113 -43 -140.5 -80 t-27.5 -164v-362h625v362q0 125 -27.5 163t-142.5 81v14h619v-14z" glyph-name="H" horiz-adv-x="1593" unicode="H"/><glyph d="M37 0v14q115 43 142.5 81t27.5 163v948q0 125 -27.5 163t-142.5 81v14h618v-14q-113 -43 -140.5 -80t-27.5 -164v-948q0 -127 28 -164t140 -80v-14h-618z" glyph-name="I" horiz-adv-x="688" unicode="I"/><glyph d="M41 -268l-6 20q168 98 168 293v1161q0 125 -28 163t-142 81v14h620v-14q-115 -43 -142.5 -81t-27.5 -163v-987q0 -117 -38.5 -206t-109.5 -143t-138.5 -84.5t-155.5 -53.5z" glyph-name="J" horiz-adv-x="675" unicode="J"/><glyph d="M487 258q0 -127 28 -164t140 -80v-14h-618v14q115 43 142.5 81t27.5 163v948q0 125 -27.5 163t-142.5 81v14h618v-14q-113 -43 -140.5 -80t-27.5 -164v-948zM518 715l440 428q98 96 99 174q0 86 -119 133v14h504v-14q-74 -37 -149.5 -92t-121 -94t-131.5 -119l-303 -279 l504 -671q106 -141 232 -181v-14h-431z" glyph-name="K" horiz-adv-x="1490" unicode="K"/><glyph d="M1151 385h14l-49 -385h-1079v14q115 43 142.5 81t27.5 163v948q0 125 -27.5 163t-142.5 81v14h618v-14q-113 -43 -140.5 -80t-27.5 -164v-1054q0 -41 64.5 -67t179.5 -26h51q119 0 215.5 98.5t153.5 227.5z" glyph-name="L" horiz-adv-x="1261" unicode="L"/><glyph d="M1829 1450q-115 -43 -142.5 -81t-27.5 -163v-948q0 -125 27.5 -163t142.5 -81v-14h-621v14q115 43 142.5 81t27.5 163v965h-4q-391 -739 -502 -983h-36q-264 516 -535 968v-800q0 -156 17.5 -226.5t54.5 -101.5t131 -66v-14h-467v14q94 35 131 66t54.5 101.5t17.5 226.5 v874q-27 49 -85.5 95t-115.5 73v14h444q272 -473 480 -889l464 889h402v-14z" glyph-name="M" horiz-adv-x="1861" unicode="M"/><glyph d="M1485 1464v-14q-94 -35 -131 -65.5t-54.5 -101.5t-17.5 -226v-1057h-211q-389 631 -768 1200v-792q0 -156 17.5 -226.5t54.5 -101.5t131 -66v-14h-469v14q94 35 131 66t54.5 101.5t17.5 226.5v866q-47 98 -199 176v14h408q401 -606 768 -1200v793q0 156 -17.5 226.5 t-54.5 101t-131 65.5v14h471z" glyph-name="N" horiz-adv-x="1507" unicode="N"/><glyph d="M780.5 -27q-321.5 0 -520.5 208t-199 552t199 551t520.5 207t521 -208t199.5 -550t-199.5 -551t-521 -209zM825 33q166 0 273.5 155.5t107.5 419.5q0 129 -27.5 267.5t-81 265.5t-147.5 209t-213 82q-170 0 -275.5 -157t-105.5 -419q0 -131 29 -270.5t82 -265t147 -206.5 t211 -81z" glyph-name="O" horiz-adv-x="1562" unicode="O"/><glyph d="M532 670h-45v-412q0 -125 31 -163t156 -81v-14h-637v14q115 43 142.5 81t27.5 163v948q0 125 -27.5 163t-142.5 81v14h610q264 0 415.5 -95t151.5 -292q0 -407 -682 -407zM594 1409h-107v-684h39q424 0 424 348q0 168 -94 252t-262 84z" glyph-name="P" horiz-adv-x="1280" unicode="P"/><glyph d="M821 -27q55 -94 235.5 -135t395.5 -43v-8l-195 -207q-176 41 -319 140.5t-186 252.5q-311 10 -501 217t-190 543q0 344 199 551t520.5 207t521 -208t199.5 -550q0 -332 -187.5 -539t-492.5 -221zM356 856q0 -131 29 -270.5t82 -265t147.5 -206.5t210.5 -81 q166 0 273.5 155.5t107.5 419.5q0 129 -27.5 267.5t-81 265.5t-147.5 209t-213 82q-170 0 -275.5 -157t-105.5 -419z" glyph-name="Q" horiz-adv-x="1562" unicode="Q"/><glyph d="M1241 190q63 -90 174 -176v-14h-373q-250 381 -442 713l-113 -6v-449q0 -127 28 -164t140 -80v-14h-618v14q115 43 142.5 81t27.5 163v948q0 125 -27.5 163t-142.5 81v14h637q256 0 403.5 -97t147.5 -259q0 -133 -98.5 -232.5t-254.5 -134.5q176 -281 369 -551zM487 1407 v-641h156q133 0 218 85t85 245q0 311 -319 311h-140z" glyph-name="R" horiz-adv-x="1433" unicode="R"/><glyph d="M596 -27q-213 0 -471 131l-25 381h15q35 -80 81 -154.5t106 -144t136 -111.5t154 -42q104 0 171.5 65.5t67.5 177.5q0 111 -71.5 182.5t-249.5 176.5q-102 59 -149.5 91t-115 92.5t-96 129t-28.5 154.5q0 178 126 283.5t314 105.5q168 0 381 -82l41 -369h-14 q-76 158 -187.5 277t-236.5 119q-86 0 -149.5 -58.5t-63.5 -165.5q0 -98 62.5 -157.5t250.5 -167.5q92 -53 135 -81t107.5 -77t93.5 -91t51.5 -105.5t22.5 -137.5q0 -209 -137.5 -315.5t-321.5 -106.5z" glyph-name="S" horiz-adv-x="1142" unicode="S"/><glyph d="M1262 1464l36 -374h-14q-43 129 -142.5 223t-248.5 94h-74v-1149q0 -125 27.5 -163t142.5 -81v-14h-620v14q115 43 142.5 81t27.5 163v1149h-80q-147 0 -247.5 -93t-145.5 -224h-13l37 374h1172z" glyph-name="T" horiz-adv-x="1347" unicode="T"/><glyph d="M1475 1464v-14q-94 -35 -131 -65.5t-54.5 -101.5t-17.5 -226v-590q0 -233 -134 -363.5t-376 -130.5q-82 0 -157 15.5t-148.5 53.5t-128 96.5t-88 152.5t-33.5 213v702q0 125 -27.5 163t-142.5 81v14h618v-14q-113 -43 -140.5 -80t-27.5 -164v-700q0 -219 96.5 -336 t260.5 -117q160 0 262 107.5t102 304.5v592q0 156 -17 226.5t-54 101t-131 65.5v14h469z" glyph-name="U" horiz-adv-x="1490" unicode="U"/><glyph d="M1012 1464h436v-12q-104 -57 -146 -110.5t-88 -174.5l-438 -1169h-86l-508 1296q-23 57 -54.5 90t-115.5 68v12h621v-14q-88 -35 -121 -61.5t-33 -65.5q0 -33 35 -127l326 -866l311 841q29 78 29 119q0 47 -38 84t-130 76v14z" glyph-name="V" horiz-adv-x="1456" unicode="V"/><glyph d="M1741 1464h446v-14q-109 -61 -149.5 -116.5t-81.5 -170.5l-416 -1165h-86l-360 987l-355 -987h-84l-473 1292q-20 57 -51 89t-119 71v14h621v-14q-92 -33 -127 -60.5t-35 -60.5q0 -18 12 -55l322 -922l252 733l-76 207q-20 57 -50 88t-122 70v14h618v-14 q-86 -35 -118.5 -63.5t-32.5 -69.5q0 -33 31 -119l297 -846l274 809q33 94 33 137q0 45 -37 78t-133 74v14z" glyph-name="W" horiz-adv-x="2193" unicode="W"/><glyph d="M1245 201q47 -74 89 -113t128 -74v-14h-655v14q72 31 104.5 58.5t32.5 64.5q0 33 -29 78l-264 420l-262 -367q-53 -74 -53 -127q0 -74 127 -127v-14h-438v14q152 72 286 254l307 418l-366 578q-45 72 -87 111.5t-128 74.5v14h653v-14q-143 -53 -143 -117q0 -29 33 -82 l239 -381l240 338q43 61 43 107q0 74 -121 135v14h432v-14q-145 -63 -283 -248l-280 -381z" glyph-name="X" horiz-adv-x="1480" unicode="X"/><glyph d="M1010 1464h407v-14q-61 -29 -111.5 -78t-68.5 -75.5t-57 -90.5l-322 -534v-414q0 -125 27.5 -163t142.5 -81v-14h-620v14q115 43 142.5 81t27.5 163v399l-392 639q-31 53 -64.5 84t-109.5 70v14h621v-14q-82 -43 -111.5 -65.5t-29.5 -51.5q0 -33 47 -110l295 -482 l272 465q37 63 37 105q0 74 -133 139v14z" glyph-name="Y" horiz-adv-x="1425" unicode="Y"/><glyph d="M1157 385h12l-49 -385h-1059v35l779 1372h-314q-150 0 -249 -94t-142 -223h-14l37 374h999v-34l-778 -1371h407q119 0 216.5 98.5t154.5 227.5z" glyph-name="Z" horiz-adv-x="1226" unicode="Z"/><glyph d="M565 1548h-217v-1876h217v-45h-389v1968h389v-47z" glyph-name="bracketleft" horiz-adv-x="638" unicode="["/><glyph d="M682 -240h-53l-592 1821h53z" glyph-name="backslash" horiz-adv-x="673" unicode="\"/><glyph d="M61 1548v47h390v-1968h-390v45h218v1876h-218z" glyph-name="bracketright" horiz-adv-x="622" unicode="]"/><glyph d="M176 836l387 628h33l387 -628h-59l-346 550l-342 -550h-60z" glyph-name="asciicircum" horiz-adv-x="1153" unicode="^"/><glyph d="M956 -176v-57h-895v57h895z" glyph-name="underscore" horiz-adv-x="1013" unicode="_"/><glyph d="M369 1137q-102 106 -291 327h266q14 -150 43 -327h-18z" glyph-name="grave" horiz-adv-x="462" unicode="`"/><glyph d="M858 -20q-96 0 -133 63t-33 147h-4q-45 -82 -139 -144t-217 -62q-125 0 -198 64.5t-73 168.5q0 141 160 245.5t475 190.5l4 148q2 70 -31.5 119t-107.5 49q-98 0 -154.5 -92.5t-74.5 -223.5l-10 -2l-183 121q53 94 167 166t282 72q186 0 269 -91.5t79 -222.5l-12 -532 q0 -70 51 -70q53 0 94 88l16 -8q-27 -80 -83 -137t-144 -57zM461 123q117 0 225 123l10 366q-203 -63 -288.5 -146t-85.5 -185q0 -74 38 -116t101 -42z" glyph-name="a" horiz-adv-x="1093" unicode="a"/><glyph d="M688 1010q168 0 280.5 -141.5t112.5 -364.5t-118.5 -373.5t-303.5 -150.5q-68 0 -128 23.5t-96 51t-72.5 51t-63.5 23.5q-63 0 -147 -156h-25v1305q0 66 -28.5 102.5t-108.5 75.5v14q197 12 385 70v-706h2q127 176 311 176zM635 39q94 0 141 107.5t47 291.5 q0 213 -60.5 344t-174.5 131q-109 0 -213 -145v-418q37 -127 103.5 -219t156.5 -92z" glyph-name="b" horiz-adv-x="1134" unicode="b"/><glyph d="M526 -20q-199 0 -336 141t-137 374.5t134.5 374t324.5 140.5q129 0 226.5 -63.5t154.5 -149.5l-184 -144l-11 4q-12 117 -64 210.5t-138 93.5q-90 0 -153.5 -104.5t-63.5 -264.5q0 -199 100 -316.5t252 -117.5q109 0 179.5 58t102.5 138l19 -8q-29 -150 -129.5 -258 t-276.5 -108z" glyph-name="c" horiz-adv-x="962" unicode="c"/><glyph d="M446 -20q-162 0 -277.5 136t-115.5 365q0 233 121 381t297 148q164 0 289 -111v377q0 127 -135 180v14q197 12 383 70v-1343q0 -63 25.5 -88t109.5 -56v-12l-377 -61v186h-2q-49 -80 -134.5 -133t-183.5 -53zM543 76q115 0 217 141v432q-39 121 -106.5 211t-155.5 90 q-98 0 -143.5 -113.5t-45.5 -285.5q0 -213 62.5 -344t171.5 -131z" glyph-name="d" horiz-adv-x="1159" unicode="d"/><glyph d="M940 346l16 -8q-8 -41 -22 -81t-46 -93t-74 -91t-112.5 -65.5t-156.5 -27.5q-211 0 -351.5 141t-140.5 370.5t139.5 374t350.5 144.5q96 0 172 -33t117.5 -79t69.5 -101.5t37 -95t9 -66.5v-25h-667l-2 -24q0 -215 107.5 -321.5t264.5 -106.5q201 0 289 188zM502 956 q-88 0 -145.5 -79.5t-73.5 -223.5l432 4q-2 37 -12.5 81t-33 96.5t-66.5 87t-101 34.5z" glyph-name="e" horiz-adv-x="1009" unicode="e"/><glyph d="M399 1489q-66 0 -65 -115q0 -117 69 -389h275l-16 -57h-259v-686q0 -115 29 -153t129 -75v-14h-541v14q86 37 111 75t25 153v686h-129v57h129v88q0 467 288 467q133 0 320 -84l-160 -182l-10 4q-103 211 -195 211z" glyph-name="f" horiz-adv-x="704" unicode="f"/><glyph d="M758 147q264 -72 264 -260q0 -109 -88 -182.5t-203 -101t-242 -27.5q-109 0 -210 20.5t-177.5 70.5t-76.5 122q0 43 29.5 82t63.5 60.5t84 42t66.5 25.5t36.5 9q-4 0 -7 1t-15 3q-188 41 -189 162q0 68 64.5 122t169.5 81q-125 31 -196 108.5t-71 196.5q0 152 113 240 t285 88h35q141 0 208.5 47t75.5 110l203 -69v-8q-98 -119 -283 -119q-39 0 -104 10v-8q135 -29 224 -107t89 -196q0 -135 -113.5 -222.5t-310.5 -87.5q-53 0 -100 7q-92 -23 -92 -76q0 -45 47 -53q2 0 84 -16.5t182.5 -38.5t153.5 -36zM457 969q-66 0 -110 -56.5t-44 -162.5 q0 -125 57.5 -237t159.5 -112q68 0 111 53.5t43 159.5q0 131 -60.5 243t-156.5 112zM520 -377q125 0 214 43t89 123q0 51 -40 90t-113 58q-12 2 -316 61q-141 -72 -141 -186q0 -88 86 -138.5t221 -50.5z" glyph-name="g" horiz-adv-x="1042" unicode="g"/><glyph d="M1053 242q0 -115 24.5 -153t110.5 -75v-14h-518v14q88 37 112.5 75t24.5 153q2 375 2 393q0 244 -166 244q-131 0 -237 -154v-483q0 -115 24.5 -153t110.5 -75v-14h-521v14q88 37 113 75t25 153v944q0 139 -26 181t-112 83v14q215 16 386 70v-741q145 217 360 217 q115 0 201 -72t86 -223v-473z" glyph-name="h" horiz-adv-x="1204" unicode="h"/><glyph d="M256 1155q-57 0 -100 41t-43 96q0 53 43 94t100 41t100 -40.5t43 -94.5q0 -55 -43 -96t-100 -41zM20 0v14q88 37 113 75t25 153v424q0 139 -26 181t-112 83v14q215 16 386 70v-772q0 -115 24.5 -153t110.5 -75v-14h-521z" glyph-name="i" horiz-adv-x="557" unicode="i"/><glyph d="M250 1155q-57 0 -100.5 41t-43.5 96q0 53 43.5 94t100.5 41t100 -40.5t43 -94.5q0 -55 -43 -96t-100 -41zM-35 -428l-6 16q104 55 147.5 138.5t43.5 238.5v701q0 139 -26 181t-112 83v14q211 16 385 70v-910q0 -428 -432 -532z" glyph-name="j" horiz-adv-x="534" unicode="j"/><glyph d="M20 0v14q88 37 113 75t25 153v944q0 139 -26 181t-112 83v14q215 16 386 70v-1040l309 274q55 49 55 90q0 57 -108 113v14h428v-14q-8 -4 -39 -22.5t-39 -22.5t-34 -19.5t-35 -22.5t-30.5 -20.5t-33 -23t-28.5 -23.5t-31.5 -27.5t-31.5 -29.5l-176 -154l330 -438 q80 -106 184 -154v-14h-354l-332 465h-34v-223q0 -115 24.5 -153t110.5 -75v-14h-521z" glyph-name="k" horiz-adv-x="1142" unicode="k"/><glyph d="M20 0v14q88 37 113 75t25 153v944q0 139 -26 181t-112 83v14q215 16 386 70v-1292q0 -115 24.5 -153t110.5 -75v-14h-521z" glyph-name="l" horiz-adv-x="557" unicode="l"/><glyph d="M1640 242q0 -115 25 -153t111 -75v-14h-521v14q88 37 113 75t27 153q4 274 4 422q0 104 -48 157t-120 53q-117 0 -209 -151v-481q0 -115 24.5 -153t110.5 -75v-14h-518v14q90 37 113.5 74t25.5 154q2 92 2 422q0 104 -48 157t-118 53q-119 0 -208 -151v-481 q0 -115 24.5 -153t110.5 -75v-14h-521v14q88 37 113 75t25 153v426q0 135 -26 178t-112 86v12q193 16 379 70v-228q131 223 340 224q96 0 177 -55.5t100 -168.5q131 223 340 224q113 0 198.5 -71t85.5 -218v-479z" glyph-name="m" horiz-adv-x="1792" unicode="m"/><glyph d="M1053 242q0 -115 24.5 -153t110.5 -75v-14h-520v14q88 37 112.5 75t26.5 153q2 59 2 297q0 203 -34 271.5t-120 68.5q-82 0 -137 -39t-112 -115v-483q0 -115 24.5 -153t110.5 -75v-14h-521v14q88 37 113 75t25 153v426q0 135 -26 178t-112 86v12q193 16 379 70v-230 q150 225 367 226q115 0 201 -72t86 -223v-473z" glyph-name="n" horiz-adv-x="1204" unicode="n"/><glyph d="M549 -20q-221 0 -358.5 138t-137.5 365.5t136.5 377t367.5 149.5q223 0 359.5 -139.5t136.5 -367t-136.5 -375.5t-367.5 -148zM596 27q86 0 144.5 86t58.5 254q0 86 -16.5 183t-48.5 192.5t-90 157t-130 61.5q-88 0 -147.5 -86.5t-59.5 -251.5q0 -86 16.5 -184.5 t49.5 -192.5t91 -156.5t132 -62.5z" glyph-name="o" horiz-adv-x="1105" unicode="o"/><glyph d="M700 1010q170 0 284 -136.5t114 -359.5q0 -240 -125 -387t-293 -147q-158 0 -287 120h-4v-268q0 -115 35 -152.5t156 -74.5v-15h-574v15q86 37 110.5 74.5t24.5 152.5v973q0 55 -26.5 79.5t-108.5 47.5v12q195 16 379 70l-2 -183l4 -2q131 181 313 181zM649 39 q94 0 142.5 103.5t48.5 289.5q0 229 -66.5 355t-171.5 126q-106 0 -213 -143v-416q35 -125 100.5 -220t159.5 -95z" glyph-name="p" horiz-adv-x="1150" unicode="p"/><glyph d="M569 -410v15q123 37 157 74.5t34 152.5v324h-2q-49 -72 -130 -124t-182 -52q-164 0 -278.5 140t-114.5 363q0 227 119 377t303 150q88 0 162 -40t125 -79t82 -39q61 0 143 139h21v-1159q0 -115 24.5 -152.5t112.5 -74.5v-15h-576zM543 76q121 0 217 145v443 q-39 119 -105.5 201.5t-154.5 82.5q-98 0 -144.5 -110.5t-46.5 -290.5q0 -215 62.5 -343t171.5 -128z" glyph-name="q" horiz-adv-x="1144" unicode="q"/><glyph d="M20 0v14q88 37 113 75t25 153v432q0 125 -24.5 173t-113.5 85v12q199 16 379 70l-6 -207h6q29 78 100.5 140.5t174.5 62.5q57 0 98 -27l-29 -272h-14q-113 139 -201 139q-76 0 -122 -98v-510q0 -115 30.5 -153t138.5 -75v-14h-555z" glyph-name="r" horiz-adv-x="839" unicode="r"/><glyph d="M453 -25q-162 0 -357 80l-28 287l12 4q215 -326 379 -326q61 0 100 40t39 102q0 76 -58.5 125t-181.5 110q-70 35 -102.5 54.5t-86.5 62.5t-78.5 97.5t-24.5 121.5q0 135 98 207t235 72q135 0 312 -64l22 -268l-12 -2q-184 287 -336 287q-53 0 -89 -37t-36 -99 q0 -41 16.5 -73.5t56.5 -61t71.5 -45t99.5 -49.5q141 -66 219 -144.5t78 -195.5q0 -129 -95 -207t-253 -78z" glyph-name="s" horiz-adv-x="858" unicode="s"/><glyph d="M387 -18q-109 0 -183.5 70.5t-74.5 205.5v670h-100v28q250 164 323 295h23v-266h268l-8 -57h-258l-4 -631q-2 -106 43 -152.5t108 -46.5q74 0 144 72l8 -10q-113 -178 -289 -178z" glyph-name="t" horiz-adv-x="677" unicode="t"/><glyph d="M1051 238q0 -98 24.5 -128t110.5 -57v-12l-377 -70v213q-152 -211 -367 -211q-115 0 -200.5 72t-85.5 223v398q0 133 -25 179t-111 85v14q211 16 383 70q0 -113 -2 -348.5t-2 -346.5q0 -106 48.5 -159.5t121.5 -53.5q121 0 234 130v430q0 135 -23.5 179t-111.5 85v14 q193 12 383 68v-774z" glyph-name="u" horiz-adv-x="1200" unicode="u"/><glyph d="M735 985h342v-14q-84 -51 -113.5 -88t-62.5 -113l-323 -772h-68l-356 827q-20 49 -52 80t-98 66v14h526v-14q-66 -29 -92 -53.5t-26 -57.5q0 -25 24 -84l209 -502q33 78 63.5 156t53 136.5t40 103.5t28 73.5t12.5 32.5q14 37 14 68q0 37 -27.5 64.5t-93.5 62.5v14z" glyph-name="v" horiz-adv-x="1077" unicode="v"/><glyph d="M1327 985h344v-14q-59 -39 -96 -75t-50.5 -58.5t-29.5 -63.5l-321 -776h-68l-268 631l-263 -631h-67l-356 833q-33 76 -148 140v14h524v-14q-68 -25 -95 -49.5t-27 -57.5q0 -25 16 -67q2 -6 12 -32t62.5 -149.5t144.5 -336.5l168 415l-59 142q-35 82 -148 135v14h524v-14 q-68 -25 -96.5 -47.5t-28.5 -57.5q0 -25 17 -63q39 -98 221 -522q129 324 195 493q14 35 14 64q0 37 -26.5 64.5t-94.5 68.5v14z" glyph-name="w" horiz-adv-x="1671" unicode="w"/><glyph d="M948 131q43 -61 142 -117v-14h-551v14q133 39 133 82q0 14 -23 47l-180 273l-176 -234q-25 -35 -25 -63q0 -66 113 -105v-14h-365v14q70 37 115 71t96 99l213 273l-274 397q-59 88 -141 117v14h548v-14q-129 -35 -129 -82q0 -25 39 -82l148 -219l157 215q27 37 27 63 q0 51 -110 105v14h354v-14q-125 -61 -213 -178l-187 -248z" glyph-name="x" unicode="x"/><glyph d="M745 985h349v-14q-76 -43 -112 -85t-69 -126q-285 -707 -340 -813q-80 -154 -139 -229.5t-164 -149.5l-133 174l4 12q113 -4 217.5 39t153.5 146l31 63l-387 825q-23 47 -55.5 81t-96.5 63v14h547v-14q-119 -53 -119 -113q0 -27 21 -72l219 -489q98 231 188 477 q12 31 12 57q0 76 -127 140v14z" glyph-name="y" horiz-adv-x="1093" unicode="y"/><glyph d="M887 985v-29l-547 -909h270q57 0 106.5 52.5t147.5 232.5h13l-33 -332h-789v27l551 911h-244q-49 0 -97 -50t-159 -224h-12l33 321h760z" glyph-name="z" horiz-adv-x="942" unicode="z"/><glyph d="M434 135q-18 -102 -18 -178q0 -285 252 -340l-9 -18q-119 12 -211 54t-156.5 136t-64.5 229q0 57 13 125l14 78q10 57 10 105q0 125 -55 192.5t-115 77.5v27q59 10 114.5 77.5t55.5 192.5q0 47 -10 104l-14 78q-12 68 -13 125q0 135 64.5 229.5t157 136.5t210.5 54l9 -18 q-252 -55 -252 -340q0 -78 18 -179l17 -88q8 -43 8 -88q0 -131 -68.5 -210t-144.5 -87q76 -10 144.5 -90t68.5 -209q0 -45 -8 -88z" glyph-name="braceleft" horiz-adv-x="741" unicode="{"/><glyph d="M217 -240h-57v1821h57v-1821z" glyph-name="bar" horiz-adv-x="372" unicode="|"/><glyph d="M451 995q-10 -57 -11 -104q0 -125 55.5 -192.5t114.5 -77.5v-27q-59 -10 -114.5 -77.5t-55.5 -192.5q0 -47 11 -105l14 -78q12 -68 12 -125q0 -135 -64.5 -229t-157.5 -136t-212 -54l-6 18q125 29 188.5 108.5t63.5 231.5q0 78 -19 178l-16 88q-8 43 -8 88 q0 129 67.5 209t145.5 90q-76 10 -144.5 89t-68.5 208q0 45 8 88l16 88q18 102 19 181q0 283 -252 337l6 19q119 -12 212 -54t157.5 -136.5t64.5 -229.5q0 -57 -12 -125z" glyph-name="braceright" horiz-adv-x="700" unicode="}"/><glyph d="M676 569q-70 0 -204 70t-216 70q-100 0 -199 -76l-20 16q127 219 291 219q68 0 205 -72.5t217 -72.5q76 0 155 47l21 -16q-105 -185 -250 -185z" glyph-name="asciitilde" horiz-adv-x="956" unicode="~"/><glyph d="M241.5 1016q59.5 0 102.5 -42t43 -102q0 -57 -43 -99t-102.5 -42t-102.5 42t-43 99.5t43 100.5t102.5 43zM215 582h53q70 -756 109 -1028v-19h-271v19q37 246 109 1028z" glyph-name="exclamdown" horiz-adv-x="479" unicode="¡"/><glyph d="M932 346q-29 -145 -125 -253.5t-268 -112.5v-168h-54v170q-184 14 -308 153t-124 361q0 223 124 362t308 150v137h54v-135q217 -12 354 -213l-184 -144l-11 4q-14 109 -54 191t-105 104v-780q43 -14 96 -14q104 0 175 58t103 138zM279 592q0 -145 55 -249.5t151 -149.5 v768q-78 -4 -142 -102.5t-64 -266.5z" glyph-name="cent" horiz-adv-x="962" unicode="¢"/><glyph d="M1001 416h13l-53 -416h-902v78q141 94 195.5 208.5t54.5 254.5q0 104 -55 235h-201v53h178q-49 117 -49 220q0 184 123 309t338 125q147 0 318 -56l40 -309h-14q-78 127 -180 220.5t-199 93.5q-86 0 -151.5 -68t-65.5 -176q0 -76 55.5 -189.5t69.5 -169.5h299v-53h-289 q6 -47 6 -100q0 -49 -3 -81t-18 -86t-45 -99t-88.5 -105.5t-141.5 -122.5h522q68 0 133 71t110 163z" glyph-name="sterling" horiz-adv-x="1114" unicode="£"/><glyph d="M903 358q0 -2 -1 -2t-1 -2l129 -129l-45 -49l-131 131h-2q-139 -117 -315 -117q-180 0 -320 119l-133 -133l-47 47l133 133l-2 2v2h2q-117 137 -117 312q0 180 119 319l-133 133l49 47l133 -133q129 117 316 117q176 0 315 -119v2l2 -2l131 133l45 -47l-131 -131l2 -2h-2 q121 -141 121 -317q0 -175 -117 -314zM127 672q0 -170 121 -291t289 -121q166 0 287.5 121t121.5 291q0 172 -120.5 292.5t-288.5 120.5t-289 -121.5t-121 -291.5z" glyph-name="currency" horiz-adv-x="1062" unicode="¤"/><glyph d="M973 1440h391v-13q-57 -31 -101 -72.5t-65.5 -73.5t-60.5 -97l-277 -471h260v-49h-289v-177h291v-49h-291v-180q0 -125 28 -163t142 -81v-14h-620v14q115 43 142.5 81t27.5 163v180h-287v49h287v160l-10 17h-279v49h250l-336 559q-23 37 -37 56.5t-46 46t-81 52.5v13h602 v-13q-78 -41 -106.5 -65.5t-28.5 -52.5q0 -31 47 -109l281 -469l258 453q37 63 37 106q0 72 -129 137v13z" glyph-name="yen" horiz-adv-x="1372" unicode="¥"/><glyph d="M993 557q0 -106 -63.5 -176t-171.5 -133q141 -119 141 -258q0 -131 -100.5 -215t-253.5 -84q-150 0 -326 76l-18 290h14q55 -129 140 -222t186 -93q66 0 119 39t53 115q0 41 -14.5 75.5t-54.5 73.5t-67.5 60.5t-93.5 68.5q-14 10 -22 16q-86 61 -134 100.5t-101.5 94.5 t-77 112.5t-23.5 125.5q0 209 223 319q-143 121 -143 260q0 119 92 203t250 84q152 0 307 -64l25 -276h-15q-57 117 -141 205t-174 88q-63 0 -110.5 -46t-47.5 -112q0 -20 5 -40.5t16.5 -40t21.5 -35t30.5 -34t32 -29.5t37 -28.5t37 -23.5t38 -23.5t32.5 -21.5 q352 -222 352 -451zM721 276q100 92 100 191q0 51 -24.5 99t-78.5 97.5t-91 77t-111 78.5q-45 31 -131 94q-100 -78 -100 -188q0 -84 63.5 -155.5t216.5 -182.5q115 -76 156 -111z" glyph-name="section" horiz-adv-x="1105" unicode="§"/><glyph d="M203 1163q-51 0 -88 37t-37 90q0 51 37 88t88 37t89 -37t38 -88t-38 -89t-89 -38zM555 1163q-51 0 -88 38t-37 89t37 88t88 37t89 -37t38 -88t-38 -89t-89 -38z" glyph-name="dieresis" horiz-adv-x="753" unicode="¨"/><glyph d="M835.5 -12q-311.5 0 -530.5 219t-219 528t220 528.5t529.5 219.5t528.5 -219.5t219 -528.5t-218 -528t-529.5 -219zM839.5 45q278.5 0 479.5 206t201 484.5t-201 484t-481 205.5q-279 0 -482.5 -202.5t-203.5 -487t204.5 -487.5t483 -203zM840 1227q-111 0 -194 -120 t-83 -343q0 -229 88 -355t199 -126q80 0 165 75.5t150 176.5h9l-27 -240q-162 -49 -305 -49q-207 0 -339 130t-132 365q0 238 134 379.5t337 141.5q125 0 305 -52l27 -237h-9q-163 254 -325 254z" glyph-name="copyright" horiz-adv-x="1669" unicode="©"/><glyph d="M524 889q-115 0 -110 129v2q-72 -129 -215 -129q-76 0 -120 40t-44 101q0 90 98 151.5t283 110.5l2 97q0 92 -70 92q-106 0 -135 -191l-6 -2l-125 70q31 59 103.5 104t181.5 45q127 0 176 -60t47 -146l-6 -297q0 -41 32 -41q27 0 52 49l10 -4q-18 -51 -57.5 -86 t-96.5 -35zM297 991q59 0 115 64l4 215q-195 -59 -195 -187q0 -43 20.5 -67.5t55.5 -24.5z" glyph-name="ordfeminine" horiz-adv-x="679" unicode="ª"/><glyph d="M610 938q-123 -217 -278 -424q156 -207 278 -424h-43q-219 207 -481 414v20q262 209 481 414h43zM1010 938q-119 -217 -279 -424q160 -207 279 -424h-43q-217 207 -482 414v20q264 209 482 414h43z" glyph-name="guillemotleft" horiz-adv-x="1091" unicode="«"/><glyph d="M580 584q-205 0 -349.5 144t-144.5 347t144.5 347.5t349.5 144.5q203 0 347 -144.5t144 -347.5t-144 -347t-347 -144zM580 637q180 0 309 131t129 307q0 178 -129 309.5t-309 131.5q-178 0 -309.5 -129.5t-131.5 -311.5t131.5 -310t309.5 -128zM780 870q25 -35 66 -67v-4 h-137q-109 176 -170 286l-43 -2v-182q0 -49 10 -65.5t53 -32.5v-4h-229v4q43 16 53 32.5t10 65.5v379q0 49 -10 65.5t-53 32.5v6h237q94 0 150.5 -38.5t56.5 -104.5q0 -63 -52 -107t-130 -44h-27v-3q41 -27 97 -20q71 -129 118 -197zM496 1362v-256h65q47 0 80 34t33 97 q0 125 -123 125h-55z" glyph-name="registered" horiz-adv-x="1155" unicode="®"/><glyph d="M600 1339v-135h-522v135h522z" glyph-name="macron" horiz-adv-x="673" unicode="¯"/><glyph d="M430 854q-131 0 -225 92t-94 225.5t94 226.5t225 93t225.5 -93t94.5 -226.5t-94.5 -225.5t-225.5 -92zM430 909q106 0 181 77t75 190q0 109 -72.5 184.5t-181.5 75.5q-111 0 -185.5 -76t-74.5 -189q0 -106 74.5 -184t183.5 -78z" glyph-name="degree" horiz-adv-x="856" unicode="°"/><glyph d="M414 762q66 0 98.5 18.5t75.5 73.5l8 -2l-76 -240h-514v29q195 195 283 331t88 240q0 78 -40 122t-99 44q-100 0 -197 -110l-18 8q49 88 127.5 151.5t168.5 63.5q88 0 154 -60.5t66 -160.5q0 -115 -88.5 -223.5t-286.5 -284.5h250z" glyph-name="uni00B2" horiz-adv-x="616" unicode="²"/><glyph d="M45 1305q129 184 305 184q88 0 144.5 -47t56.5 -119q0 -141 -217 -219v-2q25 6 51 6q90 0 156.5 -61.5t66.5 -169.5q0 -129 -93 -204t-222 -75q-117 0 -256 51l72 176l10 -2q78 -190 186 -190q59 0 100 59.5t41 147.5q0 90 -44 147t-121 57q-47 0 -105 -24l-8 24 q231 111 231 236q0 57 -35.5 86t-93.5 29q-119 0 -209 -105z" glyph-name="uni00B3" horiz-adv-x="643" unicode="³"/><glyph d="M98 1137h-20q20 115 45 327h266q-189 -221 -291 -327z" glyph-name="acute" horiz-adv-x="462" unicode="´"/><glyph d="M545 1464v-1464h-287v14q115 43 142.5 81t27.5 163v317h-47q-143 0 -243.5 130.5t-100.5 312.5q0 184 100.5 315t243.5 131h164zM967 1464v-14q-115 -43 -142.5 -81t-27.5 -163v-948q0 -125 27.5 -163t142.5 -81v-14h-287v1464h287z" glyph-name="paragraph" horiz-adv-x="999" unicode="¶"/><glyph d="M243.5 512q-63.5 0 -110.5 47t-47 110.5t47 110.5t110.5 47t109.5 -47t46 -110.5t-46 -110.5t-109.5 -47z" glyph-name="periodcentered" horiz-adv-x="481" unicode="·"/><glyph d="M94 -406q109 10 176.5 45t67.5 91q0 47 -51 78.5t-135 33.5l108 152h39l-37 -62q238 -18 238 -157q0 -104 -109.5 -160.5t-312.5 -54.5z" glyph-name="cedilla" horiz-adv-x="573" unicode="¸"/><glyph d="M63 612v9q63 27 79 50t16 95v502q0 47 -23.5 69.5t-91.5 46.5v9l293 104v-731q0 -72 15.5 -95.5t80.5 -49.5v-9h-369z" glyph-name="uni00B9" horiz-adv-x="452" unicode="¹"/><glyph d="M344 889q-143 0 -228 82t-85 221t84 228t231 89q141 0 226 -83t85 -222q0 -141 -86 -228t-227 -87zM373 922q43 0 70.5 44t27.5 134q0 119 -39 249t-115 130q-43 0 -72.5 -46.5t-29.5 -134.5q0 -117 40 -246.5t118 -129.5z" glyph-name="ordmasculine" horiz-adv-x="688" unicode="º"/><glyph d="M86 938h43q217 -205 481 -414v-20q-264 -207 -481 -414h-43q119 217 279 424q-160 207 -279 424zM485 938h43q219 -205 482 -414v-20q-262 -207 -482 -414h-43q111 203 279 424q-168 221 -279 424z" glyph-name="guillemotright" horiz-adv-x="1091" unicode="»"/><glyph d="M63 612v9q63 27 79 50t16 95v502q0 47 -23.5 69.5t-91.5 46.5v9l293 104v-731q0 -72 15.5 -95.5t80.5 -49.5v-9h-369zM213 0l1008 1464h55l-1008 -1464h-55zM1534 254h-117v-100q0 -72 15.5 -94.5t78.5 -51.5v-8h-352v8q66 29 80 52.5t14 93.5v100h-372v18l505 605h31 v-553h129zM969 324h284v350z" glyph-name="onequarter" horiz-adv-x="1611" unicode="¼"/><glyph d="M63 612v9q63 27 79 50t16 95v502q0 47 -23.5 69.5t-91.5 46.5v9l293 104v-731q0 -72 15.5 -95.5t80.5 -49.5v-9h-369zM213 0l1008 1464h55l-1008 -1464h-55zM1331 152q66 0 98.5 18t75.5 74l8 -2l-75 -242h-514v29q371 373 370 573q0 78 -40 121t-99 43q-102 0 -197 -109 l-18 9q49 86 128 149.5t169 63.5q88 0 153.5 -60.5t65.5 -161.5q0 -115 -89 -224t-286 -281h250z" glyph-name="onehalf" horiz-adv-x="1574" unicode="½"/><glyph d="M45 1305q129 184 305 184q88 0 144.5 -47t56.5 -119q0 -141 -217 -219v-2q25 6 51 6q90 0 156.5 -61.5t66.5 -169.5q0 -129 -93 -204t-222 -75q-117 0 -256 51l72 176l10 -2q78 -190 186 -190q59 0 100 59.5t41 147.5q0 90 -44 147t-121 57q-47 0 -105 -24l-8 24 q231 111 231 236q0 57 -35.5 86t-93.5 29q-119 0 -209 -105zM330 0l1007 1464h56l-1008 -1464h-55zM1651 254h-117v-100q0 -72 15.5 -94.5t78.5 -51.5v-8h-352v8q66 29 80 52.5t14 93.5v100h-373v18l506 605h31v-553h129zM1085 324h285v350z" glyph-name="threequarters" horiz-adv-x="1726" unicode="¾"/><glyph d="M546.5 1016q59.5 0 102.5 -42t43 -102q0 -57 -43 -99t-102.5 -42t-102.5 42t-43 99.5t43 100.5t102.5 43zM592 582q-6 -104 -41 -196.5t-80 -159t-90 -128t-76 -133t-31 -147.5q0 -104 48.5 -182t128.5 -78q88 0 156.5 95t107.5 228l6 2l137 -231q-209 -141 -416 -141 q-172 0 -282.5 87t-110.5 240q0 90 43 170t106.5 141.5t129 122t120 141.5t68.5 169h76z" glyph-name="questiondown" horiz-adv-x="901" unicode="¿"/><glyph d="M838 1575h-21q-135 135 -293 313h269q16 -157 45 -313zM1282 197q29 -78 58.5 -111t119.5 -72v-14h-622v14q90 37 123.5 64.5t33.5 64.5q0 33 -30 115l-88 242h-490l-22 -62q-72 -193 -72 -258q0 -57 37 -92t129 -74v-14h-434v14q111 80 159.5 157t114.5 255l301 827 l-65 131q156 63 247 129zM418 588h428l-215 594z" glyph-name="Agrave" horiz-adv-x="1480" unicode="À"/><glyph d="M961 1888q-172 -201 -291 -327h-21q25 162 45 327h267zM1282 197q29 -78 58.5 -111t119.5 -72v-14h-622v14q90 37 123.5 64.5t33.5 64.5q0 33 -30 115l-88 242h-490l-22 -62q-72 -193 -72 -258q0 -57 37 -92t129 -74v-14h-434v14q111 80 159.5 157t114.5 255l301 827 l-65 131q156 63 247 129zM418 588h428l-215 594z" glyph-name="Aacute" horiz-adv-x="1480" unicode="Á"/><glyph d="M750 1694l-256 -168l-13 12q129 180 260 375h15q127 -193 260 -375l-12 -12zM1282 197q29 -78 58.5 -111t119.5 -72v-14h-622v14q90 37 123.5 64.5t33.5 64.5q0 33 -30 115l-88 242h-490l-22 -62q-72 -193 -72 -258q0 -57 37 -92t129 -74v-14h-434v14q111 80 159.5 157 t114.5 255l301 827l-65 131q156 63 247 129zM418 588h428l-215 594z" glyph-name="Acircumflex" horiz-adv-x="1480" unicode="Â"/><glyph d="M563 1649q-74 0 -133 -60l-16 4q37 205 225 205q43 0 141 -31q113 -35 133 -34q59 0 84 10t64 47l18 -4q-20 -113 -73.5 -159t-157.5 -46q-25 0 -133 33q-117 35 -152 35zM1282 197q29 -78 58.5 -111t119.5 -72v-14h-622v14q90 37 123.5 64.5t33.5 64.5q0 33 -30 115 l-88 242h-490l-22 -62q-72 -193 -72 -258q0 -57 37 -92t129 -74v-14h-434v14q111 80 159.5 157t114.5 255l301 827l-65 131q156 63 247 129zM418 588h428l-215 594z" glyph-name="Atilde" horiz-adv-x="1480" unicode="Ã"/><glyph d="M543 1554q-53 0 -91 38t-38 91.5t37.5 91t91.5 37.5q51 0 90 -37.5t39 -91t-39 -91.5t-90 -38zM944 1556q-51 0 -89 37t-38 90.5t37 91t90 37.5t91 -37.5t38 -91t-38 -90.5t-91 -37zM1282 197q29 -78 58.5 -111t119.5 -72v-14h-622v14q90 37 123.5 64.5t33.5 64.5 q0 33 -30 115l-88 242h-490l-22 -62q-72 -193 -72 -258q0 -57 37 -92t129 -74v-14h-434v14q111 80 159.5 157t114.5 255l301 827l-65 131q156 63 247 129zM418 588h428l-215 594z" glyph-name="Adieresis" horiz-adv-x="1480" unicode="Ä"/><glyph d="M743.5 1536q-77.5 0 -132 56.5t-54.5 133.5q0 80 54.5 135.5t131.5 55.5q76 0 131.5 -55.5t55.5 -135.5q0 -78 -54.5 -134t-132 -56zM741 1868q-51 0 -85.5 -41t-34.5 -96.5t37.5 -99.5t89 -44t85 41t33.5 96q0 59 -36 101.5t-89 42.5zM1282 197q29 -78 58.5 -111 t119.5 -72v-14h-622v14q90 37 123.5 64.5t33.5 64.5q0 33 -30 115l-88 242h-490l-22 -62q-72 -193 -72 -258q0 -57 37 -92t129 -74v-14h-434v14q111 80 159.5 157t114.5 255l301 827l-65 131q156 63 247 129zM418 588h428l-215 594z" glyph-name="Aring" horiz-adv-x="1480" unicode="Å"/><glyph d="M1880 385h14l-49 -385h-1102v14q115 43 142.5 81t27.5 163v240h-475l-110 -187q-57 -94 -58 -147q0 -43 38 -77t126 -73v-14h-426v14q82 61 134.5 120t121.5 175l580 983q10 16 10 31q0 27 -34 52.5t-122 74.5v14h1078l36 -374h-12q-45 131 -145.5 224t-247.5 93h-213 v-594h209q158 0 248 148h10v-369h-10q-90 168 -248 166l-209 -4v-602q0 -41 65.5 -67t180.5 -26h71q119 0 215.5 98.5t153.5 227.5zM487 582h426v718h-4z" glyph-name="AE" horiz-adv-x="1990" unicode="Æ"/><glyph d="M776 31q125 0 251 113.5t226 271.5h15l-41 -369q-231 -72 -451 -74l-16 -34q270 -23 270 -181q0 -182 -385 -180l10 35q104 8 161.5 39t57.5 78q0 49 -58 83.5t-150 36.5l69 123q-307 10 -490.5 211t-183.5 537q0 360 206 565t505 205q193 0 455 -74l41 -364h-13 q-104 162 -231 272.5t-256 110.5q-162 0 -284 -178.5t-122 -512.5q0 -342 127 -528t287 -186z" glyph-name="Ccedilla" horiz-adv-x="1390" unicode="Ç"/><glyph d="M750 1561h-21q-131 139 -291 329h267q25 -212 45 -329zM1184 385h14l-49 -385h-1112v14q115 43 142.5 81t27.5 163v948q0 125 -27.5 163t-142.5 81v14h1038l37 -374h-12q-45 131 -145.5 224t-247.5 93h-220v-596h218q158 0 247 147h11v-368h-11q-92 168 -247 166l-218 -4 v-600q0 -41 64.5 -67t179.5 -26h84q119 0 215.5 98.5t153.5 227.5z" glyph-name="Egrave" horiz-adv-x="1294" unicode="È"/><glyph d="M874 1888q-172 -201 -290 -327h-21q25 162 45 327h266zM1184 385h14l-49 -385h-1112v14q115 43 142.5 81t27.5 163v948q0 125 -27.5 163t-142.5 81v14h1038l37 -374h-12q-45 131 -145.5 224t-247.5 93h-220v-596h218q158 0 247 147h11v-368h-11q-92 168 -247 166l-218 -4 v-600q0 -41 64.5 -67t179.5 -26h84q119 0 215.5 98.5t153.5 227.5z" glyph-name="Eacute" horiz-adv-x="1294" unicode="É"/><glyph d="M664 1694l-256 -168l-13 12q129 180 260 375h15q127 -193 260 -375l-12 -12zM1184 385h14l-49 -385h-1112v14q115 43 142.5 81t27.5 163v948q0 125 -27.5 163t-142.5 81v14h1038l37 -374h-12q-45 131 -145.5 224t-247.5 93h-220v-596h218q158 0 247 147h11v-368h-11 q-92 168 -247 166l-218 -4v-600q0 -41 64.5 -67t179.5 -26h84q119 0 215.5 98.5t153.5 227.5z" glyph-name="Ecircumflex" horiz-adv-x="1294" unicode="Ê"/><glyph d="M457 1554q-53 0 -91 38t-38 91.5t37.5 91t91.5 37.5q51 0 90 -37.5t39 -91t-39 -91.5t-90 -38zM858 1556q-51 0 -89 37t-38 90.5t37 91t90 37.5t91 -37.5t38 -91t-38 -90.5t-91 -37zM1184 385h14l-49 -385h-1112v14q115 43 142.5 81t27.5 163v948q0 125 -27.5 163 t-142.5 81v14h1038l37 -374h-12q-45 131 -145.5 224t-247.5 93h-220v-596h218q158 0 247 147h11v-368h-11q-92 168 -247 166l-218 -4v-600q0 -41 64.5 -67t179.5 -26h84q119 0 215.5 98.5t153.5 227.5z" glyph-name="Edieresis" horiz-adv-x="1294" unicode="Ë"/><glyph d="M422 1561q-131 139 -291 329h266q25 -213 45 -329h-20zM37 0v14q115 43 142.5 81t27.5 163v948q0 125 -27.5 163t-142.5 81v14h618v-14q-113 -43 -140.5 -80t-27.5 -164v-948q0 -127 28 -164t140 -80v-14h-618z" glyph-name="Igrave" horiz-adv-x="688" unicode="Ì"/><glyph d="M274 1561h-20q25 162 45 327h266q-172 -200 -291 -327zM37 0v14q115 43 142.5 81t27.5 163v948q0 125 -27.5 163t-142.5 81v14h618v-14q-113 -43 -140.5 -80t-27.5 -164v-948q0 -127 28 -164t140 -80v-14h-618z" glyph-name="Iacute" horiz-adv-x="688" unicode="Í"/><glyph d="M98 1526l-12 12q129 180 260 375h14q127 -193 261 -375l-13 -12l-254 168zM37 0v14q115 43 142.5 81t27.5 163v948q0 125 -27.5 163t-142.5 81v14h618v-14q-113 -43 -140.5 -80t-27.5 -164v-948q0 -127 28 -164t140 -80v-14h-618z" glyph-name="Icircumflex" horiz-adv-x="688" unicode="Î"/><glyph d="M147.5 1554q-53.5 0 -91.5 38t-38 91.5t38 91t91.5 37.5t91 -37.5t37.5 -91t-37.5 -91.5t-91 -38zM549 1556q-53 0 -90 37t-37 90.5t37 91t90 37.5t91 -37.5t38 -91t-38 -90.5t-91 -37zM37 0v14q115 43 142.5 81t27.5 163v948q0 125 -27.5 163t-142.5 81v14h618v-14 q-113 -43 -140.5 -80t-27.5 -164v-948q0 -127 28 -164t140 -80v-14h-618z" glyph-name="Idieresis" horiz-adv-x="688" unicode="Ï"/><glyph d="M592 1464q410 0 619.5 -189.5t209.5 -512.5q0 -328 -199.5 -545t-535.5 -217h-649v14q115 43 142.5 81t27.5 163v479h-98v54h98v415q0 125 -27.5 163t-142.5 81v14h555zM696 59q199 12 311.5 194.5t112.5 496.5q0 657 -538 657h-95v-616h224v-54h-224v-585q0 -83 209 -93 z" glyph-name="Eth" horiz-adv-x="1482" unicode="Ð"/><glyph d="M594 1649q-74 0 -133 -60l-17 4q37 205 226 205q43 0 141 -31q113 -35 133 -34q59 0 84 10t64 47l18 -4q-20 -113 -73.5 -159t-157.5 -46q-25 0 -134 33q-116 35 -151 35zM1485 1464v-14q-94 -35 -131 -65.5t-54.5 -101.5t-17.5 -226v-1057h-211q-389 631 -768 1200v-792 q0 -156 17.5 -226.5t54.5 -101.5t131 -66v-14h-469v14q94 35 131 66t54.5 101.5t17.5 226.5v866q-47 98 -199 176v14h408q401 -606 768 -1200v793q0 156 -17.5 226.5t-54.5 101t-131 65.5v14h471z" glyph-name="Ntilde" horiz-adv-x="1507" unicode="Ñ"/><glyph d="M854 1561q-131 139 -291 329h266q25 -213 45 -329h-20zM780.5 -27q-321.5 0 -520.5 208t-199 552t199 551t520.5 207t521 -208t199.5 -550t-199.5 -551t-521 -209zM825 33q166 0 273.5 155.5t107.5 419.5q0 129 -27.5 267.5t-81 265.5t-147.5 209t-213 82 q-170 0 -275.5 -157t-105.5 -419q0 -131 29 -270.5t82 -265t147 -206.5t211 -81z" glyph-name="Ograve" horiz-adv-x="1562" unicode="Ò"/><glyph d="M709 1561h-21q25 162 45 327h266q-171 -200 -290 -327zM780.5 -27q-321.5 0 -520.5 208t-199 552t199 551t520.5 207t521 -208t199.5 -550t-199.5 -551t-521 -209zM825 33q166 0 273.5 155.5t107.5 419.5q0 129 -27.5 267.5t-81 265.5t-147.5 209t-213 82 q-170 0 -275.5 -157t-105.5 -419q0 -131 29 -270.5t82 -265t147 -206.5t211 -81z" glyph-name="Oacute" horiz-adv-x="1562" unicode="Ó"/><glyph d="M532 1526l-12 12q129 180 260 375h15q127 -193 260 -375l-13 -12l-254 168zM780.5 -27q-321.5 0 -520.5 208t-199 552t199 551t520.5 207t521 -208t199.5 -550t-199.5 -551t-521 -209zM825 33q166 0 273.5 155.5t107.5 419.5q0 129 -27.5 267.5t-81 265.5t-147.5 209 t-213 82q-170 0 -275.5 -157t-105.5 -419q0 -131 29 -270.5t82 -265t147 -206.5t211 -81z" glyph-name="Ocircumflex" horiz-adv-x="1562" unicode="Ô"/><glyph d="M1100 1790l18 -4q-20 -113 -73.5 -159t-157.5 -46q-25 0 -133 33q-117 35 -152 35q-74 0 -133 -60l-16 4q37 205 225 205q43 0 141 -31q113 -35 133 -34q59 0 84 10t64 47zM780.5 -27q-321.5 0 -520.5 208t-199 552t199 551t520.5 207t521 -208t199.5 -550t-199.5 -551 t-521 -209zM825 33q166 0 273.5 155.5t107.5 419.5q0 129 -27.5 267.5t-81 265.5t-147.5 209t-213 82q-170 0 -275.5 -157t-105.5 -419q0 -131 29 -270.5t82 -265t147 -206.5t211 -81z" glyph-name="Otilde" horiz-adv-x="1562" unicode="Õ"/><glyph d="M581.5 1554q-53.5 0 -91 38t-37.5 91.5t37.5 91t91 37.5t91.5 -37.5t38 -91t-38 -91.5t-91.5 -38zM983 1556q-53 0 -90 37t-37 90.5t37 91t90 37.5t91 -37.5t38 -91t-38 -90.5t-91 -37zM780.5 -27q-321.5 0 -520.5 208t-199 552t199 551t520.5 207t521 -208t199.5 -550 t-199.5 -551t-521 -209zM825 33q166 0 273.5 155.5t107.5 419.5q0 129 -27.5 267.5t-81 265.5t-147.5 209t-213 82q-170 0 -275.5 -157t-105.5 -419q0 -131 29 -270.5t82 -265t147 -206.5t211 -81z" glyph-name="Odieresis" horiz-adv-x="1562" unicode="Ö"/><glyph d="M725 408l-39 -39l-280 282l-275 -274l-37 35l275 274l-283 283l39 39l283 -283l272 274l37 -36l-273 -273z" glyph-name="multiply" horiz-adv-x="806" unicode="×"/><glyph d="M1243 1337q258 -213 258 -604q0 -342 -199.5 -551t-521.5 -209q-242 0 -424 125l-114 -161h-60l137 190q-258 213 -258 606q0 344 199 551t520 207q244 0 426 -125l105 147h59zM356 856q0 -287 107 -526l612 856q-127 246 -338 246q-172 0 -276.5 -158t-104.5 -418z M823 33q168 0 275.5 155.5t107.5 421.5q0 291 -106 525l-613 -854q131 -248 336 -248z" glyph-name="Oslash" horiz-adv-x="1562" unicode="Ø"/><glyph d="M850 1561q-131 139 -291 329h266q25 -213 45 -329h-20zM1475 1464v-14q-94 -35 -131 -65.5t-54.5 -101.5t-17.5 -226v-590q0 -233 -134 -363.5t-376 -130.5q-82 0 -157 15.5t-148.5 53.5t-128 96.5t-88 152.5t-33.5 213v702q0 125 -27.5 163t-142.5 81v14h618v-14 q-113 -43 -140.5 -80t-27.5 -164v-700q0 -219 96.5 -336t260.5 -117q160 0 262 107.5t102 304.5v592q0 156 -17 226.5t-54 101t-131 65.5v14h469z" glyph-name="Ugrave" horiz-adv-x="1490" unicode="Ù"/><glyph d="M702 1561h-20q25 162 45 327h266q-172 -200 -291 -327zM1475 1464v-14q-94 -35 -131 -65.5t-54.5 -101.5t-17.5 -226v-590q0 -233 -134 -363.5t-376 -130.5q-82 0 -157 15.5t-148.5 53.5t-128 96.5t-88 152.5t-33.5 213v702q0 125 -27.5 163t-142.5 81v14h618v-14 q-113 -43 -140.5 -80t-27.5 -164v-700q0 -219 96.5 -336t260.5 -117q160 0 262 107.5t102 304.5v592q0 156 -17 226.5t-54 101t-131 65.5v14h469z" glyph-name="Uacute" horiz-adv-x="1490" unicode="Ú"/><glyph d="M526 1526l-12 12q129 180 260 375h14q127 -193 261 -375l-13 -12l-254 168zM1475 1464v-14q-94 -35 -131 -65.5t-54.5 -101.5t-17.5 -226v-590q0 -233 -134 -363.5t-376 -130.5q-82 0 -157 15.5t-148.5 53.5t-128 96.5t-88 152.5t-33.5 213v702q0 125 -27.5 163 t-142.5 81v14h618v-14q-113 -43 -140.5 -80t-27.5 -164v-700q0 -219 96.5 -336t260.5 -117q160 0 262 107.5t102 304.5v592q0 156 -17 226.5t-54 101t-131 65.5v14h469z" glyph-name="Ucircumflex" horiz-adv-x="1490" unicode="Û"/><glyph d="M575 1554q-53 0 -91 38t-38 91.5t38 91t91 37.5q51 0 90.5 -37.5t39.5 -91t-39.5 -91.5t-90.5 -38zM977 1556q-51 0 -89 37t-38 90.5t37 91t90 37.5t91 -37.5t38 -91t-38 -90.5t-91 -37zM1475 1464v-14q-94 -35 -131 -65.5t-54.5 -101.5t-17.5 -226v-590 q0 -233 -134 -363.5t-376 -130.5q-82 0 -157 15.5t-148.5 53.5t-128 96.5t-88 152.5t-33.5 213v702q0 125 -27.5 163t-142.5 81v14h618v-14q-113 -43 -140.5 -80t-27.5 -164v-700q0 -219 96.5 -336t260.5 -117q160 0 262 107.5t102 304.5v592q0 156 -17 226.5t-54 101 t-131 65.5v14h469z" glyph-name="Udieresis" horiz-adv-x="1490" unicode="Ü"/><glyph d="M981 1888q-172 -201 -291 -327h-20q25 162 45 327h266zM1010 1464h407v-14q-61 -29 -111.5 -78t-68.5 -75.5t-57 -90.5l-322 -534v-414q0 -125 27.5 -163t142.5 -81v-14h-620v14q115 43 142.5 81t27.5 163v399l-392 639q-31 53 -64.5 84t-109.5 70v14h621v-14 q-82 -43 -111.5 -65.5t-29.5 -51.5q0 -33 47 -110l295 -482l272 465q37 63 37 105q0 74 -133 139v14z" glyph-name="Yacute" horiz-adv-x="1425" unicode="Ý"/><glyph d="M696 936q0 -43 51.5 -87t125 -91t147.5 -104.5t125 -146.5t51 -198q0 -158 -100.5 -246t-239.5 -88q-160 0 -328 101l47 309l11 -4q45 -145 113.5 -253t150.5 -108q55 0 98 50.5t43 144.5q0 90 -45 160.5t-108.5 118t-128 90.5t-109.5 99t-45 124q0 51 25.5 92t62.5 70.5 t74 61.5t62.5 82t25.5 114q0 96 -51.5 156.5t-126.5 60.5q-90 0 -157 -88t-67 -271v-843q0 -115 25 -153t111 -75v-14h-519v14q86 37 111 75t25 153v690h-117v57h117v58q0 197 120.5 319.5t344.5 122.5q166 0 263 -67.5t97 -180.5q0 -72 -44 -120t-98.5 -67.5t-98.5 -49 t-44 -68.5z" glyph-name="germandbls" horiz-adv-x="1249" unicode="ß"/><glyph d="M627 1133q-102 106 -291 327h266q18 -168 45 -327h-20zM858 -20q-96 0 -133 63t-33 147h-4q-45 -82 -139 -144t-217 -62q-125 0 -198 64.5t-73 168.5q0 141 160 245.5t475 190.5l4 148q2 70 -31.5 119t-107.5 49q-98 0 -154.5 -92.5t-74.5 -223.5l-10 -2l-183 121 q53 94 167 166t282 72q186 0 269 -91.5t79 -222.5l-12 -532q0 -70 51 -70q53 0 94 88l16 -8q-27 -80 -83 -137t-144 -57zM461 123q117 0 225 123l10 366q-203 -63 -288.5 -146t-85.5 -185q0 -74 38 -116t101 -42z" glyph-name="agrave" horiz-adv-x="1093" unicode="à"/><glyph d="M506 1133h-19q29 178 43 327h269q-174 -202 -293 -327zM858 -20q-96 0 -133 63t-33 147h-4q-45 -82 -139 -144t-217 -62q-125 0 -198 64.5t-73 168.5q0 141 160 245.5t475 190.5l4 148q2 70 -31.5 119t-107.5 49q-98 0 -154.5 -92.5t-74.5 -223.5l-10 -2l-183 121 q53 94 167 166t282 72q186 0 269 -91.5t79 -222.5l-12 -532q0 -70 51 -70q53 0 94 88l16 -8q-27 -80 -83 -137t-144 -57zM461 123q117 0 225 123l10 366q-203 -63 -288.5 -146t-85.5 -185q0 -74 38 -116t101 -42z" glyph-name="aacute" horiz-adv-x="1093" unicode="á"/><glyph d="M319 1112l-12 12q51 68 131 183.5t121 173.5h12q147 -221 250 -357l-12 -12l-244 162zM858 -20q-96 0 -133 63t-33 147h-4q-45 -82 -139 -144t-217 -62q-125 0 -198 64.5t-73 168.5q0 141 160 245.5t475 190.5l4 148q2 70 -31.5 119t-107.5 49q-98 0 -154.5 -92.5 t-74.5 -223.5l-10 -2l-183 121q53 94 167 166t282 72q186 0 269 -91.5t79 -222.5l-12 -532q0 -70 51 -70q53 0 94 88l16 -8q-27 -80 -83 -137t-144 -57zM461 123q117 0 225 123l10 366q-203 -63 -288.5 -146t-85.5 -185q0 -74 38 -116t101 -42z" glyph-name="acircumflex" horiz-adv-x="1093" unicode="â"/><glyph d="M856 1386l18 -4q-35 -197 -194 -196q-49 0 -141 31q-104 35 -138 34q-68 0 -120 -59l-17 4q23 113 73 156t152 43q14 0 110.5 -33t123.5 -33q53 0 74.5 10t58.5 47zM858 -20q-96 0 -133 63t-33 147h-4q-45 -82 -139 -144t-217 -62q-125 0 -198 64.5t-73 168.5 q0 141 160 245.5t475 190.5l4 148q2 70 -31.5 119t-107.5 49q-98 0 -154.5 -92.5t-74.5 -223.5l-10 -2l-183 121q53 94 167 166t282 72q186 0 269 -91.5t79 -222.5l-12 -532q0 -70 51 -70q53 0 94 88l16 -8q-27 -80 -83 -137t-144 -57zM461 123q117 0 225 123l10 366 q-203 -63 -288.5 -146t-85.5 -185q0 -74 38 -116t101 -42z" glyph-name="atilde" horiz-adv-x="1093" unicode="ã"/><glyph d="M387 1159q-51 0 -88 38t-37 89t37 88t88 37t89 -37t38 -88t-38 -89t-89 -38zM739.5 1159q-51.5 0 -88.5 38t-37 89t37 88t88.5 37t89 -37t37.5 -88q0 -53 -37.5 -90t-89 -37zM858 -20q-96 0 -133 63t-33 147h-4q-45 -82 -139 -144t-217 -62q-125 0 -198 64.5t-73 168.5 q0 141 160 245.5t475 190.5l4 148q2 70 -31.5 119t-107.5 49q-98 0 -154.5 -92.5t-74.5 -223.5l-10 -2l-183 121q53 94 167 166t282 72q186 0 269 -91.5t79 -222.5l-12 -532q0 -70 51 -70q53 0 94 88l16 -8q-27 -80 -83 -137t-144 -57zM461 123q117 0 225 123l10 366 q-203 -63 -288.5 -146t-85.5 -185q0 -74 38 -116t101 -42z" glyph-name="adieresis" horiz-adv-x="1093" unicode="ä"/><glyph d="M565 1081q-78 0 -132 56.5t-54 134.5q0 80 54 135t132 55q76 0 131.5 -55t55.5 -135q0 -78 -54.5 -134.5t-132.5 -56.5zM571.5 1133q51.5 0 84 43t32.5 98q0 57 -38 98t-89 41t-85 -40t-34 -97q0 -55 39 -99t90.5 -44zM858 -20q-96 0 -133 63t-33 147h-4 q-45 -82 -139 -144t-217 -62q-125 0 -198 64.5t-73 168.5q0 141 160 245.5t475 190.5l4 148q2 70 -31.5 119t-107.5 49q-98 0 -154.5 -92.5t-74.5 -223.5l-10 -2l-183 121q53 94 167 166t282 72q186 0 269 -91.5t79 -222.5l-12 -532q0 -70 51 -70q53 0 94 88l16 -8 q-27 -80 -83 -137t-144 -57zM461 123q117 0 225 123l10 366q-203 -63 -288.5 -146t-85.5 -185q0 -74 38 -116t101 -42z" glyph-name="aring" horiz-adv-x="1093" unicode="å"/><glyph d="M358.5 -20q-135.5 0 -216.5 61t-81 168q0 80 47.5 147.5t137.5 120.5t197.5 95t252.5 81l2 156q2 74 -35.5 116t-105.5 42q-102 0 -157.5 -94.5t-67.5 -219.5l-13 -2l-180 123q51 92 164 164t264 72q205 0 287 -144q135 143 328 144q180 0 289.5 -116t109.5 -263v-23 h-666q0 -8 -1 -20.5t-1 -28.5q0 -201 115 -301t262 -100q193 0 285 182l12 -6q-27 -156 -133 -255t-274 -99q-129 0 -235.5 54t-166.5 150q-49 -86 -166.5 -145t-253 -59zM920 653l426 2q-4 121 -64.5 211t-148.5 90q-84 0 -144.5 -85t-68.5 -218zM506 92q66 0 135.5 35 t112.5 98q-61 123 -62 264q0 72 6 125q-199 -68 -287.5 -147.5t-88.5 -194.5q0 -96 53 -138t131 -42z" glyph-name="ae" horiz-adv-x="1640" unicode="æ"/><glyph d="M526 -20q-29 0 -43 2l-26 -48q236 -18 235 -161q0 -100 -109.5 -156.5t-312.5 -54.5l17 35q109 10 176 44.5t67 90.5q0 47 -51 78.5t-135 33.5l102 142q-170 29 -281.5 165t-111.5 345q0 233 134.5 373.5t324.5 140.5q129 0 226.5 -63.5t154.5 -149.5l-184 -144l-11 4 q-12 117 -64 210.5t-138 93.5q-90 0 -153.5 -104.5t-63.5 -264.5q0 -199 100 -316.5t252 -117.5q109 0 179.5 58t102.5 138l19 -8q-29 -150 -129.5 -258t-276.5 -108z" glyph-name="ccedilla" horiz-adv-x="962" unicode="ç"/><glyph d="M608 1133h-20q-102 106 -291 327h266q18 -167 45 -327zM940 346l16 -8q-8 -41 -22 -81t-46 -93t-74 -91t-112.5 -65.5t-156.5 -27.5q-211 0 -351.5 141t-140.5 370.5t139.5 374t350.5 144.5q96 0 172 -33t117.5 -79t69.5 -101.5t37 -95t9 -66.5v-25h-667l-2 -24 q0 -215 107.5 -321.5t264.5 -106.5q201 0 289 188zM502 956q-88 0 -145.5 -79.5t-73.5 -223.5l432 4q-2 37 -12.5 81t-33 96.5t-66.5 87t-101 34.5z" glyph-name="egrave" horiz-adv-x="1009" unicode="è"/><glyph d="M760 1460q-174 -203 -293 -327h-18q29 178 43 327h268zM940 346l16 -8q-8 -41 -22 -81t-46 -93t-74 -91t-112.5 -65.5t-156.5 -27.5q-211 0 -351.5 141t-140.5 370.5t139.5 374t350.5 144.5q96 0 172 -33t117.5 -79t69.5 -101.5t37 -95t9 -66.5v-25h-667l-2 -24 q0 -215 107.5 -321.5t264.5 -106.5q201 0 289 188zM502 956q-88 0 -145.5 -79.5t-73.5 -223.5l432 4q-2 37 -12.5 81t-33 96.5t-66.5 87t-101 34.5z" glyph-name="eacute" horiz-adv-x="1009" unicode="é"/><glyph d="M524 1274l-245 -162l-13 12q51 68 131 183.5t121 173.5h12q147 -221 250 -357l-12 -12zM940 346l16 -8q-8 -41 -22 -81t-46 -93t-74 -91t-112.5 -65.5t-156.5 -27.5q-211 0 -351.5 141t-140.5 370.5t139.5 374t350.5 144.5q96 0 172 -33t117.5 -79t69.5 -101.5t37 -95 t9 -66.5v-25h-667l-2 -24q0 -215 107.5 -321.5t264.5 -106.5q201 0 289 188zM502 956q-88 0 -145.5 -79.5t-73.5 -223.5l432 4q-2 37 -12.5 81t-33 96.5t-66.5 87t-101 34.5z" glyph-name="ecircumflex" horiz-adv-x="1009" unicode="ê"/><glyph d="M348 1159q-51 0 -88 38t-37 89t37 88t88 37t89 -37t38 -88t-38 -89t-89 -38zM700 1159q-51 0 -88 38t-37 89t37 88t88.5 37t89 -37t37.5 -88q0 -53 -37 -90t-90 -37zM940 346l16 -8q-8 -41 -22 -81t-46 -93t-74 -91t-112.5 -65.5t-156.5 -27.5q-211 0 -351.5 141 t-140.5 370.5t139.5 374t350.5 144.5q96 0 172 -33t117.5 -79t69.5 -101.5t37 -95t9 -66.5v-25h-667l-2 -24q0 -215 107.5 -321.5t264.5 -106.5q201 0 289 188zM502 956q-88 0 -145.5 -79.5t-73.5 -223.5l432 4q-2 37 -12.5 81t-33 96.5t-66.5 87t-101 34.5z" glyph-name="edieresis" horiz-adv-x="1009" unicode="ë"/><glyph d="M317 1137q-102 106 -290 327h266q18 -168 45 -327h-21zM20 0v14q88 37 113 75t25 153v424q0 139 -26 181t-112 83v14q215 16 386 70v-772q0 -115 24.5 -153t110.5 -75v-14h-521z" glyph-name="igrave" horiz-adv-x="557" unicode="ì"/><glyph d="M197 1137h-19q29 178 43 327h268q-173 -202 -292 -327zM20 0v14q88 37 113 75t25 153v424q0 139 -26 181t-112 83v14q215 16 386 70v-772q0 -115 24.5 -153t110.5 -75v-14h-521z" glyph-name="iacute" horiz-adv-x="557" unicode="í"/><glyph d="M10 1116l-12 12q51 68 131 183.5t121 173.5h12q147 -221 250 -357l-12 -12l-244 162zM20 0v14q88 37 113 75t25 153v424q0 139 -26 181t-112 83v14q215 16 386 70v-772q0 -115 24.5 -153t110.5 -75v-14h-521z" glyph-name="icircumflex" horiz-adv-x="557" unicode="î"/><glyph d="M78 1163q-51 0 -88 38t-37 89t37 88t88 37t89 -37t38 -88t-38 -89t-89 -38zM430 1163q-51 0 -88 38t-37 89t37 88t88 37t89 -37t38 -88q0 -53 -37 -90t-90 -37zM20 0v14q88 37 113 75t25 153v424q0 139 -26 181t-112 83v14q215 16 386 70v-772q0 -115 24.5 -153 t110.5 -75v-14h-521z" glyph-name="idieresis" horiz-adv-x="557" unicode="ï"/><glyph d="M455 1251q-68 0 -121 -59l-17 4q23 113 73 156t153 43q14 0 110.5 -33t122.5 -33q53 0 74.5 10.5t58.5 46.5l19 -4q-35 -197 -195 -196q-49 0 -141 31q-104 34 -137 34zM1053 242q0 -115 24.5 -153t110.5 -75v-14h-520v14q88 37 112.5 75t26.5 153q2 59 2 297 q0 203 -34 271.5t-120 68.5q-82 0 -137 -39t-112 -115v-483q0 -115 24.5 -153t110.5 -75v-14h-521v14q88 37 113 75t25 153v426q0 135 -26 178t-112 86v12q193 16 379 70v-230q150 225 367 226q115 0 201 -72t86 -223v-473z" glyph-name="ntilde" horiz-adv-x="1204" unicode="ñ"/><glyph d="M616 1133q-102 106 -290 327h266q18 -168 45 -327h-21zM549 -20q-221 0 -358.5 138t-137.5 365.5t136.5 377t367.5 149.5q223 0 359.5 -139.5t136.5 -367t-136.5 -375.5t-367.5 -148zM596 27q86 0 144.5 86t58.5 254q0 86 -16.5 183t-48.5 192.5t-90 157t-130 61.5 q-88 0 -147.5 -86.5t-59.5 -251.5q0 -86 16.5 -184.5t49.5 -192.5t91 -156.5t132 -62.5z" glyph-name="ograve" horiz-adv-x="1105" unicode="ò"/><glyph d="M496 1133h-19q29 178 43 327h268q-173 -202 -292 -327zM549 -20q-221 0 -358.5 138t-137.5 365.5t136.5 377t367.5 149.5q223 0 359.5 -139.5t136.5 -367t-136.5 -375.5t-367.5 -148zM596 27q86 0 144.5 86t58.5 254q0 86 -16.5 183t-48.5 192.5t-90 157t-130 61.5 q-88 0 -147.5 -86.5t-59.5 -251.5q0 -86 16.5 -184.5t49.5 -192.5t91 -156.5t132 -62.5z" glyph-name="oacute" horiz-adv-x="1105" unicode="ó"/><glyph d="M307 1112l-12 12q51 68 131 183.5t121 173.5h12q147 -221 250 -357l-12 -12l-244 162zM549 -20q-221 0 -358.5 138t-137.5 365.5t136.5 377t367.5 149.5q223 0 359.5 -139.5t136.5 -367t-136.5 -375.5t-367.5 -148zM596 27q86 0 144.5 86t58.5 254q0 86 -16.5 183 t-48.5 192.5t-90 157t-130 61.5q-88 0 -147.5 -86.5t-59.5 -251.5q0 -86 16.5 -184.5t49.5 -192.5t91 -156.5t132 -62.5z" glyph-name="ocircumflex" horiz-adv-x="1105" unicode="ô"/><glyph d="M846 1386l18 -4q-35 -197 -194 -196q-49 0 -142 31q-104 35 -137 34q-68 0 -121 -59l-16 4q23 113 73 156t152 43q14 0 110.5 -33t123.5 -33q53 0 74.5 10t58.5 47zM549 -20q-221 0 -358.5 138t-137.5 365.5t136.5 377t367.5 149.5q223 0 359.5 -139.5t136.5 -367 t-136.5 -375.5t-367.5 -148zM596 27q86 0 144.5 86t58.5 254q0 86 -16.5 183t-48.5 192.5t-90 157t-130 61.5q-88 0 -147.5 -86.5t-59.5 -251.5q0 -86 16.5 -184.5t49.5 -192.5t91 -156.5t132 -62.5z" glyph-name="otilde" horiz-adv-x="1105" unicode="õ"/><glyph d="M377 1159q-51 0 -88 38t-37 89t37 88t88 37t89 -37t38 -88t-38 -89t-89 -38zM729 1159q-51 0 -88 38t-37 89t37 88t88 37t89 -37t38 -88q0 -53 -37 -90t-90 -37zM549 -20q-221 0 -358.5 138t-137.5 365.5t136.5 377t367.5 149.5q223 0 359.5 -139.5t136.5 -367 t-136.5 -375.5t-367.5 -148zM596 27q86 0 144.5 86t58.5 254q0 86 -16.5 183t-48.5 192.5t-90 157t-130 61.5q-88 0 -147.5 -86.5t-59.5 -251.5q0 -86 16.5 -184.5t49.5 -192.5t91 -156.5t132 -62.5z" glyph-name="odieresis" horiz-adv-x="1105" unicode="ö"/><glyph d="M444 836q-43 0 -73.5 31.5t-30.5 74.5q0 41 30.5 73t73.5 32t74 -32t31 -73q0 -43 -31 -74.5t-74 -31.5zM813 715v-56h-727v56h727zM438 311q-43 0 -73.5 31t-30.5 74t30.5 73.5t73.5 30.5t74 -30.5t31 -73.5t-31 -74t-74 -31z" glyph-name="divide" horiz-adv-x="892" unicode="÷"/><glyph d="M877 905q176 -141 176 -403q0 -221 -134.5 -371.5t-367.5 -150.5q-168 0 -289 79l-104 -143h-49l120 166q-176 141 -176 401q0 225 136.5 376t363.5 151q166 0 289 -78l88 121h53zM307 625q0 -180 58 -355l358 498q-78 193 -205 193q-90 0 -150.5 -85t-60.5 -251zM592 27 q88 0 147.5 86t59.5 252q0 182 -58 354l-358 -494q80 -198 209 -198z" glyph-name="oslash" horiz-adv-x="1105" unicode="ø"/><glyph d="M686 1133h-20q-102 106 -291 327h266q18 -167 45 -327zM1051 238q0 -98 24.5 -128t110.5 -57v-12l-377 -70v213q-152 -211 -367 -211q-115 0 -200.5 72t-85.5 223v398q0 133 -25 179t-111 85v14q211 16 383 70q0 -113 -2 -348.5t-2 -346.5q0 -106 48.5 -159.5 t121.5 -53.5q121 0 234 130v430q0 135 -23.5 179t-111.5 85v14q193 12 383 68v-774z" glyph-name="ugrave" horiz-adv-x="1200" unicode="ù"/><glyph d="M838 1460q-174 -203 -293 -327h-19q29 178 43 327h269zM1051 238q0 -98 24.5 -128t110.5 -57v-12l-377 -70v213q-152 -211 -367 -211q-115 0 -200.5 72t-85.5 223v398q0 133 -25 179t-111 85v14q211 16 383 70q0 -113 -2 -348.5t-2 -346.5q0 -106 48.5 -159.5 t121.5 -53.5q121 0 234 130v430q0 135 -23.5 179t-111.5 85v14q193 12 383 68v-774z" glyph-name="uacute" horiz-adv-x="1200" unicode="ú"/><glyph d="M602 1274l-246 -162l-12 12q51 68 131 183.5t121 173.5h12q147 -221 250 -357l-12 -12zM1051 238q0 -98 24.5 -128t110.5 -57v-12l-377 -70v213q-152 -211 -367 -211q-115 0 -200.5 72t-85.5 223v398q0 133 -25 179t-111 85v14q211 16 383 70q0 -113 -2 -348.5t-2 -346.5 q0 -106 48.5 -159.5t121.5 -53.5q121 0 234 130v430q0 135 -23.5 179t-111.5 85v14q193 12 383 68v-774z" glyph-name="ucircumflex" horiz-adv-x="1200" unicode="û"/><glyph d="M426 1159q-51 0 -88 38t-37 89t37 88t88 37t89 -37t38 -88t-38 -89t-89 -38zM778 1159q-51 0 -88 38t-37 89t37 88t88 37t89 -37t38 -88q0 -53 -37 -90t-90 -37zM1051 238q0 -98 24.5 -128t110.5 -57v-12l-377 -70v213q-152 -211 -367 -211q-115 0 -200.5 72t-85.5 223 v398q0 133 -25 179t-111 85v14q211 16 383 70q0 -113 -2 -348.5t-2 -346.5q0 -106 48.5 -159.5t121.5 -53.5q121 0 234 130v430q0 135 -23.5 179t-111.5 85v14q193 12 383 68v-774z" glyph-name="udieresis" horiz-adv-x="1200" unicode="ü"/><glyph d="M811 1460q-174 -203 -293 -327h-18q29 178 43 327h268zM745 985h349v-14q-76 -43 -112 -85t-69 -126q-285 -707 -340 -813q-80 -154 -139 -229.5t-164 -149.5l-133 174l4 12q113 -4 217.5 39t153.5 146l31 63l-387 825q-23 47 -55.5 81t-96.5 63v14h547v-14 q-119 -53 -119 -113q0 -27 21 -72l219 -489q98 231 188 477q12 31 12 57q0 76 -127 140v14z" glyph-name="yacute" horiz-adv-x="1093" unicode="ý"/><glyph d="M399.5 1159q-51.5 0 -88.5 38t-37 89t37 88t88.5 37t89 -37t37.5 -88t-37.5 -89t-89 -38zM751.5 1159q-51.5 0 -88 38t-36.5 89t36.5 88t88 37t89.5 -37t38 -88q0 -53 -38 -90t-89.5 -37zM745 985h349v-14q-76 -43 -112 -85t-69 -126q-285 -707 -340 -813 q-80 -154 -139 -229.5t-164 -149.5l-133 174l4 12q113 -4 217.5 39t153.5 146l31 63l-387 825q-23 47 -55.5 81t-96.5 63v14h547v-14q-119 -53 -119 -113q0 -27 21 -72l219 -489q98 231 188 477q12 31 12 57q0 76 -127 140v14z" glyph-name="ydieresis" horiz-adv-x="1093" unicode="ÿ"/><glyph d="M1018 1724v-135h-547v135h547zM1282 197q29 -78 58.5 -111t119.5 -72v-14h-622v14q90 37 123.5 64.5t33.5 64.5q0 33 -30 115l-88 242h-490l-22 -62q-72 -193 -72 -258q0 -57 37 -92t129 -74v-14h-434v14q111 80 159.5 157t114.5 255l301 827l-65 131q156 63 247 129z M418 588h428l-215 594z" glyph-name="Amacron" horiz-adv-x="1480" unicode="Ā"/><glyph d="M831 1335v-135h-522v135h522zM858 -20q-96 0 -133 63t-33 147h-4q-45 -82 -139 -144t-217 -62q-125 0 -198 64.5t-73 168.5q0 141 160 245.5t475 190.5l4 148q2 70 -31.5 119t-107.5 49q-98 0 -154.5 -92.5t-74.5 -223.5l-10 -2l-183 121q53 94 167 166t282 72 q186 0 269 -91.5t79 -222.5l-12 -532q0 -70 51 -70q53 0 94 88l16 -8q-27 -80 -83 -137t-144 -57zM461 123q117 0 225 123l10 366q-203 -63 -288.5 -146t-85.5 -185q0 -74 38 -116t101 -42z" glyph-name="amacron" horiz-adv-x="1093" unicode="ā"/><glyph d="M743 1556q-223 0 -254 324h19q25 -84 92.5 -131t142.5 -47q74 0 141.5 47t92.5 131h18q-31 -324 -252 -324zM1282 197q29 -78 58.5 -111t119.5 -72v-14h-622v14q90 37 123.5 64.5t33.5 64.5q0 33 -30 115l-88 242h-490l-22 -62q-72 -193 -72 -258q0 -57 37 -92t129 -74 v-14h-434v14q111 80 159.5 157t114.5 255l301 827l-65 131q156 63 247 129zM418 588h428l-215 594z" glyph-name="Abreve" horiz-adv-x="1480" unicode="Ă"/><glyph d="M799 1456h18q-31 -334 -252 -334q-223 0 -254 334h19q25 -86 92 -135t143 -49q74 0 141.5 49t92.5 135zM858 -20q-96 0 -133 63t-33 147h-4q-45 -82 -139 -144t-217 -62q-125 0 -198 64.5t-73 168.5q0 141 160 245.5t475 190.5l4 148q2 70 -31.5 119t-107.5 49 q-98 0 -154.5 -92.5t-74.5 -223.5l-10 -2l-183 121q53 94 167 166t282 72q186 0 269 -91.5t79 -222.5l-12 -532q0 -70 51 -70q53 0 94 88l16 -8q-27 -80 -83 -137t-144 -57zM461 123q117 0 225 123l10 366q-203 -63 -288.5 -146t-85.5 -185q0 -74 38 -116t101 -42z" glyph-name="abreve" horiz-adv-x="1093" unicode="ă"/><glyph d="M1280 0q-131 -106 -131 -207q0 -41 25.5 -62.5t62.5 -21.5q78 0 143 62l15 -11q-39 -68 -112 -108.5t-148 -40.5q-72 0 -118 35t-46 94q0 135 254 260h-387v14q90 37 123.5 64.5t33.5 64.5q0 33 -30 115l-88 242h-490l-22 -62q-72 -193 -72 -258q0 -57 37 -92t129 -74 v-14h-434v14q111 80 159.5 157t114.5 255l301 827l-65 131q156 63 247 129l500 -1316q29 -78 58.5 -111t119.5 -72v-14h-180zM418 588h428l-215 594z" glyph-name="Aogonek" horiz-adv-x="1480" unicode="Ą"/><glyph d="M905 -285q78 0 144 62l14 -10q-39 -68 -111.5 -109t-148.5 -41q-72 0 -118 35t-46 94q0 119 205 234q-86 6 -121 68.5t-31 141.5h-4q-45 -82 -139 -144t-217 -62q-125 0 -198 64.5t-73 168.5q0 141 160 245.5t475 190.5l4 148q2 70 -31.5 119t-107.5 49 q-98 0 -154.5 -92.5t-74.5 -223.5l-10 -2l-183 121q53 94 167 166t282 72q186 0 269 -91.5t79 -222.5l-12 -532q0 -70 51 -70q53 0 94 88l16 -8q-43 -139 -151 -180q-117 -100 -117 -195q0 -41 25.5 -62.5t62.5 -21.5zM686 246l10 366q-203 -63 -288.5 -146t-85.5 -185 q0 -74 37.5 -116t101.5 -42q116 0 225 123z" glyph-name="aogonek" horiz-adv-x="1093" unicode="ą"/><glyph d="M715 1561h-21q25 162 45 327h267q-172 -200 -291 -327zM768 1436q-162 0 -284 -178.5t-122 -512.5q0 -342 127 -528t287 -186q125 0 251 113.5t226 271.5h15l-41 -369q-236 -74 -463 -74q-326 0 -514.5 205t-188.5 543q0 360 205 565t506 205q193 0 455 -74l41 -364h-13 q-104 162 -231 272.5t-256 110.5z" glyph-name="Cacute" horiz-adv-x="1390" unicode="Ć"/><glyph d="M444 1133h-18q29 178 43 327h268q-174 -202 -293 -327zM526 -20q-199 0 -336 141t-137 374.5t134.5 374t324.5 140.5q129 0 226.5 -63.5t154.5 -149.5l-184 -144l-11 4q-12 117 -64 210.5t-138 93.5q-90 0 -153.5 -104.5t-63.5 -264.5q0 -199 100 -316.5t252 -117.5 q109 0 179.5 58t102.5 138l19 -8q-29 -150 -129.5 -258t-276.5 -108z" glyph-name="cacute" horiz-adv-x="962" unicode="ć"/><glyph d="M539 1526l-13 12q129 180 260 375h15q127 -193 260 -375l-12 -12l-254 168zM768 1436q-162 0 -284 -178.5t-122 -512.5q0 -342 127 -528t287 -186q125 0 251 113.5t226 271.5h15l-41 -369q-236 -74 -463 -74q-326 0 -514.5 205t-188.5 543q0 360 205 565t506 205 q193 0 455 -74l41 -364h-13q-104 162 -231 272.5t-256 110.5z" glyph-name="Ccircumflex" horiz-adv-x="1390" unicode="Ĉ"/><glyph d="M256 1112l-12 12q51 68 131 183.5t121 173.5h12q147 -221 250 -357l-13 -12l-243 162zM526 -20q-199 0 -336 141t-137 374.5t134.5 374t324.5 140.5q129 0 226.5 -63.5t154.5 -149.5l-184 -144l-11 4q-12 117 -64 210.5t-138 93.5q-90 0 -153.5 -104.5t-63.5 -264.5 q0 -199 100 -316.5t252 -117.5q109 0 179.5 58t102.5 138l19 -8q-29 -150 -129.5 -258t-276.5 -108z" glyph-name="ccircumflex" horiz-adv-x="962" unicode="ĉ"/><glyph d="M786.5 1559q-53.5 0 -91.5 37.5t-38 91t38 91.5t91.5 38t91 -38t37.5 -91.5t-37.5 -91t-91 -37.5zM768 1436q-162 0 -284 -178.5t-122 -512.5q0 -342 127 -528t287 -186q125 0 251 113.5t226 271.5h15l-41 -369q-236 -74 -463 -74q-326 0 -514.5 205t-188.5 543 q0 360 205 565t506 205q193 0 455 -74l41 -364h-13q-104 162 -231 272.5t-256 110.5z" glyph-name="Cdotaccent" horiz-adv-x="1390" unicode="Ċ"/><glyph d="M501.5 1149q-57.5 0 -100.5 41t-43 96q0 53 43 94t100.5 41t100.5 -41t43 -94q0 -55 -43 -96t-100.5 -41zM526 -20q-199 0 -336 141t-137 374.5t134.5 374t324.5 140.5q129 0 226.5 -63.5t154.5 -149.5l-184 -144l-11 4q-12 117 -64 210.5t-138 93.5q-90 0 -153.5 -104.5 t-63.5 -264.5q0 -199 100 -316.5t252 -117.5q109 0 179.5 58t102.5 138l19 -8q-29 -150 -129.5 -258t-276.5 -108z" glyph-name="cdotaccent" horiz-adv-x="962" unicode="ċ"/><glyph d="M537 1919l256 -168l254 168l12 -12q-133 -182 -260 -375h-13q-178 260 -262 375zM768 1436q-162 0 -284 -178.5t-122 -512.5q0 -342 127 -528t287 -186q125 0 251 113.5t226 271.5h15l-41 -369q-236 -74 -463 -74q-326 0 -514.5 205t-188.5 543q0 360 205 565t506 205 q193 0 455 -74l41 -364h-13q-104 162 -231 272.5t-256 110.5z" glyph-name="Ccaron" horiz-adv-x="1390" unicode="Č"/><glyph d="M250 1485l246 -162l245 162l13 -12q-113 -147 -252 -359h-13q-39 55 -118.5 172t-130.5 187zM526 -20q-199 0 -336 141t-137 374.5t134.5 374t324.5 140.5q129 0 226.5 -63.5t154.5 -149.5l-184 -144l-11 4q-12 117 -64 210.5t-138 93.5q-90 0 -153.5 -104.5 t-63.5 -264.5q0 -199 100 -316.5t252 -117.5q109 0 179.5 58t102.5 138l19 -8q-29 -150 -129.5 -258t-276.5 -108z" glyph-name="ccaron" horiz-adv-x="962" unicode="č"/><glyph d="M733 1532h-12q-178 260 -262 375l12 12l256 -168l254 168l12 -12q-133 -182 -260 -375zM592 1464q410 0 619.5 -189.5t209.5 -512.5q0 -328 -199.5 -545t-535.5 -217h-649v14q115 43 142.5 81t27.5 163v948q0 125 -27.5 163t-142.5 81v14h555zM696 59q199 12 311.5 194.5 t112.5 496.5q0 657 -538 657h-95v-1255q0 -83 209 -93z" glyph-name="Dcaron" horiz-adv-x="1482" unicode="Ď"/><glyph d="M446 -20q-162 0 -277.5 136t-115.5 365q0 233 121 381t297 148q164 0 289 -111v377q0 127 -135 180v14q197 12 383 70v-1343q0 -63 25.5 -88t109.5 -56v-12l-377 -61v186h-2q-49 -80 -134.5 -133t-183.5 -53zM1126 1047h-16l33 442h229zM543 76q115 0 217 141v432 q-39 121 -106.5 211t-155.5 90q-98 0 -143.5 -113.5t-45.5 -285.5q0 -213 62.5 -344t171.5 -131z" glyph-name="dcaron" horiz-adv-x="1159" unicode="ď"/><glyph d="M592 1464q410 0 619.5 -189.5t209.5 -512.5q0 -328 -199.5 -545t-535.5 -217h-649v14q115 43 142.5 81t27.5 163v479h-98v54h98v415q0 125 -27.5 163t-142.5 81v14h555zM696 59q199 12 311.5 194.5t112.5 496.5q0 657 -538 657h-95v-616h224v-54h-224v-585q0 -83 209 -93 z" glyph-name="Dcroat" horiz-adv-x="1482" unicode="Đ"/><glyph d="M1008 197q0 -63 25.5 -88t109.5 -56v-12l-377 -61v186h-2q-49 -80 -134 -133t-184 -53q-162 0 -277.5 136t-115.5 365q0 233 121 381t297 148q164 0 289 -111v309h-256v54h256v14q0 127 -135 180v14q197 12 383 70v-278h127v-54h-127v-1011zM760 217v432 q-39 121 -106.5 211t-155.5 90q-98 0 -143.5 -113.5t-45.5 -285.5q0 -213 62.5 -344t171.5 -131q115 0 217 141z" glyph-name="dcroat" horiz-adv-x="1159" unicode="đ"/><glyph d="M961 1724v-135h-607v135h607zM1184 385h14l-49 -385h-1112v14q115 43 142.5 81t27.5 163v948q0 125 -27.5 163t-142.5 81v14h1038l37 -374h-12q-45 131 -145.5 224t-247.5 93h-220v-596h218q158 0 247 147h11v-368h-11q-92 168 -247 166l-218 -4v-600q0 -41 64.5 -67 t179.5 -26h84q119 0 215.5 98.5t153.5 227.5z" glyph-name="Emacron" horiz-adv-x="1294" unicode="Ē"/><glyph d="M793 1335v-135h-523v135h523zM940 346l16 -8q-8 -41 -22 -81t-46 -93t-74 -91t-112.5 -65.5t-156.5 -27.5q-211 0 -351.5 141t-140.5 370.5t139.5 374t350.5 144.5q96 0 172 -33t117.5 -79t69.5 -101.5t37 -95t9 -66.5v-25h-667l-2 -24q0 -215 107.5 -321.5t264.5 -106.5 q201 0 289 188zM502 956q-88 0 -145.5 -79.5t-73.5 -223.5l432 4q-2 37 -12.5 81t-33 96.5t-66.5 87t-101 34.5z" glyph-name="emacron" horiz-adv-x="1009" unicode="ē"/><glyph d="M657 1544q-223 0 -254 334h19q25 -84 92.5 -133t142.5 -49q74 0 141.5 49t92.5 133h18q-31 -334 -252 -334zM1184 385h14l-49 -385h-1112v14q115 43 142.5 81t27.5 163v948q0 125 -27.5 163t-142.5 81v14h1038l37 -374h-12q-45 131 -145.5 224t-247.5 93h-220v-596h218 q158 0 247 147h11v-368h-11q-92 168 -247 166l-218 -4v-600q0 -41 64.5 -67t179.5 -26h84q119 0 215.5 98.5t153.5 227.5z" glyph-name="Ebreve" horiz-adv-x="1294" unicode="Ĕ"/><glyph d="M524 1122q-223 0 -254 334h19q25 -86 92.5 -135t142.5 -49q74 0 141.5 49t92.5 135h18q-31 -334 -252 -334zM940 346l16 -8q-8 -41 -22 -81t-46 -93t-74 -91t-112.5 -65.5t-156.5 -27.5q-211 0 -351.5 141t-140.5 370.5t139.5 374t350.5 144.5q96 0 172 -33t117.5 -79 t69.5 -101.5t37 -95t9 -66.5v-25h-667l-2 -24q0 -215 107.5 -321.5t264.5 -106.5q201 0 289 188zM502 956q-88 0 -145.5 -79.5t-73.5 -223.5l432 4q-2 37 -12.5 81t-33 96.5t-66.5 87t-101 34.5z" glyph-name="ebreve" horiz-adv-x="1009" unicode="ĕ"/><glyph d="M655.5 1559q-53.5 0 -91.5 37.5t-38 91t38 91.5t91.5 38t91 -38t37.5 -91.5t-37.5 -91t-91 -37.5zM1184 385h14l-49 -385h-1112v14q115 43 142.5 81t27.5 163v948q0 125 -27.5 163t-142.5 81v14h1038l37 -374h-12q-45 131 -145.5 224t-247.5 93h-220v-596h218 q158 0 247 147h11v-368h-11q-92 168 -247 166l-218 -4v-600q0 -41 64.5 -67t179.5 -26h84q119 0 215.5 98.5t153.5 227.5z" glyph-name="Edotaccent" horiz-adv-x="1294" unicode="Ė"/><glyph d="M524.5 1149q-57.5 0 -100.5 41t-43 96q0 53 43 94t100.5 41t100.5 -41t43 -94q0 -55 -43 -96t-100.5 -41zM940 346l16 -8q-8 -41 -22 -81t-46 -93t-74 -91t-112.5 -65.5t-156.5 -27.5q-211 0 -351.5 141t-140.5 370.5t139.5 374t350.5 144.5q96 0 172 -33t117.5 -79 t69.5 -101.5t37 -95t9 -66.5v-25h-667l-2 -24q0 -215 107.5 -321.5t264.5 -106.5q201 0 289 188zM502 956q-88 0 -145.5 -79.5t-73.5 -223.5l432 4q-2 37 -12.5 81t-33 96.5t-66.5 87t-101 34.5z" glyph-name="edotaccent" horiz-adv-x="1009" unicode="ė"/><glyph d="M981 0q-55 -41 -94 -95.5t-39 -101.5q0 -39 25.5 -60.5t62.5 -21.5q80 0 143 58l13 -10q-39 -63 -111 -103.5t-147 -40.5q-72 0 -118 35t-46 90q0 131 254 250h-887v14q115 43 142.5 81t27.5 163v948q0 125 -27.5 163t-142.5 81v14h1038l37 -374h-12q-45 131 -145.5 224 t-247.5 93h-220v-596h218q158 0 247 147h11v-368h-11q-92 168 -247 166l-218 -4v-600q0 -41 64.5 -67t179.5 -26h84q119 0 215 98.5t154 227.5h14l-49 -385h-168z" glyph-name="Eogonek" horiz-adv-x="1294" unicode="Ę"/><glyph d="M705 6q-55 -41 -95.5 -99.5t-40.5 -109.5q0 -41 26 -62.5t62 -21.5q78 0 144 62l12 -11q-37 -68 -109.5 -108.5t-148.5 -40.5q-72 0 -118 35t-46 94q0 121 213 240q-37 -4 -63 -4q-205 0 -346.5 139t-141.5 368q0 221 132 372t354 151q96 0 172.5 -33t119.5 -79 t71 -101.5t37 -95t9 -66.5v-25h-667l-2 -24q0 -215 107.5 -321.5t264.5 -106.5q201 0 289 188l16 -8q-12 -59 -33.5 -113.5t-78.5 -121t-139 -97.5zM502 956q-88 0 -145.5 -79.5t-73.5 -223.5l432 4q-2 37 -12.5 81t-33 96.5t-66.5 87t-101 34.5z" glyph-name="eogonek" horiz-adv-x="1009" unicode="ę"/><glyph d="M668 1532h-13q-178 260 -262 375l13 12l256 -168l253 168l13 -12q-133 -182 -260 -375zM1184 385h14l-49 -385h-1112v14q115 43 142.5 81t27.5 163v948q0 125 -27.5 163t-142.5 81v14h1038l37 -374h-12q-45 131 -145.5 224t-247.5 93h-220v-596h218q158 0 247 147h11 v-368h-11q-92 168 -247 166l-218 -4v-600q0 -41 64.5 -67t179.5 -26h84q119 0 215.5 98.5t153.5 227.5z" glyph-name="Ecaron" horiz-adv-x="1294" unicode="Ě"/><glyph d="M524 1114h-12q-39 55 -119 172t-131 187l10 12l246 -162l246 162l12 -12q-113 -148 -252 -359zM940 346l16 -8q-8 -41 -22 -81t-46 -93t-74 -91t-112.5 -65.5t-156.5 -27.5q-211 0 -351.5 141t-140.5 370.5t139.5 374t350.5 144.5q96 0 172 -33t117.5 -79t69.5 -101.5 t37 -95t9 -66.5v-25h-667l-2 -24q0 -215 107.5 -321.5t264.5 -106.5q201 0 289 188zM502 956q-88 0 -145.5 -79.5t-73.5 -223.5l432 4q-2 37 -12.5 81t-33 96.5t-66.5 87t-101 34.5z" glyph-name="ecaron" horiz-adv-x="1009" unicode="ě"/><glyph d="M555 1526l-12 12q129 180 260 375h14q127 -193 260 -375l-12 -12l-254 168zM733 -27q-283 0 -477.5 196t-194.5 546q0 348 199 562t535 214q236 0 469 -84l39 -371h-13q-240 399 -504 400q-178 0 -301 -180.5t-123 -518.5q0 -336 124 -520t315 -184q59 0 113.5 14 t102.5 61.5t48 118.5v275q0 121 -51 178t-203 59v23h629v-12q-49 -33 -67.5 -53.5t-27 -62.5t-8.5 -130v-467h-12q-70 55 -141 55q-43 0 -105.5 -29.5t-152 -59.5t-193.5 -30z" glyph-name="Gcircumflex" horiz-adv-x="1538" unicode="Ĝ"/><glyph d="M487 1272l-245 -162l-13 12q51 68 131 183.5t121 173.5h13q147 -221 249 -357l-12 -12zM758 147q264 -72 264 -260q0 -109 -88 -182.5t-203 -101t-242 -27.5q-109 0 -210 20.5t-177.5 70.5t-76.5 122q0 43 29.5 82t63.5 60.5t84 42t66.5 25.5t36.5 9q-4 0 -7 1t-15 3 q-188 41 -189 162q0 68 64.5 122t169.5 81q-125 31 -196 108.5t-71 196.5q0 152 113 240t285 88h35q141 0 208.5 47t75.5 110l203 -69v-8q-98 -119 -283 -119q-39 0 -104 10v-8q135 -29 224 -107t89 -196q0 -135 -113.5 -222.5t-310.5 -87.5q-53 0 -100 7q-92 -23 -92 -76 q0 -45 47 -53q2 0 84 -16.5t182.5 -38.5t153.5 -36zM457 969q-66 0 -110 -56.5t-44 -162.5q0 -125 57.5 -237t159.5 -112q68 0 111 53.5t43 159.5q0 131 -60.5 243t-156.5 112zM520 -377q125 0 214 43t89 123q0 51 -40 90t-113 58q-12 2 -316 61q-141 -72 -141 -186 q0 -88 86 -138.5t221 -50.5z" glyph-name="gcircumflex" horiz-adv-x="1042" unicode="ĝ"/><glyph d="M1036 1878h19q-31 -334 -252 -334q-223 0 -254 334h18q25 -84 92.5 -133t143.5 -49q74 0 141 49t92 133zM733 -27q-283 0 -477.5 196t-194.5 546q0 348 199 562t535 214q236 0 469 -84l39 -371h-13q-240 399 -504 400q-178 0 -301 -180.5t-123 -518.5q0 -336 124 -520 t315 -184q59 0 113.5 14t102.5 61.5t48 118.5v275q0 121 -51 178t-203 59v23h629v-12q-49 -33 -67.5 -53.5t-27 -62.5t-8.5 -130v-467h-12q-70 55 -141 55q-43 0 -105.5 -29.5t-152 -59.5t-193.5 -30z" glyph-name="Gbreve" horiz-adv-x="1538" unicode="Ğ"/><glyph d="M487 1120q-223 0 -254 334h19q25 -86 92.5 -135t142.5 -49q74 0 141.5 49t92.5 135h18q-31 -334 -252 -334zM758 147q264 -72 264 -260q0 -109 -88 -182.5t-203 -101t-242 -27.5q-109 0 -210 20.5t-177.5 70.5t-76.5 122q0 43 29.5 82t63.5 60.5t84 42t66.5 25.5t36.5 9 q-4 0 -7 1t-15 3q-188 41 -189 162q0 68 64.5 122t169.5 81q-125 31 -196 108.5t-71 196.5q0 152 113 240t285 88h35q141 0 208.5 47t75.5 110l203 -69v-8q-98 -119 -283 -119q-39 0 -104 10v-8q135 -29 224 -107t89 -196q0 -135 -113.5 -222.5t-310.5 -87.5q-53 0 -100 7 q-92 -23 -92 -76q0 -45 47 -53q2 0 84 -16.5t182.5 -38.5t153.5 -36zM457 969q-66 0 -110 -56.5t-44 -162.5q0 -125 57.5 -237t159.5 -112q68 0 111 53.5t43 159.5q0 131 -60.5 243t-156.5 112zM520 -377q125 0 214 43t89 123q0 51 -40 90t-113 58q-12 2 -316 61 q-141 -72 -141 -186q0 -88 86 -138.5t221 -50.5z" glyph-name="gbreve" horiz-adv-x="1042" unicode="ğ"/><glyph d="M803 1559q-53 0 -91 37.5t-38 91t38 91.5t91 38t91 -38t38 -91.5t-38 -91t-91 -37.5zM733 -27q-283 0 -477.5 196t-194.5 546q0 348 199 562t535 214q236 0 469 -84l39 -371h-13q-240 399 -504 400q-178 0 -301 -180.5t-123 -518.5q0 -336 124 -520t315 -184 q59 0 113.5 14t102.5 61.5t48 118.5v275q0 121 -51 178t-203 59v23h629v-12q-49 -33 -67.5 -53.5t-27 -62.5t-8.5 -130v-467h-12q-70 55 -141 55q-43 0 -105.5 -29.5t-152 -59.5t-193.5 -30z" glyph-name="Gdotaccent" horiz-adv-x="1538" unicode="Ġ"/><glyph d="M487.5 1161q-53.5 0 -91.5 38t-38 91t38 91t91.5 38t91 -38t37.5 -91t-37.5 -91t-91 -38zM758 147q264 -72 264 -260q0 -109 -88 -182.5t-203 -101t-242 -27.5q-109 0 -210 20.5t-177.5 70.5t-76.5 122q0 43 29.5 82t63.5 60.5t84 42t66.5 25.5t36.5 9q-4 0 -7 1t-15 3 q-188 41 -189 162q0 68 64.5 122t169.5 81q-125 31 -196 108.5t-71 196.5q0 152 113 240t285 88h35q141 0 208.5 47t75.5 110l203 -69v-8q-98 -119 -283 -119q-39 0 -104 10v-8q135 -29 224 -107t89 -196q0 -135 -113.5 -222.5t-310.5 -87.5q-53 0 -100 7q-92 -23 -92 -76 q0 -45 47 -53q2 0 84 -16.5t182.5 -38.5t153.5 -36zM457 969q-66 0 -110 -56.5t-44 -162.5q0 -125 57.5 -237t159.5 -112q68 0 111 53.5t43 159.5q0 131 -60.5 243t-156.5 112zM520 -377q125 0 214 43t89 123q0 51 -40 90t-113 58q-12 2 -316 61q-141 -72 -141 -186 q0 -88 86 -138.5t221 -50.5z" glyph-name="gdotaccent" horiz-adv-x="1042" unicode="ġ"/><glyph d="M1440 762v-12q-49 -33 -67.5 -53.5t-27 -62.5t-8.5 -130v-467h-12q-70 55 -141 55q-43 0 -105.5 -29.5t-151.5 -59.5t-194 -30q-283 0 -477.5 196t-194.5 546q0 348 199 562t535 214q236 0 469 -84l39 -371h-13q-240 399 -504 400q-178 0 -301 -180.5t-123 -518.5 q0 -336 124 -520t315 -184q59 0 113.5 14t102.5 61.5t48 118.5v275q0 121 -51 178t-203 59v23h629zM805 -68q55 0 94 -34.5t39 -98.5q0 -76 -60.5 -160.5t-179.5 -132.5l-8 17q106 92 137 194h-20q-55 0 -95 31t-40 76t40 76.5t93 31.5z" glyph-name="Gcommaaccent" horiz-adv-x="1538" unicode="Ģ"/><glyph d="M456.5 1137q-53.5 0 -93 35.5t-39.5 97.5q0 78 60 163t179 132l8 -17q-106 -92 -137 -196q6 2 17 2q57 0 98 -31t41 -76t-40 -77.5t-93.5 -32.5zM758 147q264 -72 264 -260q0 -109 -88 -182.5t-203 -101t-242 -27.5q-109 0 -210 20.5t-177.5 70.5t-76.5 122q0 43 29.5 82 t63.5 60.5t84 42t66.5 25.5t36.5 9q-4 0 -7 1t-15 3q-188 41 -189 162q0 68 64.5 122t169.5 81q-125 31 -196 108.5t-71 196.5q0 152 113 240t285 88h35q141 0 208.5 47t75.5 110l203 -69v-8q-98 -119 -283 -119q-39 0 -104 10v-8q135 -29 224 -107t89 -196 q0 -135 -113.5 -222.5t-310.5 -87.5q-53 0 -100 7q-92 -23 -92 -76q0 -45 47 -53q2 0 84 -16.5t182.5 -38.5t153.5 -36zM457 969q-66 0 -110 -56.5t-44 -162.5q0 -125 57.5 -237t159.5 -112q68 0 111 53.5t43 159.5q0 131 -60.5 243t-156.5 112zM520 -377q125 0 214 43 t89 123q0 51 -40 90t-113 58q-12 2 -316 61q-141 -72 -141 -186q0 -88 86 -138.5t221 -50.5z" glyph-name="gcommaaccent" horiz-adv-x="1042" unicode="ģ"/><glyph d="M801 1694l-256 -168l-13 12q129 180 261 375h14q127 -193 260 -375l-12 -12zM1561 1450q-113 -43 -140.5 -80t-27.5 -164v-948q0 -127 27.5 -164t140.5 -80v-14h-619v14q115 43 142.5 81t27.5 163v500h-625v-500q0 -127 28 -164t140 -80v-14h-618v14q115 43 142.5 81 t27.5 163v948q0 125 -27.5 163t-142.5 81v14h618v-14q-113 -43 -140.5 -80t-27.5 -164v-362h625v362q0 125 -27.5 163t-142.5 81v14h619v-14z" glyph-name="Hcircumflex" horiz-adv-x="1593" unicode="Ĥ"/><glyph d="M592 1718l-230 -149l-12 10q109 145 236 338h12q125 -190 233 -338l-10 -10zM1053 242q0 -115 24.5 -153t110.5 -75v-14h-518v14q88 37 112.5 75t24.5 153q2 375 2 393q0 244 -166 244q-131 0 -237 -154v-483q0 -115 24.5 -153t110.5 -75v-14h-521v14q88 37 113 75 t25 153v944q0 139 -26 181t-112 83v14q215 16 386 70v-741q145 217 360 217q115 0 201 -72t86 -223v-473z" glyph-name="hcircumflex" horiz-adv-x="1204" unicode="ĥ"/><glyph d="M1561 1450q-113 -43 -140.5 -80t-27.5 -164v-108h141v-49h-141v-791q0 -127 27.5 -164t140.5 -80v-14h-619v14q115 43 142.5 81t27.5 163v500h-625v-500q0 -127 28 -164t140 -80v-14h-618v14q115 43 142.5 81t27.5 163v791h-146v49h146v108q0 125 -27.5 163t-142.5 81v14 h618v-14q-113 -43 -140.5 -80t-27.5 -164v-108h625v108q0 125 -27.5 163t-142.5 81v14h619v-14zM1112 844v205h-625v-205h625z" glyph-name="Hbar" horiz-adv-x="1593" unicode="Ħ"/><glyph d="M1053 242q0 -115 24.5 -153t110.5 -75v-14h-518v14q88 37 112.5 75t24.5 153q2 375 2 393q0 244 -166 244q-131 0 -237 -154v-483q0 -115 24.5 -153t110.5 -75v-14h-521v14q88 37 113 75t25 153v966h-127v54h125q-6 88 -33 119.5t-103 68.5v14q215 16 386 70v-272h233 v-54h-233v-415q145 217 360 217q115 0 201 -72t86 -223v-473z" glyph-name="hbar" horiz-adv-x="1204" unicode="ħ"/><glyph d="M666 1790l18 -4q-20 -113 -73.5 -159t-157.5 -46q-25 0 -134 33q-117 35 -151 35q-74 0 -133 -60l-17 4q37 205 226 205q43 0 141 -31q113 -35 133 -34q59 0 84 10t64 47zM37 0v14q115 43 142.5 81t27.5 163v948q0 125 -27.5 163t-142.5 81v14h618v-14 q-113 -43 -140.5 -80t-27.5 -164v-948q0 -127 28 -164t140 -80v-14h-618z" glyph-name="Itilde" horiz-adv-x="688" unicode="Ĩ"/><glyph d="M547 1391l18 -5q-35 -197 -194 -196q-49 0 -142 31q-104 35 -137 34q-68 0 -121 -59l-16 4q23 113 73 156t152 43q14 0 110.5 -33t123.5 -33q53 0 74.5 10.5t58.5 47.5zM20 0v14q88 37 113 75t25 153v424q0 139 -26 181t-112 83v14q215 16 386 70v-772q0 -115 24.5 -153 t110.5 -75v-14h-521z" glyph-name="itilde" horiz-adv-x="557" unicode="ĩ"/><glyph d="M651 1724v-135h-606v135h606zM37 0v14q115 43 142.5 81t27.5 163v948q0 125 -27.5 163t-142.5 81v14h618v-14q-113 -43 -140.5 -80t-27.5 -164v-948q0 -127 28 -164t140 -80v-14h-618z" glyph-name="Imacron" horiz-adv-x="688" unicode="Ī"/><glyph d="M522 1339v-135h-522v135h522zM20 0v14q88 37 113 75t25 153v424q0 139 -26 181t-112 83v14q215 16 386 70v-772q0 -115 24.5 -153t110.5 -75v-14h-521z" glyph-name="imacron" horiz-adv-x="557" unicode="ī"/><glyph d="M582 1878h18q-31 -334 -252 -334q-223 0 -254 334h19q25 -84 92 -133t143 -49q74 0 141.5 49t92.5 133zM37 0v14q115 43 142.5 81t27.5 163v948q0 125 -27.5 163t-142.5 81v14h618v-14q-113 -43 -140.5 -80t-27.5 -164v-948q0 -127 28 -164t140 -80v-14h-618z" glyph-name="Ibreve" horiz-adv-x="688" unicode="Ĭ"/><glyph d="M489 1460h19q-31 -334 -252 -334q-223 0 -254 334h18q25 -86 92.5 -135t143.5 -49q74 0 141 49t92 135zM20 0v14q88 37 113 75t25 153v424q0 139 -26 181t-112 83v14q215 16 386 70v-772q0 -115 24.5 -153t110.5 -75v-14h-521z" glyph-name="ibreve" horiz-adv-x="557" unicode="ĭ"/><glyph d="M655 1450q-113 -43 -140.5 -80t-27.5 -164v-948q0 -127 28 -164t140 -80v-14h-213q-55 -41 -94 -95.5t-39 -101.5q0 -39 25.5 -60.5t62.5 -21.5q80 0 144 58l12 -10q-35 -61 -107.5 -102.5t-150.5 -41.5q-72 0 -118 35t-46 90q0 131 254 250h-348v14q115 43 142.5 81 t27.5 163v948q0 125 -27.5 163t-142.5 81v14h618v-14z" glyph-name="Iogonek" horiz-adv-x="688" unicode="Į"/><glyph d="M256 1155q-57 0 -100 41t-43 96q0 53 43 94t100 41t100 -40.5t43 -94.5q0 -55 -43 -96t-100 -41zM389 0q-131 -106 -131 -207q0 -41 25.5 -62.5t62.5 -21.5q78 0 143 62l15 -11q-39 -68 -112 -108.5t-148 -40.5q-72 0 -118 35t-46 94q0 135 254 260h-314v14q88 37 113 75 t25 153v424q0 139 -26 181t-112 83v14q215 16 386 70v-772q0 -115 24.5 -153t110.5 -75v-14h-152z" glyph-name="iogonek" horiz-adv-x="557" unicode="į"/><glyph d="M346 1559q-51 0 -90 37.5t-39 91t39 91.5t90 38q53 0 91 -38t38 -91.5t-38 -91t-91 -37.5zM37 0v14q115 43 142.5 81t27.5 163v948q0 125 -27.5 163t-142.5 81v14h618v-14q-113 -43 -140.5 -80t-27.5 -164v-948q0 -127 28 -164t140 -80v-14h-618z" glyph-name="Idotaccent" horiz-adv-x="688" unicode="İ"/><glyph d="M20 0v14q88 37 113 75t25 153v424q0 139 -26 181t-112 83v14q215 16 386 70v-772q0 -115 24.5 -153t110.5 -75v-14h-521z" glyph-name="dotlessi" horiz-adv-x="557" unicode="ı"/><glyph d="M88 1526l-12 12q129 180 260 375h14q127 -193 260 -375l-12 -12l-254 168zM41 -268l-6 20q168 98 168 293v1161q0 125 -28 163t-142 81v14h620v-14q-115 -43 -142.5 -81t-27.5 -163v-987q0 -117 -38.5 -206t-109.5 -143t-138.5 -84.5t-155.5 -53.5z" glyph-name="Jcircumflex" horiz-adv-x="675" unicode="Ĵ"/><glyph d="M4 1116l-12 12q51 68 131 183.5t121 173.5h12q147 -221 250 -357l-12 -12l-244 162zM-35 -428l-6 16q104 55 147.5 138.5t43.5 238.5v701q0 139 -26 181t-112 83v14q211 16 385 70v-910q0 -428 -432 -532z" glyph-name="jcircumflex" horiz-adv-x="534" unicode="ĵ"/><glyph d="M487 258q0 -127 28 -164t140 -80v-14h-618v14q115 43 142.5 81t27.5 163v948q0 125 -27.5 163t-142.5 81v14h618v-14q-113 -43 -140.5 -80t-27.5 -164v-948zM518 715l440 428q98 96 99 174q0 86 -119 133v14h504v-14q-74 -37 -149.5 -92t-121 -94t-131.5 -119l-303 -279 l504 -671q106 -141 232 -181v-14h-431zM795 -68q55 0 94 -34.5t39 -98.5q0 -76 -60.5 -160.5t-179.5 -132.5l-8 17q106 88 137 194h-20q-55 0 -95 31t-40 76t40 76.5t93 31.5z" glyph-name="Kcommaaccent" horiz-adv-x="1490" unicode="Ķ"/><glyph d="M20 0v14q88 37 113 75t25 153v944q0 139 -26 181t-112 83v14q215 16 386 70v-1040l309 274q55 49 55 90q0 57 -108 113v14h428v-14q-8 -4 -39 -22.5t-39 -22.5t-34 -19.5t-35 -22.5t-30.5 -20.5t-33 -23t-28.5 -23.5t-31.5 -27.5t-31.5 -29.5l-176 -154l330 -438 q80 -106 184 -154v-14h-354l-332 465h-34v-223q0 -115 24.5 -153t110.5 -75v-14h-521zM610 -68q55 0 94 -34.5t39 -98.5q0 -76 -60 -160.5t-179 -132.5l-8 17q106 88 137 194h-21q-55 0 -95 31t-40 76t40 76.5t93 31.5z" glyph-name="kcommaaccent" horiz-adv-x="1142" unicode="ķ"/><glyph d="M578 1888q-172 -201 -291 -327h-21q25 162 45 327h267zM1151 385h14l-49 -385h-1079v14q115 43 142.5 81t27.5 163v948q0 125 -27.5 163t-142.5 81v14h618v-14q-113 -43 -140.5 -80t-27.5 -164v-1054q0 -41 64.5 -67t179.5 -26h51q119 0 215.5 98.5t153.5 227.5z" glyph-name="Lacute" horiz-adv-x="1261" unicode="Ĺ"/><glyph d="M121 1587l-21 4q74 178 119 307l258 -59q-225 -166 -356 -252zM20 0v14q88 37 113 75t25 153v944q0 139 -26 181t-112 83v14q215 16 386 70v-1292q0 -115 24.5 -153t110.5 -75v-14h-521z" glyph-name="lacute" horiz-adv-x="557" unicode="ĺ"/><glyph d="M1151 385h14l-49 -385h-1079v14q115 43 142.5 81t27.5 163v948q0 125 -27.5 163t-142.5 81v14h618v-14q-113 -43 -140.5 -80t-27.5 -164v-1054q0 -41 64.5 -67t179.5 -26h51q119 0 215.5 98.5t153.5 227.5zM690 -68q55 0 94 -34.5t39 -98.5q0 -76 -60.5 -160.5 t-178.5 -132.5l-9 17q106 88 138 194h-21q-55 0 -95 31t-40 76t40 76.5t93 31.5z" glyph-name="Lcommaaccent" horiz-adv-x="1261" unicode="Ļ"/><glyph d="M20 0v14q88 37 113 75t25 153v944q0 139 -26 181t-112 83v14q215 16 386 70v-1292q0 -115 24.5 -153t110.5 -75v-14h-521zM287 -68q55 0 94 -34.5t39 -98.5q0 -76 -60.5 -160.5t-179.5 -132.5l-8 17q106 88 137 194h-20q-55 0 -95 31t-40 76t40 76.5t93 31.5z" glyph-name="lcommaaccent" horiz-adv-x="557" unicode="ļ"/><glyph d="M1151 385h14l-49 -385h-1079v14q115 43 142.5 81t27.5 163v948q0 125 -27.5 163t-142.5 81v14h618v-14q-113 -43 -140.5 -80t-27.5 -164v-1054q0 -41 64.5 -67t179.5 -26h51q119 0 215.5 98.5t153.5 227.5zM1016 1462q-174 -203 -293 -327h-18q29 178 43 327h268z" glyph-name="Lcaron" horiz-adv-x="1261" unicode="Ľ"/><glyph d="M20 0v14q88 37 113 75t25 153v944q0 139 -26 181t-112 83v14q215 16 386 70v-1292q0 -115 24.5 -153t110.5 -75v-14h-521zM516 1044h-14l33 445h227z" glyph-name="lcaron" horiz-adv-x="524" unicode="ľ"/><glyph d="M1151 385h14l-49 -385h-1079v14q115 43 142.5 81t27.5 163v948q0 125 -27.5 163t-142.5 81v14h618v-14q-113 -43 -140.5 -80t-27.5 -164v-1054q0 -41 64.5 -67t179.5 -26h51q119 0 215.5 98.5t153.5 227.5zM839.5 598q-63.5 0 -110.5 46t-47 109.5t47 110.5t110.5 47 t110.5 -47t47 -110.5t-47 -109.5t-110.5 -46z" glyph-name="Ldot" horiz-adv-x="1261" unicode="Ŀ"/><glyph d="M20 0v14q88 37 113 75t25 153v944q0 139 -26 181t-112 83v14q215 16 386 70v-1292q0 -115 24.5 -153t110.5 -75v-14h-521zM763.5 512q-63.5 0 -110.5 47t-47 110.5t47 109.5t110.5 46t110 -46t46.5 -109.5t-46.5 -110.5t-110 -47z" glyph-name="ldot" horiz-adv-x="968" unicode="ŀ"/><glyph d="M1151 385h14l-49 -385h-1079v14q115 43 142.5 81t27.5 163v283l-170 -101v58l170 100v608q0 125 -27.5 163t-142.5 81v14h618v-14q-113 -43 -140.5 -80t-27.5 -164v-440l287 170v-59l-287 -170v-555q0 -41 64.5 -67t179.5 -26h51q119 0 215.5 98.5t153.5 227.5z" glyph-name="Lslash" horiz-adv-x="1261" unicode="Ł"/><glyph d="M406 242q0 -115 24.5 -153t110.5 -75v-14h-521v14q88 37 113 75t25 153v411l-125 -92v62l125 94v469q0 139 -26 181t-112 83v14q215 16 386 70v-633l114 86v-67l-114 -84v-594z" glyph-name="lslash" horiz-adv-x="557" unicode="ł"/><glyph d="M993 1888q-172 -201 -291 -327h-20q25 162 45 327h266zM1485 1464v-14q-94 -35 -131 -65.5t-54.5 -101.5t-17.5 -226v-1057h-211q-389 631 -768 1200v-792q0 -156 17.5 -226.5t54.5 -101.5t131 -66v-14h-469v14q94 35 131 66t54.5 101.5t17.5 226.5v866q-47 98 -199 176 v14h408q401 -606 768 -1200v793q0 156 -17.5 226.5t-54.5 101t-131 65.5v14h471z" glyph-name="Nacute" horiz-adv-x="1507" unicode="Ń"/><glyph d="M852 1460q-174 -203 -293 -327h-18q29 178 43 327h268zM1053 242q0 -115 24.5 -153t110.5 -75v-14h-520v14q88 37 112.5 75t26.5 153q2 59 2 297q0 203 -34 271.5t-120 68.5q-82 0 -137 -39t-112 -115v-483q0 -115 24.5 -153t110.5 -75v-14h-521v14q88 37 113 75t25 153 v426q0 135 -26 178t-112 86v12q193 16 379 70v-230q150 225 367 226q115 0 201 -72t86 -223v-473z" glyph-name="nacute" horiz-adv-x="1204" unicode="ń"/><glyph d="M1485 1464v-14q-94 -35 -131 -65.5t-54.5 -101.5t-17.5 -226v-1057h-211q-389 631 -768 1200v-792q0 -156 17.5 -226.5t54.5 -101.5t131 -66v-14h-469v14q94 35 131 66t54.5 101.5t17.5 226.5v866q-47 98 -199 176v14h408q401 -606 768 -1200v793q0 156 -17.5 226.5 t-54.5 101t-131 65.5v14h471zM768 -68q55 0 94 -34.5t39 -98.5q0 -76 -60.5 -160.5t-178.5 -132.5l-9 17q106 88 138 194h-21q-55 0 -95 31t-40 76t40 76.5t93 31.5z" glyph-name="Ncommaaccent" horiz-adv-x="1507" unicode="Ņ"/><glyph d="M1053 242q0 -115 24.5 -153t110.5 -75v-14h-520v14q88 37 112.5 75t26.5 153q2 59 2 297q0 203 -34 271.5t-120 68.5q-82 0 -137 -39t-112 -115v-483q0 -115 24.5 -153t110.5 -75v-14h-521v14q88 37 113 75t25 153v426q0 135 -26 178t-112 86v12q193 16 379 70v-230 q150 225 367 226q115 0 201 -72t86 -223v-473zM618 -68q55 0 94.5 -34.5t39.5 -98.5q0 -76 -60.5 -160.5t-179.5 -132.5l-8 17q106 88 137 194h-20q-55 0 -95.5 31t-40.5 76t40 76.5t93 31.5z" glyph-name="ncommaaccent" horiz-adv-x="1204" unicode="ņ"/><glyph d="M786 1532h-12q-178 260 -262 375l12 12l256 -168l254 168l13 -12q-134 -182 -261 -375zM1485 1464v-14q-94 -35 -131 -65.5t-54.5 -101.5t-17.5 -226v-1057h-211q-389 631 -768 1200v-792q0 -156 17.5 -226.5t54.5 -101.5t131 -66v-14h-469v14q94 35 131 66t54.5 101.5 t17.5 226.5v866q-47 98 -199 176v14h408q401 -606 768 -1200v793q0 156 -17.5 226.5t-54.5 101t-131 65.5v14h471z" glyph-name="Ncaron" horiz-adv-x="1507" unicode="Ň"/><glyph d="M618 1114h-12q-39 55 -118.5 172t-131.5 187l11 12l245 -162l246 162l12 -12q-113 -148 -252 -359zM1053 242q0 -115 24.5 -153t110.5 -75v-14h-520v14q88 37 112.5 75t26.5 153q2 59 2 297q0 203 -34 271.5t-120 68.5q-82 0 -137 -39t-112 -115v-483q0 -115 24.5 -153 t110.5 -75v-14h-521v14q88 37 113 75t25 153v426q0 135 -26 178t-112 86v12q193 16 379 70v-230q150 225 367 226q115 0 201 -72t86 -223v-473z" glyph-name="ncaron" horiz-adv-x="1204" unicode="ň"/><glyph d="M1485 1464v-14q-94 -35 -131 -65.5t-54.5 -101.5t-17.5 -226v-1221q0 -125 -61.5 -191.5t-173.5 -66.5q-141 0 -226 80l111 246h12q25 -88 70 -150.5t110 -62.5q45 0 74 38t29 97v174h-156q-389 631 -768 1200v-792q0 -156 17.5 -226.5t54.5 -101.5t131 -66v-14h-469v14 q94 35 131 66t54.5 101.5t17.5 226.5v866q-47 98 -199 176v14h408q401 -606 768 -1200v793q0 156 -17.5 226.5t-54.5 101t-131 65.5v14h471z" glyph-name="Eng" horiz-adv-x="1507" unicode="Ŋ"/><glyph d="M766 1010q115 0 201 -72t86 -223v-611q0 -428 -435 -526l-6 16q104 53 147.5 135.5t45.5 235.5l4 699q0 109 -47 162t-119 53q-119 0 -237 -142v-495q0 -115 24.5 -153t110.5 -75v-14h-521v14q88 37 113 75t25 153v426q0 135 -26 178t-112 86v12q193 16 379 70v-221 q166 217 367 217z" glyph-name="eng" horiz-adv-x="1185" unicode="ŋ"/><glyph d="M1085 1724v-135h-606v135h606zM780.5 -27q-321.5 0 -520.5 208t-199 552t199 551t520.5 207t521 -208t199.5 -550t-199.5 -551t-521 -209zM825 33q166 0 273.5 155.5t107.5 419.5q0 129 -27.5 267.5t-81 265.5t-147.5 209t-213 82q-170 0 -275.5 -157t-105.5 -419 q0 -131 29 -270.5t82 -265t147 -206.5t211 -81z" glyph-name="Omacron" horiz-adv-x="1562" unicode="Ō"/><glyph d="M821 1335v-135h-522v135h522zM549 -20q-221 0 -358.5 138t-137.5 365.5t136.5 377t367.5 149.5q223 0 359.5 -139.5t136.5 -367t-136.5 -375.5t-367.5 -148zM596 27q86 0 144.5 86t58.5 254q0 86 -16.5 183t-48.5 192.5t-90 157t-130 61.5q-88 0 -147.5 -86.5 t-59.5 -251.5q0 -86 16.5 -184.5t49.5 -192.5t91 -156.5t132 -62.5z" glyph-name="omacron" horiz-adv-x="1105" unicode="ō"/><glyph d="M1014 1878h18q-31 -334 -252 -334q-223 0 -254 334h19q25 -84 92.5 -133t142.5 -49q74 0 141.5 49t92.5 133zM780.5 -27q-321.5 0 -520.5 208t-199 552t199 551t520.5 207t521 -208t199.5 -550t-199.5 -551t-521 -209zM825 33q166 0 273.5 155.5t107.5 419.5 q0 129 -27.5 267.5t-81 265.5t-147.5 209t-213 82q-170 0 -275.5 -157t-105.5 -419q0 -131 29 -270.5t82 -265t147 -206.5t211 -81z" glyph-name="Obreve" horiz-adv-x="1562" unicode="Ŏ"/><glyph d="M786 1456h19q-31 -334 -252 -334q-223 0 -254 334h18q25 -86 92.5 -135t143.5 -49q74 0 141 49t92 135zM549 -20q-221 0 -358.5 138t-137.5 365.5t136.5 377t367.5 149.5q223 0 359.5 -139.5t136.5 -367t-136.5 -375.5t-367.5 -148zM596 27q86 0 144.5 86t58.5 254 q0 86 -16.5 183t-48.5 192.5t-90 157t-130 61.5q-88 0 -147.5 -86.5t-59.5 -251.5q0 -86 16.5 -184.5t49.5 -192.5t91 -156.5t132 -62.5z" glyph-name="obreve" horiz-adv-x="1105" unicode="ŏ"/><glyph d="M879 1561h-19q23 145 41 327h256q-163 -200 -278 -327zM516 1559h-18q23 145 41 327h256q-183 -223 -279 -327zM780.5 -27q-321.5 0 -520.5 208t-199 552t199 551t520.5 207t521 -208t199.5 -550t-199.5 -551t-521 -209zM825 33q166 0 273.5 155.5t107.5 419.5 q0 129 -27.5 267.5t-81 265.5t-147.5 209t-213 82q-170 0 -275.5 -157t-105.5 -419q0 -131 29 -270.5t82 -265t147 -206.5t211 -81z" glyph-name="Ohungarumlaut" horiz-adv-x="1562" unicode="Ő"/><glyph d="M651 1135h-18q23 145 41 327h256q-164 -200 -279 -327zM289 1133h-19q23 145 41 327h256q-165 -202 -278 -327zM549 -20q-221 0 -358.5 138t-137.5 365.5t136.5 377t367.5 149.5q223 0 359.5 -139.5t136.5 -367t-136.5 -375.5t-367.5 -148zM596 27q86 0 144.5 86 t58.5 254q0 86 -16.5 183t-48.5 192.5t-90 157t-130 61.5q-88 0 -147.5 -86.5t-59.5 -251.5q0 -86 16.5 -184.5t49.5 -192.5t91 -156.5t132 -62.5z" glyph-name="ohungarumlaut" horiz-adv-x="1105" unicode="ő"/><glyph d="M2075 385h14l-49 -385h-922v92q-147 -115 -356 -115q-299 0 -500 207t-201 549q0 344 200 549t497 205q213 0 360 -115v92h860l37 -374h-14q-43 129 -142.5 223t-248.5 94h-226v-594h211q158 0 248 148h10v-369h-10q-92 168 -248 166l-211 -4v-602q0 -41 64.5 -67 t179.5 -26h76q119 0 216.5 98.5t154.5 227.5zM823 33q199 0 295 213v813q-57 182 -154.5 277.5t-222.5 95.5q-170 0 -277.5 -153t-107.5 -419q0 -131 28 -270t81 -267t146 -209t212 -81z" glyph-name="OE" horiz-adv-x="2183" unicode="Œ"/><glyph d="M1692 346l14 -8q-8 -41 -21.5 -81t-45 -93t-73.5 -91t-112 -65.5t-156 -27.5q-242 0 -385 176q-117 -176 -364 -176q-223 0 -359.5 138t-136.5 365q0 225 136.5 376t363.5 151q250 0 365 -174q139 174 372 174q119 0 207 -47.5t128 -116t57.5 -121.5t17.5 -90v-25h-668 l-2 -24q0 -215 107.5 -321.5t265.5 -106.5q86 0 150.5 35.5t89 69.5t49.5 83zM596 27q86 0 145.5 86t59.5 252q0 86 -16.5 184t-49.5 193.5t-91 157t-130 61.5q-88 0 -147.5 -86.5t-59.5 -251.5q0 -86 16.5 -184.5t49.5 -192.5t91 -156.5t132 -62.5zM1251 956 q-86 0 -143 -79.5t-74 -223.5l432 4q-2 37 -13 81t-32.5 96.5t-67 87t-102.5 34.5z" glyph-name="oe" horiz-adv-x="1761" unicode="œ"/><glyph d="M856 1888q-172 -201 -291 -327h-20q25 162 45 327h266zM1241 190q63 -90 174 -176v-14h-373q-250 381 -442 713l-113 -6v-449q0 -127 28 -164t140 -80v-14h-618v14q115 43 142.5 81t27.5 163v948q0 125 -27.5 163t-142.5 81v14h637q256 0 403.5 -97t147.5 -259 q0 -133 -98.5 -232.5t-254.5 -134.5q176 -281 369 -551zM487 1407v-641h156q133 0 218 85t85 245q0 311 -319 311h-140z" glyph-name="Racute" horiz-adv-x="1433" unicode="Ŕ"/><glyph d="M360 1133h-18q29 178 43 327h268q-174 -202 -293 -327zM20 0v14q88 37 113 75t25 153v432q0 125 -24.5 173t-113.5 85v12q199 16 379 70l-6 -207h6q29 78 100.5 140.5t174.5 62.5q57 0 98 -27l-29 -272h-14q-113 139 -201 139q-76 0 -122 -98v-510q0 -115 30.5 -153 t138.5 -75v-14h-555z" glyph-name="racute" horiz-adv-x="839" unicode="ŕ"/><glyph d="M1241 190q63 -90 174 -176v-14h-373q-250 381 -442 713l-113 -6v-449q0 -127 28 -164t140 -80v-14h-618v14q115 43 142.5 81t27.5 163v948q0 125 -27.5 163t-142.5 81v14h637q256 0 403.5 -97t147.5 -259q0 -133 -98.5 -232.5t-254.5 -134.5q176 -281 369 -551zM487 1407 v-641h156q133 0 218 85t85 245q0 311 -319 311h-140zM727 -68q55 0 94 -34.5t39 -98.5q0 -76 -60.5 -160.5t-178.5 -132.5l-9 17q106 88 138 194h-21q-55 0 -95 31t-40 76t40 76.5t93 31.5z" glyph-name="Rcommaaccent" horiz-adv-x="1433" unicode="Ŗ"/><glyph d="M20 0v14q88 37 113 75t25 153v432q0 125 -24.5 173t-113.5 85v12q199 16 379 70l-6 -207h6q29 78 100.5 140.5t174.5 62.5q57 0 98 -27l-29 -272h-14q-113 139 -201 139q-76 0 -122 -98v-510q0 -115 30.5 -153t138.5 -75v-14h-555zM289 -68q55 0 94 -34.5t39 -98.5 q0 -76 -60.5 -160.5t-179.5 -132.5l-8 17q106 88 137 194h-20q-55 0 -95 31t-40 76t40 76.5t93 31.5z" glyph-name="rcommaaccent" horiz-adv-x="839" unicode="ŗ"/><glyph d="M649 1532h-12q-178 260 -262 375l12 12l256 -168l254 168l12 -12q-133 -182 -260 -375zM1241 190q63 -90 174 -176v-14h-373q-250 381 -442 713l-113 -6v-449q0 -127 28 -164t140 -80v-14h-618v14q115 43 142.5 81t27.5 163v948q0 125 -27.5 163t-142.5 81v14h637 q256 0 403.5 -97t147.5 -259q0 -133 -98.5 -232.5t-254.5 -134.5q176 -281 369 -551zM487 1407v-641h156q133 0 218 85t85 245q0 311 -319 311h-140z" glyph-name="Rcaron" horiz-adv-x="1433" unicode="Ř"/><glyph d="M166 1485l246 -162l245 162l13 -12q-113 -147 -252 -359h-12q-39 55 -119 172t-131 187zM20 0v14q88 37 113 75t25 153v432q0 125 -24.5 173t-113.5 85v12q199 16 379 70l-6 -207h6q29 78 100.5 140.5t174.5 62.5q57 0 98 -27l-29 -272h-14q-113 139 -201 139 q-76 0 -122 -98v-510q0 -115 30.5 -153t138.5 -75v-14h-555z" glyph-name="rcaron" horiz-adv-x="839" unicode="ř"/><glyph d="M508 1561h-21q25 162 45 327h267q-172 -200 -291 -327zM596 -27q-213 0 -471 131l-25 381h15q35 -80 81 -154.5t106 -144t136 -111.5t154 -42q104 0 171.5 65.5t67.5 177.5q0 111 -71.5 182.5t-249.5 176.5q-102 59 -149.5 91t-115 92.5t-96 129t-28.5 154.5 q0 178 126 283.5t314 105.5q168 0 381 -82l41 -369h-14q-76 158 -187.5 277t-236.5 119q-86 0 -149.5 -58.5t-63.5 -165.5q0 -98 62.5 -157.5t250.5 -167.5q92 -53 135 -81t107.5 -77t93.5 -91t51.5 -105.5t22.5 -137.5q0 -209 -137.5 -315.5t-321.5 -106.5z" glyph-name="Sacute" horiz-adv-x="1142" unicode="Ś"/><glyph d="M360 1133h-18q29 178 43 327h268q-174 -202 -293 -327zM453 -25q-162 0 -357 80l-28 287l12 4q215 -326 379 -326q61 0 100 40t39 102q0 76 -58.5 125t-181.5 110q-70 35 -102.5 54.5t-86.5 62.5t-78.5 97.5t-24.5 121.5q0 135 98 207t235 72q135 0 312 -64l22 -268 l-12 -2q-184 287 -336 287q-53 0 -89 -37t-36 -99q0 -41 16.5 -73.5t56.5 -61t71.5 -45t99.5 -49.5q141 -66 219 -144.5t78 -195.5q0 -129 -95 -207t-253 -78z" glyph-name="sacute" horiz-adv-x="858" unicode="ś"/><glyph d="M332 1526l-13 12q129 180 261 375h14q127 -193 260 -375l-12 -12l-254 168zM596 -27q-213 0 -471 131l-25 381h15q35 -80 81 -154.5t106 -144t136 -111.5t154 -42q104 0 171.5 65.5t67.5 177.5q0 111 -71.5 182.5t-249.5 176.5q-102 59 -149.5 91t-115 92.5t-96 129 t-28.5 154.5q0 178 126 283.5t314 105.5q168 0 381 -82l41 -369h-14q-76 158 -187.5 277t-236.5 119q-86 0 -149.5 -58.5t-63.5 -165.5q0 -98 62.5 -157.5t250.5 -167.5q92 -53 135 -81t107.5 -77t93.5 -91t51.5 -105.5t22.5 -137.5q0 -209 -137.5 -315.5t-321.5 -106.5z " glyph-name="Scircumflex" horiz-adv-x="1142" unicode="Ŝ"/><glyph d="M174 1112l-12 12q51 68 131 183.5t121 173.5h12q147 -221 250 -357l-12 -12l-244 162zM453 -25q-162 0 -357 80l-28 287l12 4q215 -326 379 -326q61 0 100 40t39 102q0 76 -58.5 125t-181.5 110q-70 35 -102.5 54.5t-86.5 62.5t-78.5 97.5t-24.5 121.5q0 135 98 207 t235 72q135 0 312 -64l22 -268l-12 -2q-184 287 -336 287q-53 0 -89 -37t-36 -99q0 -41 16.5 -73.5t56.5 -61t71.5 -45t99.5 -49.5q141 -66 219 -144.5t78 -195.5q0 -129 -95 -207t-253 -78z" glyph-name="scircumflex" horiz-adv-x="858" unicode="ŝ"/><glyph d="M1055 395q0 -209 -137.5 -315.5t-321.5 -106.5l-16 -34q270 -23 270 -181q0 -182 -385 -180l10 35q104 8 161.5 39t57.5 78q0 49 -58 83.5t-151 36.5l70 125q-205 14 -430 129l-25 381h15q35 -80 81 -154.5t106 -144t136 -111.5t154 -42q104 0 171.5 65.5t67.5 177.5 q0 111 -71.5 182.5t-249.5 176.5q-102 59 -149.5 91t-115 92.5t-96 129t-28.5 154.5q0 178 126 283.5t314 105.5q168 0 381 -82l41 -369h-14q-76 158 -187.5 277t-236.5 119q-86 0 -149.5 -58.5t-63.5 -165.5q0 -98 62.5 -157.5t250.5 -167.5q92 -53 135 -81t107.5 -77 t93.5 -91t51.5 -105.5t22.5 -137.5z" glyph-name="Scedilla" horiz-adv-x="1142" unicode="Ş"/><glyph d="M801 262q0 -131 -93.5 -208t-256.5 -79l-25 -43q236 -18 236 -161q0 -100 -110 -156.5t-312 -54.5l16 34q109 10 176.5 45t67.5 91q0 47 -51.5 78.5t-135.5 33.5l97 133q-137 8 -314 80l-28 287l12 4q215 -326 379 -326q61 0 100 40t39 102q0 76 -58.5 125t-181.5 110 q-70 35 -102.5 54.5t-86.5 62.5t-78.5 97.5t-24.5 121.5q0 135 98 207t235 72q135 0 312 -64l22 -268l-12 -2q-184 287 -336 287q-53 0 -89 -37t-36 -99q0 -41 16.5 -73.5t56.5 -61t71.5 -45t99.5 -49.5q141 -66 219 -144.5t78 -193.5z" glyph-name="scedilla" horiz-adv-x="858" unicode="ş"/><glyph d="M330 1919l256 -168l254 168l12 -12q-133 -182 -260 -375h-12q-178 260 -263 375zM596 -27q-213 0 -471 131l-25 381h15q35 -80 81 -154.5t106 -144t136 -111.5t154 -42q104 0 171.5 65.5t67.5 177.5q0 111 -71.5 182.5t-249.5 176.5q-102 59 -149.5 91t-115 92.5t-96 129 t-28.5 154.5q0 178 126 283.5t314 105.5q168 0 381 -82l41 -369h-14q-76 158 -187.5 277t-236.5 119q-86 0 -149.5 -58.5t-63.5 -165.5q0 -98 62.5 -157.5t250.5 -167.5q92 -53 135 -81t107.5 -77t93.5 -91t51.5 -105.5t22.5 -137.5q0 -209 -137.5 -315.5t-321.5 -106.5z " glyph-name="Scaron" horiz-adv-x="1142" unicode="Š"/><glyph d="M166 1485l246 -162l245 162l13 -12q-113 -147 -252 -359h-12q-39 55 -119 172t-131 187zM453 -25q-162 0 -357 80l-28 287l12 4q215 -326 379 -326q61 0 100 40t39 102q0 76 -58.5 125t-181.5 110q-70 35 -102.5 54.5t-86.5 62.5t-78.5 97.5t-24.5 121.5q0 135 98 207 t235 72q135 0 312 -64l22 -268l-12 -2q-184 287 -336 287q-53 0 -89 -37t-36 -99q0 -41 16.5 -73.5t56.5 -61t71.5 -45t99.5 -49.5q141 -66 219 -144.5t78 -195.5q0 -129 -95 -207t-253 -78z" glyph-name="scaron" horiz-adv-x="858" unicode="š"/><glyph d="M1262 1464l36 -374h-14q-43 129 -142.5 223t-248.5 94h-74v-1149q0 -125 27.5 -163t142.5 -81v-14h-282l-27 -55q270 -23 270 -181q0 -182 -385 -180l10 35q104 8 162 39t58 78q0 49 -58.5 84t-150.5 37l80 143h-297v14q115 43 142.5 81t27.5 163v1149h-80 q-147 0 -247.5 -93t-145.5 -224h-13l37 374h1172z" glyph-name="Tcommaaccent" horiz-adv-x="1347" unicode="Ţ"/><glyph d="M381 -18q-12 0 -21 2l-28 -52q236 -18 235 -161q0 -100 -109.5 -156.5t-312.5 -54.5l17 34q109 10 176.5 45t67.5 91q0 47 -51.5 78.5t-135.5 33.5l105 146q-86 20 -140.5 87.5t-54.5 182.5v670h-100v28q250 164 323 295h23v-266h268l-8 -57h-258l-4 -631 q-2 -106 43 -152.5t108 -46.5q74 0 144 72l8 -10q-113 -178 -295 -178z" glyph-name="tcommaaccent" horiz-adv-x="677" unicode="ţ"/><glyph d="M690 1532h-12q-178 260 -262 375l12 12l256 -168l254 168l12 -12q-133 -182 -260 -375zM1262 1464l36 -374h-14q-43 129 -142.5 223t-248.5 94h-74v-1149q0 -125 27.5 -163t142.5 -81v-14h-620v14q115 43 142.5 81t27.5 163v1149h-80q-147 0 -247.5 -93t-145.5 -224h-13 l37 374h1172z" glyph-name="Tcaron" horiz-adv-x="1347" unicode="Ť"/><glyph d="M477 1057h-16l33 428h229zM387 -18q-109 0 -183.5 70.5t-74.5 205.5v670h-100v28q250 164 323 295h23v-266h268l-8 -57h-258l-4 -631q-2 -106 43 -152.5t108 -46.5q74 0 144 72l8 -10q-113 -178 -289 -178z" glyph-name="tcaron" horiz-adv-x="677" unicode="ť"/><glyph d="M1262 1464l36 -374h-14q-43 129 -142.5 223t-248.5 94h-74v-514h240v-53h-240v-582q0 -125 27.5 -163t142.5 -81v-14h-620v14q115 43 142.5 81t27.5 163v582h-232v53h232v514h-80q-147 0 -247.5 -93t-145.5 -224h-13l37 374h1172z" glyph-name="Tbar" horiz-adv-x="1347" unicode="Ŧ"/><glyph d="M668 170l8 -10q-113 -178 -289 -178q-109 0 -183.5 70.5t-74.5 205.5v426h-96v53h96v191h-100v28q250 164 323 295h23v-266h268l-8 -57h-258l-2 -191h219v-53h-219l-2 -387q0 -199 149 -199q76 0 146 72z" glyph-name="tbar" horiz-adv-x="677" unicode="ŧ"/><glyph d="M1094 1790l18 -4q-20 -113 -73.5 -159t-157.5 -46q-25 0 -133 33q-117 35 -152 35q-74 0 -133 -60l-17 4q37 205 226 205q43 0 141 -31q113 -35 133 -34q59 0 84 10t64 47zM1475 1464v-14q-94 -35 -131 -65.5t-54.5 -101.5t-17.5 -226v-590q0 -233 -134 -363.5 t-376 -130.5q-82 0 -157 15.5t-148.5 53.5t-128 96.5t-88 152.5t-33.5 213v702q0 125 -27.5 163t-142.5 81v14h618v-14q-113 -43 -140.5 -80t-27.5 -164v-700q0 -219 96.5 -336t260.5 -117q160 0 262 107.5t102 304.5v592q0 156 -17 226.5t-54 101t-131 65.5v14h469z" glyph-name="Utilde" horiz-adv-x="1490" unicode="Ũ"/><glyph d="M440 1251q-68 0 -121 -59l-16 4q23 113 73 156t152 43q14 0 110.5 -33t123.5 -33q53 0 74.5 10.5t58.5 46.5l18 -4q-35 -197 -194 -196q-49 0 -141 31q-105 34 -138 34zM1051 238q0 -98 24.5 -128t110.5 -57v-12l-377 -70v213q-152 -211 -367 -211q-115 0 -200.5 72 t-85.5 223v398q0 133 -25 179t-111 85v14q211 16 383 70q0 -113 -2 -348.5t-2 -346.5q0 -106 48.5 -159.5t121.5 -53.5q121 0 234 130v430q0 135 -23.5 179t-111.5 85v14q193 12 383 68v-774z" glyph-name="utilde" horiz-adv-x="1200" unicode="ũ"/><glyph d="M1079 1724v-135h-606v135h606zM1475 1464v-14q-94 -35 -131 -65.5t-54.5 -101.5t-17.5 -226v-590q0 -233 -134 -363.5t-376 -130.5q-82 0 -157 15.5t-148.5 53.5t-128 96.5t-88 152.5t-33.5 213v702q0 125 -27.5 163t-142.5 81v14h618v-14q-113 -43 -140.5 -80 t-27.5 -164v-700q0 -219 96.5 -336t260.5 -117q160 0 262 107.5t102 304.5v592q0 156 -17 226.5t-54 101t-131 65.5v14h469z" glyph-name="Umacron" horiz-adv-x="1490" unicode="Ū"/><glyph d="M870 1335v-135h-522v135h522zM1051 238q0 -98 24.5 -128t110.5 -57v-12l-377 -70v213q-152 -211 -367 -211q-115 0 -200.5 72t-85.5 223v398q0 133 -25 179t-111 85v14q211 16 383 70q0 -113 -2 -348.5t-2 -346.5q0 -106 48.5 -159.5t121.5 -53.5q121 0 234 130v430 q0 135 -23.5 179t-111.5 85v14q193 12 383 68v-774z" glyph-name="umacron" horiz-adv-x="1200" unicode="ū"/><glyph d="M1010 1878h18q-31 -334 -252 -334q-223 0 -254 334h19q25 -84 92 -133t143 -49q74 0 141.5 49t92.5 133zM1475 1464v-14q-94 -35 -131 -65.5t-54.5 -101.5t-17.5 -226v-590q0 -233 -134 -363.5t-376 -130.5q-82 0 -157 15.5t-148.5 53.5t-128 96.5t-88 152.5t-33.5 213 v702q0 125 -27.5 163t-142.5 81v14h618v-14q-113 -43 -140.5 -80t-27.5 -164v-700q0 -219 96.5 -336t260.5 -117q160 0 262 107.5t102 304.5v592q0 156 -17 226.5t-54 101t-131 65.5v14h469z" glyph-name="Ubreve" horiz-adv-x="1490" unicode="Ŭ"/><glyph d="M602 1122q-223 0 -254 334h19q25 -86 92 -135t143 -49q74 0 141.5 49t92.5 135h18q-31 -334 -252 -334zM1051 238q0 -98 24.5 -128t110.5 -57v-12l-377 -70v213q-152 -211 -367 -211q-115 0 -200.5 72t-85.5 223v398q0 133 -25 179t-111 85v14q211 16 383 70 q0 -113 -2 -348.5t-2 -346.5q0 -106 48.5 -159.5t121.5 -53.5q121 0 234 130v430q0 135 -23.5 179t-111.5 85v14q193 12 383 68v-774z" glyph-name="ubreve" horiz-adv-x="1200" unicode="ŭ"/><glyph d="M776 1536q-78 0 -132 56.5t-54 133.5q0 80 54 135.5t132 55.5q76 0 131.5 -55.5t55.5 -135.5q0 -78 -54.5 -134t-132.5 -56zM782 1587q49 0 83 40t34 97q0 59 -36 101.5t-89 42.5q-51 0 -86 -41t-35 -94q0 -57 39 -101.5t90 -44.5zM1475 1464v-14q-94 -35 -131 -65.5 t-54.5 -101.5t-17.5 -226v-590q0 -233 -134 -363.5t-376 -130.5q-82 0 -157 15.5t-148.5 53.5t-128 96.5t-88 152.5t-33.5 213v702q0 125 -27.5 163t-142.5 81v14h618v-14q-113 -43 -140.5 -80t-27.5 -164v-700q0 -219 96.5 -336t260.5 -117q160 0 262 107.5t102 304.5v592 q0 156 -17 226.5t-54 101t-131 65.5v14h469z" glyph-name="Uring" horiz-adv-x="1490" unicode="Ů"/><glyph d="M604 1081q-78 0 -132 56.5t-54 134.5q0 80 54 135t132 55q76 0 131.5 -55t55.5 -135q0 -78 -54.5 -134.5t-132.5 -56.5zM600 1413q-51 0 -85 -40t-34 -97q0 -55 39 -99t90.5 -44t84 42t32.5 97q0 59 -38 100t-89 41zM1051 238q0 -98 24.5 -128t110.5 -57v-12l-377 -70 v213q-152 -211 -367 -211q-115 0 -200.5 72t-85.5 223v398q0 133 -25 179t-111 85v14q211 16 383 70q0 -113 -2 -348.5t-2 -346.5q0 -106 48.5 -159.5t121.5 -53.5q121 0 234 130v430q0 135 -23.5 179t-111.5 85v14q193 12 383 68v-774z" glyph-name="uring" horiz-adv-x="1200" unicode="ů"/><glyph d="M874 1561h-18q23 145 41 327h256q-164 -200 -279 -327zM512 1559h-18q23 145 41 327h256q-183 -223 -279 -327zM1475 1464v-14q-94 -35 -131 -65.5t-54.5 -101.5t-17.5 -226v-590q0 -233 -134 -363.5t-376 -130.5q-82 0 -157 15.5t-148.5 53.5t-128 96.5t-88 152.5 t-33.5 213v702q0 125 -27.5 163t-142.5 81v14h618v-14q-113 -43 -140.5 -80t-27.5 -164v-700q0 -219 96.5 -336t260.5 -117q160 0 262 107.5t102 304.5v592q0 156 -17 226.5t-54 101t-131 65.5v14h469z" glyph-name="Uhungarumlaut" horiz-adv-x="1490" unicode="Ű"/><glyph d="M979 1462q-164 -201 -279 -327h-18q23 145 41 327h256zM616 1460q-166 -203 -278 -327h-19q23 145 41 327h256zM1051 238q0 -98 24.5 -128t110.5 -57v-12l-377 -70v213q-152 -211 -367 -211q-115 0 -200.5 72t-85.5 223v398q0 133 -25 179t-111 85v14q211 16 383 70 q0 -113 -2 -348.5t-2 -346.5q0 -106 48.5 -159.5t121.5 -53.5q121 0 234 130v430q0 135 -23.5 179t-111.5 85v14q193 12 383 68v-774z" glyph-name="uhungarumlaut" horiz-adv-x="1200" unicode="ű"/><glyph d="M1475 1464v-14q-94 -35 -131 -65.5t-54.5 -101.5t-17.5 -226v-590q0 -332 -258 -447q-55 -41 -97.5 -96t-42.5 -104q0 -39 26 -60.5t63 -21.5q80 0 143 57l12 -10q-39 -63 -110.5 -103t-147.5 -40q-72 0 -118 34.5t-46 90.5q0 111 189 217q-66 -10 -123 -11 q-82 0 -157 15.5t-148.5 53.5t-128 96.5t-88 152.5t-33.5 213v702q0 125 -27.5 163t-142.5 81v14h618v-14q-113 -43 -140.5 -80t-27.5 -164v-700q0 -219 96.5 -336t260.5 -117q160 0 262 107.5t102 304.5v592q0 156 -17 226.5t-54 101t-131 65.5v14h469z" glyph-name="Uogonek" horiz-adv-x="1490" unicode="Ų"/><glyph d="M838 -23q-104 -96 -105 -184q0 -41 25.5 -62.5t62.5 -21.5q78 0 144 62l14 -11q-39 -68 -111.5 -108.5t-148.5 -40.5q-72 0 -118 35t-46 94q0 135 254 260v184q-152 -211 -367 -211q-115 0 -200.5 72t-85.5 223v398q0 133 -25 179t-111 85v14q211 16 383 70 q0 -113 -2 -348.5t-2 -346.5q0 -106 48.5 -159.5t121.5 -53.5q121 0 234 130v430q0 135 -23.5 179t-111.5 85v14q193 12 383 68v-774q0 -98 24.5 -128t110.5 -57v-12z" glyph-name="uogonek" horiz-adv-x="1200" unicode="ų"/><glyph d="M1143 1694l-256 -168l-13 12q129 180 261 375h14q127 -193 260 -375l-12 -12zM1741 1464h446v-14q-109 -61 -149.5 -116.5t-81.5 -170.5l-416 -1165h-86l-360 987l-355 -987h-84l-473 1292q-20 57 -51 89t-119 71v14h621v-14q-92 -33 -127 -60.5t-35 -60.5q0 -18 12 -55 l322 -922l252 733l-76 207q-20 57 -50 88t-122 70v14h618v-14q-86 -35 -118.5 -63.5t-32.5 -69.5q0 -33 31 -119l297 -846l274 809q33 94 33 137q0 45 -37 78t-133 74v14z" glyph-name="Wcircumflex" horiz-adv-x="2193" unicode="Ŵ"/><glyph d="M858 1274l-246 -162l-12 12q51 68 131 183.5t121 173.5h12q147 -221 250 -357l-12 -12zM1327 985h344v-14q-59 -39 -96 -75t-50.5 -58.5t-29.5 -63.5l-321 -776h-68l-268 631l-263 -631h-67l-356 833q-33 76 -148 140v14h524v-14q-68 -25 -95 -49.5t-27 -57.5 q0 -25 16 -67q2 -6 12 -32t62.5 -149.5t144.5 -336.5l168 415l-59 142q-35 82 -148 135v14h524v-14q-68 -25 -96.5 -47.5t-28.5 -57.5q0 -25 17 -63q39 -98 221 -522q129 324 195 493q14 35 14 64q0 37 -26.5 64.5t-94.5 68.5v14z" glyph-name="wcircumflex" horiz-adv-x="1671" unicode="ŵ"/><glyph d="M770 1694l-256 -168l-12 12q129 180 260 375h14q127 -193 260 -375l-12 -12zM1010 1464h407v-14q-61 -29 -111.5 -78t-68.5 -75.5t-57 -90.5l-322 -534v-414q0 -125 27.5 -163t142.5 -81v-14h-620v14q115 43 142.5 81t27.5 163v399l-392 639q-31 53 -64.5 84t-109.5 70 v14h621v-14q-82 -43 -111.5 -65.5t-29.5 -51.5q0 -33 47 -110l295 -482l272 465q37 63 37 105q0 74 -133 139v14z" glyph-name="Ycircumflex" horiz-adv-x="1425" unicode="Ŷ"/><glyph d="M578 1274l-246 -162l-13 12q51 68 131 183.5t121 173.5h13q147 -221 250 -357l-13 -12zM745 985h349v-14q-76 -43 -112 -85t-69 -126q-285 -707 -340 -813q-80 -154 -139 -229.5t-164 -149.5l-133 174l4 12q113 -4 217.5 39t153.5 146l31 63l-387 825q-23 47 -55.5 81 t-96.5 63v14h547v-14q-119 -53 -119 -113q0 -27 21 -72l219 -489q98 231 188 477q12 31 12 57q0 76 -127 140v14z" glyph-name="ycircumflex" horiz-adv-x="1093" unicode="ŷ"/><glyph d="M563 1554q-53 0 -91 38t-38 91.5t38 91t91 37.5q51 0 90 -37.5t39 -91t-39 -91.5t-90 -38zM965 1556q-51 0 -89 37t-38 90.5t36.5 91t90 37.5t91.5 -37.5t38 -91t-38 -90.5t-91 -37zM1010 1464h407v-14q-61 -29 -111.5 -78t-68.5 -75.5t-57 -90.5l-322 -534v-414 q0 -125 27.5 -163t142.5 -81v-14h-620v14q115 43 142.5 81t27.5 163v399l-392 639q-31 53 -64.5 84t-109.5 70v14h621v-14q-82 -43 -111.5 -65.5t-29.5 -51.5q0 -33 47 -110l295 -482l272 465q37 63 37 105q0 74 -133 139v14z" glyph-name="Ydieresis" horiz-adv-x="1425" unicode="Ÿ"/><glyph d="M866 1888q-172 -201 -291 -327h-20q25 162 45 327h266zM1157 385h12l-49 -385h-1059v35l779 1372h-314q-150 0 -249 -94t-142 -223h-14l37 374h999v-34l-778 -1371h407q119 0 216.5 98.5t154.5 227.5z" glyph-name="Zacute" horiz-adv-x="1226" unicode="Ź"/><glyph d="M715 1460q-174 -203 -293 -327h-19q29 178 43 327h269zM887 985v-29l-547 -909h270q57 0 106.5 52.5t147.5 232.5h13l-33 -332h-789v27l551 911h-244q-49 0 -97 -50t-159 -224h-12l33 321h760z" glyph-name="zacute" horiz-adv-x="942" unicode="ź"/><glyph d="M647 1559q-53 0 -91 37.5t-38 91t38 91.5t91 38t91 -38t38 -91.5t-38 -91t-91 -37.5zM1157 385h12l-49 -385h-1059v35l779 1372h-314q-150 0 -249 -94t-142 -223h-14l37 374h999v-34l-778 -1371h407q119 0 216.5 98.5t154.5 227.5z" glyph-name="Zdotaccent" horiz-adv-x="1226" unicode="Ż"/><glyph d="M479.5 1149q-57.5 0 -100.5 41t-43 96q0 53 43 94t100.5 41t100.5 -41t43 -94q0 -55 -43 -96t-100.5 -41zM887 985v-29l-547 -909h270q57 0 106.5 52.5t147.5 232.5h13l-33 -332h-789v27l551 911h-244q-49 0 -97 -50t-159 -224h-12l33 321h760z" glyph-name="zdotaccent" horiz-adv-x="942" unicode="ż"/><glyph d="M659 1532h-12q-178 260 -262 375l12 12l256 -168l254 168l13 -12q-134 -182 -261 -375zM1157 385h12l-49 -385h-1059v35l779 1372h-314q-150 0 -249 -94t-142 -223h-14l37 374h999v-34l-778 -1371h407q119 0 216.5 98.5t154.5 227.5z" glyph-name="Zcaron" horiz-adv-x="1226" unicode="Ž"/><glyph d="M479 1114h-12q-39 55 -119 172t-131 187l10 12l246 -162l246 162l12 -12q-113 -148 -252 -359zM887 985v-29l-547 -909h270q57 0 106.5 52.5t147.5 232.5h13l-33 -332h-789v27l551 911h-244q-49 0 -97 -50t-159 -224h-12l33 321h760z" glyph-name="zcaron" horiz-adv-x="942" unicode="ž"/><glyph d="M961 2216q-186 -190 -291 -285h-21q27 141 45 285h267zM743.5 1536q-77.5 0 -132 56.5t-54.5 133.5q0 80 54.5 135.5t131.5 55.5q76 0 131.5 -55.5t55.5 -135.5q0 -78 -54.5 -134t-132 -56zM741 1868q-51 0 -85.5 -41t-34.5 -96.5t37.5 -99.5t89 -44t85 41t33.5 96 q0 59 -36 101.5t-89 42.5zM1282 197q29 -78 58.5 -111t119.5 -72v-14h-622v14q90 37 123.5 64.5t33.5 64.5q0 33 -30 115l-88 242h-490l-22 -62q-72 -193 -72 -258q0 -57 37 -92t129 -74v-14h-434v14q111 80 159.5 157t114.5 255l301 827l-65 131q156 63 247 129zM418 588 h428l-215 594z" glyph-name="Aringacute" horiz-adv-x="1480" unicode="Ǻ"/><glyph d="M506 1507h-19q29 178 43 328h269q-174 -203 -293 -328zM565 1081q-78 0 -132 56.5t-54 134.5q0 80 54 135t132 55q76 0 131.5 -55t55.5 -135q0 -78 -54.5 -134.5t-132.5 -56.5zM571.5 1133q51.5 0 84 43t32.5 98q0 57 -38 98t-89 41t-85 -40t-34 -97q0 -55 39 -99 t90.5 -44zM858 -20q-96 0 -133 63t-33 147h-4q-45 -82 -139 -144t-217 -62q-125 0 -198 64.5t-73 168.5q0 141 160 245.5t475 190.5l4 148q2 70 -31.5 119t-107.5 49q-98 0 -154.5 -92.5t-74.5 -223.5l-10 -2l-183 121q53 94 167 166t282 72q186 0 269 -91.5t79 -222.5 l-12 -532q0 -70 51 -70q53 0 94 88l16 -8q-27 -80 -83 -137t-144 -57zM461 123q117 0 225 123l10 366q-203 -63 -288.5 -146t-85.5 -185q0 -74 38 -116t101 -42z" glyph-name="aringacute" horiz-adv-x="1093" unicode="ǻ"/><glyph d="M1579 1888q-172 -201 -291 -327h-20q25 162 45 327h266zM1880 385h14l-49 -385h-1102v14q115 43 142.5 81t27.5 163v240h-475l-110 -187q-57 -94 -58 -147q0 -43 38 -77t126 -73v-14h-426v14q82 61 134.5 120t121.5 175l580 983q10 16 10 31q0 27 -34 52.5t-122 74.5v14 h1078l36 -374h-12q-45 131 -145.5 224t-247.5 93h-213v-594h209q158 0 248 148h10v-369h-10q-90 168 -248 166l-209 -4v-602q0 -41 65.5 -67t180.5 -26h71q119 0 215.5 98.5t153.5 227.5zM487 582h426v718h-4z" glyph-name="AEacute" horiz-adv-x="1990" unicode="Ǽ"/><glyph d="M795 1133h-19q29 178 43 327h268q-173 -202 -292 -327zM358.5 -20q-135.5 0 -216.5 61t-81 168q0 80 47.5 147.5t137.5 120.5t197.5 95t252.5 81l2 156q2 74 -35.5 116t-105.5 42q-102 0 -157.5 -94.5t-67.5 -219.5l-13 -2l-180 123q51 92 164 164t264 72q205 0 287 -144 q135 143 328 144q180 0 289.5 -116t109.5 -263v-23h-666q0 -8 -1 -20.5t-1 -28.5q0 -201 115 -301t262 -100q193 0 285 182l12 -6q-27 -156 -133 -255t-274 -99q-129 0 -235.5 54t-166.5 150q-49 -86 -166.5 -145t-253 -59zM920 653l426 2q-4 121 -64.5 211t-148.5 90 q-84 0 -144.5 -85t-68.5 -218zM506 92q66 0 135.5 35t112.5 98q-61 123 -62 264q0 72 6 125q-199 -68 -287.5 -147.5t-88.5 -194.5q0 -96 53 -138t131 -42z" glyph-name="aeacute" horiz-adv-x="1640" unicode="ǽ"/><glyph d="M999 1888q-172 -201 -290 -327h-21q25 162 45 327h266zM1243 1337q258 -213 258 -604q0 -342 -199.5 -551t-521.5 -209q-242 0 -424 125l-114 -161h-60l137 190q-258 213 -258 606q0 344 199 551t520 207q244 0 426 -125l105 147h59zM356 856q0 -287 107 -526l612 856 q-127 246 -338 246q-172 0 -276.5 -158t-104.5 -418zM823 33q168 0 275.5 155.5t107.5 421.5q0 291 -106 525l-613 -854q131 -248 336 -248z" glyph-name="Oslashacute" horiz-adv-x="1562" unicode="Ǿ"/><glyph d="M788 1460q-174 -203 -292 -327h-19q29 178 43 327h268zM877 905q176 -141 176 -403q0 -221 -134.5 -371.5t-367.5 -150.5q-168 0 -289 79l-104 -143h-49l120 166q-176 141 -176 401q0 225 136.5 376t363.5 151q166 0 289 -78l88 121h53zM307 625q0 -180 58 -355l358 498 q-78 193 -205 193q-90 0 -150.5 -85t-60.5 -251zM592 27q88 0 147.5 86t59.5 252q0 182 -58 354l-358 -494q80 -198 209 -198z" glyph-name="oslashacute" horiz-adv-x="1105" unicode="ǿ"/><glyph d="M596 -27q-213 0 -471 131l-25 381h15q35 -80 81 -154.5t106 -144t136 -111.5t154 -42q104 0 171.5 65.5t67.5 177.5q0 111 -71.5 182.5t-249.5 176.5q-102 59 -149.5 91t-115 92.5t-96 129t-28.5 154.5q0 178 126 283.5t314 105.5q168 0 381 -82l41 -369h-14 q-76 158 -187.5 277t-236.5 119q-86 0 -149.5 -58.5t-63.5 -165.5q0 -98 62.5 -157.5t250.5 -167.5q92 -53 135 -81t107.5 -77t93.5 -91t51.5 -105.5t22.5 -137.5q0 -209 -137.5 -315.5t-321.5 -106.5zM582 -68q55 0 94 -34.5t39 -98.5q0 -76 -60.5 -160.5t-179.5 -132.5 l-8 17q106 88 137 194h-20q-55 0 -95 31t-40 76t40 76.5t93 31.5z" glyph-name="Scommaaccent" horiz-adv-x="1142" unicode="Ș"/><glyph d="M453 -25q-162 0 -357 80l-28 287l12 4q215 -326 379 -326q61 0 100 40t39 102q0 76 -58.5 125t-181.5 110q-70 35 -102.5 54.5t-86.5 62.5t-78.5 97.5t-24.5 121.5q0 135 98 207t235 72q135 0 312 -64l22 -268l-12 -2q-184 287 -336 287q-53 0 -89 -37t-36 -99 q0 -41 16.5 -73.5t56.5 -61t71.5 -45t99.5 -49.5q141 -66 219 -144.5t78 -195.5q0 -129 -95 -207t-253 -78zM438 -68q55 0 94 -34.5t39 -98.5q0 -76 -60 -160.5t-179 -132.5l-8 17q106 88 137 194h-21q-55 0 -95 31t-40 76t40 76.5t93 31.5z" glyph-name="scommaaccent" horiz-adv-x="858" unicode="ș"/><glyph d="M1262 1464l36 -374h-14q-43 129 -142.5 223t-248.5 94h-74v-1149q0 -125 27.5 -163t142.5 -81v-14h-620v14q115 43 142.5 81t27.5 163v1149h-80q-147 0 -247.5 -93t-145.5 -224h-13l37 374h1172zM682 -61q55 0 94 -35t39 -99q0 -76 -60.5 -160.5t-179.5 -131.5l-8 16 q106 88 138 195h-21q-55 0 -95 30.5t-40 75.5t40 77t93 32z" glyph-name="uni021A" horiz-adv-x="1347" unicode="Ț"/><glyph d="M387 -18q-109 0 -183.5 70.5t-74.5 205.5v670h-100v28q250 164 323 295h23v-266h268l-8 -57h-258l-4 -631q-2 -106 43 -152.5t108 -46.5q74 0 144 72l8 -10q-113 -178 -289 -178zM344 -68q55 0 94 -34.5t39 -98.5q0 -76 -60.5 -160.5t-178.5 -132.5l-9 17q106 88 138 194 h-21q-55 0 -95 31t-40 76t40 76.5t93 31.5z" glyph-name="uni021B" horiz-adv-x="677" unicode="ț"/><glyph d="M-35 -428l-6 16q104 55 147.5 138.5t43.5 238.5v701q0 139 -26 181t-112 83v14q211 16 385 70v-910q0 -428 -432 -532z" glyph-name="uni0237" horiz-adv-x="534" unicode="ȷ"/><glyph d="M88 1116l-10 12q51 68 128 181.5t122 175.5h12q147 -221 252 -357l-12 -12l-246 162z" glyph-name="circumflex" horiz-adv-x="663" unicode="ˆ"/><glyph d="M88 1489l246 -162l246 162l12 -12q-113 -147 -252 -359h-12q-39 55 -119 172t-131 187z" glyph-name="caron" horiz-adv-x="663" unicode="ˇ"/><glyph d="M565 1460h19q-31 -334 -252 -334q-223 0 -254 334h18q25 -86 92.5 -135t143.5 -49q74 0 141 49t92 135z" glyph-name="breve" horiz-adv-x="657" unicode="˘"/><glyph d="M221.5 1155q-57.5 0 -100.5 41t-43 96q0 53 43 94t100.5 41t99 -40.5t41.5 -94.5q0 -55 -41.5 -96t-99 -41z" glyph-name="dotaccent" horiz-adv-x="436" unicode="˙"/><glyph d="M264 1085q-78 0 -132 56.5t-54 134.5q0 80 54 135t132 55q76 0 131.5 -55t55.5 -135q0 -78 -54.5 -134.5t-132.5 -56.5zM270.5 1137q51.5 0 84 43t32.5 98q0 57 -38 98t-89 41t-85 -40t-34 -97q0 -55 39 -99t90.5 -44z" glyph-name="ring" horiz-adv-x="524" unicode="˚"/><glyph d="M240 -389q-72 0 -117 35t-45 92q0 86 99 166t247 137v-14q-61 -37 -115.5 -104.5t-54.5 -129.5q0 -41 25.5 -62.5t62.5 -21.5q78 0 145 62l13 -11q-39 -68 -110.5 -108.5t-149.5 -40.5z" glyph-name="ogonek" horiz-adv-x="571" unicode="˛"/><glyph d="M670 1393l18 -4q-35 -197 -194 -197q-49 0 -142 31q-104 35 -137 34q-68 0 -121 -59l-16 4q23 113 73 156t152 43q14 0 110.5 -33t123.5 -33q53 0 74.5 10.5t58.5 47.5z" glyph-name="tilde" horiz-adv-x="761" unicode="˜"/><glyph d="M457 1139h-19q23 145 41 327h256q-163 -200 -278 -327zM94 1137h-18q23 145 41 327h256q-140 -171 -279 -327z" glyph-name="hungarumlaut" horiz-adv-x="804" unicode="˝"/><glyph d="M1229 1561h-21q-131 139 -290 329h266q25 -212 45 -329zM1741 1464h446v-14q-109 -61 -149.5 -116.5t-81.5 -170.5l-416 -1165h-86l-360 987l-355 -987h-84l-473 1292q-20 57 -51 89t-119 71v14h621v-14q-92 -33 -127 -60.5t-35 -60.5q0 -18 12 -55l322 -922l252 733 l-76 207q-20 57 -50 88t-122 70v14h618v-14q-86 -35 -118.5 -63.5t-32.5 -69.5q0 -33 31 -119l297 -846l274 809q33 94 33 137q0 45 -37 78t-133 74v14z" glyph-name="Wgrave" horiz-adv-x="2193" unicode="Ẁ"/><glyph d="M940 1133h-20q-102 106 -291 327h266q18 -167 45 -327zM1327 985h344v-14q-59 -39 -96 -75t-50.5 -58.5t-29.5 -63.5l-321 -776h-68l-268 631l-263 -631h-67l-356 833q-33 76 -148 140v14h524v-14q-68 -25 -95 -49.5t-27 -57.5q0 -25 16 -67q2 -6 12 -32t62.5 -149.5 t144.5 -336.5l168 415l-59 142q-35 82 -148 135v14h524v-14q-68 -25 -96.5 -47.5t-28.5 -57.5q0 -25 17 -63q39 -98 221 -522q129 324 195 493q14 35 14 64q0 37 -26.5 64.5t-94.5 68.5v14z" glyph-name="wgrave" horiz-adv-x="1671" unicode="ẁ"/><glyph d="M1354 1888q-172 -201 -291 -327h-21q25 162 45 327h267zM1741 1464h446v-14q-109 -61 -149.5 -116.5t-81.5 -170.5l-416 -1165h-86l-360 987l-355 -987h-84l-473 1292q-20 57 -51 89t-119 71v14h621v-14q-92 -33 -127 -60.5t-35 -60.5q0 -18 12 -55l322 -922l252 733 l-76 207q-20 57 -50 88t-122 70v14h618v-14q-86 -35 -118.5 -63.5t-32.5 -69.5q0 -33 31 -119l297 -846l274 809q33 94 33 137q0 45 -37 78t-133 74v14z" glyph-name="Wacute" horiz-adv-x="2193" unicode="Ẃ"/><glyph d="M1092 1460q-174 -203 -293 -327h-19q29 178 43 327h269zM1327 985h344v-14q-59 -39 -96 -75t-50.5 -58.5t-29.5 -63.5l-321 -776h-68l-268 631l-263 -631h-67l-356 833q-33 76 -148 140v14h524v-14q-68 -25 -95 -49.5t-27 -57.5q0 -25 16 -67q2 -6 12 -32t62.5 -149.5 t144.5 -336.5l168 415l-59 142q-35 82 -148 135v14h524v-14q-68 -25 -96.5 -47.5t-28.5 -57.5q0 -25 17 -63q39 -98 221 -522q129 324 195 493q14 35 14 64q0 37 -26.5 64.5t-94.5 68.5v14z" glyph-name="wacute" horiz-adv-x="1671" unicode="ẃ"/><glyph d="M936 1554q-53 0 -91 38t-38 91.5t38 91t91 37.5q51 0 90 -37.5t39 -91t-39 -91.5t-90 -38zM1337 1556q-51 0 -89 37t-38 90.5t37 91t90.5 37.5t91 -37.5t37.5 -91t-38 -90.5t-91 -37zM1741 1464h446v-14q-109 -61 -149.5 -116.5t-81.5 -170.5l-416 -1165h-86l-360 987 l-355 -987h-84l-473 1292q-20 57 -51 89t-119 71v14h621v-14q-92 -33 -127 -60.5t-35 -60.5q0 -18 12 -55l322 -922l252 733l-76 207q-20 57 -50 88t-122 70v14h618v-14q-86 -35 -118.5 -63.5t-32.5 -69.5q0 -33 31 -119l297 -846l274 809q33 94 33 137q0 45 -37 78t-133 74 v14z" glyph-name="Wdieresis" horiz-adv-x="2193" unicode="Ẅ"/><glyph d="M680 1159q-51 0 -88 38t-37 89t37 88t88 37t89 -37t38 -88t-38 -89t-89 -38zM1032 1159q-51 0 -88 38t-37 89t37 88t88 37t89 -37t38 -88q0 -53 -37 -90t-90 -37zM1327 985h344v-14q-59 -39 -96 -75t-50.5 -58.5t-29.5 -63.5l-321 -776h-68l-268 631l-263 -631h-67 l-356 833q-33 76 -148 140v14h524v-14q-68 -25 -95 -49.5t-27 -57.5q0 -25 16 -67q2 -6 12 -32t62.5 -149.5t144.5 -336.5l168 415l-59 142q-35 82 -148 135v14h524v-14q-68 -25 -96.5 -47.5t-28.5 -57.5q0 -25 17 -63q39 -98 221 -522q129 324 195 493q14 35 14 64 q0 37 -26.5 64.5t-94.5 68.5v14z" glyph-name="wdieresis" horiz-adv-x="1671" unicode="ẅ"/><glyph d="M780 1559q-51 0 -90 37.5t-39 91t39 91.5t90 38q53 0 91 -38t38 -91.5t-38 -91t-91 -37.5zM1245 201q47 -74 89 -113t128 -74v-14h-655v14q72 31 104.5 58.5t32.5 64.5q0 33 -29 78l-264 420l-262 -367q-53 -74 -53 -127q0 -74 127 -127v-14h-438v14q152 72 286 254 l307 418l-366 578q-45 72 -87 111.5t-128 74.5v14h653v-14q-143 -53 -143 -117q0 -29 33 -82l239 -381l240 338q43 61 43 107q0 74 -121 135v14h432v-14q-145 -63 -283 -248l-280 -381z" glyph-name="uni1E8A" horiz-adv-x="1480" unicode="Ẋ"/><glyph d="M557 1149q-57 0 -100 41t-43 96q0 53 43 94t100 41t100 -41t43 -94q0 -55 -43 -96t-100 -41zM948 131q43 -61 142 -117v-14h-551v14q133 39 133 82q0 14 -23 47l-180 273l-176 -234q-25 -35 -25 -63q0 -66 113 -105v-14h-365v14q70 37 115 71t96 99l213 273l-274 397 q-59 88 -141 117v14h548v-14q-129 -35 -129 -82q0 -25 39 -82l148 -219l157 215q27 37 27 63q0 51 -110 105v14h354v-14q-125 -61 -213 -178l-187 -248z" glyph-name="uni1E8B" unicode="ẋ"/><glyph d="M858 1561h-20q-131 139 -291 329h266q25 -212 45 -329zM1010 1464h407v-14q-61 -29 -111.5 -78t-68.5 -75.5t-57 -90.5l-322 -534v-414q0 -125 27.5 -163t142.5 -81v-14h-620v14q115 43 142.5 81t27.5 163v399l-392 639q-31 53 -64.5 84t-109.5 70v14h621v-14 q-82 -43 -111.5 -65.5t-29.5 -51.5q0 -33 47 -110l295 -482l272 465q37 63 37 105q0 74 -133 139v14z" glyph-name="Ygrave" horiz-adv-x="1425" unicode="Ỳ"/><glyph d="M659 1133h-20q-102 106 -291 327h266q18 -167 45 -327zM745 985h349v-14q-76 -43 -112 -85t-69 -126q-285 -707 -340 -813q-80 -154 -139 -229.5t-164 -149.5l-133 174l4 12q113 -4 217.5 39t153.5 146l31 63l-387 825q-23 47 -55.5 81t-96.5 63v14h547v-14 q-119 -53 -119 -113q0 -27 21 -72l219 -489q98 231 188 477q12 31 12 57q0 76 -127 140v14z" glyph-name="ygrave" horiz-adv-x="1093" unicode="ỳ"/><glyph d="M907 563v-59h-829v59h829z" glyph-name="endash" horiz-adv-x="980" unicode="–"/><glyph d="M1739 563v-59h-1661v59h1661z" glyph-name="emdash" horiz-adv-x="1812" unicode="—"/><glyph d="M188 1227q55 0 93 -36t38 -89q0 -55 -37.5 -92t-91.5 -37q-55 0 -94 41t-39 119q0 92 59.5 195.5t178.5 158.5l6 -14q-100 -115 -129 -246h16z" glyph-name="quoteleft" horiz-adv-x="372" unicode="‘"/><glyph d="M186 1489q55 0 94 -41t39 -119q0 -92 -59 -195.5t-176 -160.5l-8 16q98 113 129 244h-17q-55 0 -93 37t-38 90t38 91t91 38z" glyph-name="quoteright" horiz-adv-x="372" unicode="’"/><glyph d="M246 274q59 0 101 -45t42 -131q0 -102 -64.5 -214.5t-193.5 -178.5l-8 16q119 137 147 277h-20q-59 0 -101.5 40t-42.5 97.5t42.5 98t97.5 40.5z" glyph-name="quotesinglbase" horiz-adv-x="491" unicode="‚"/><glyph d="M188 1227q55 0 93 -36t38 -89q0 -55 -37.5 -92t-91.5 -37q-55 0 -94 41t-39 119q0 92 59.5 195.5t178.5 158.5l6 -14q-100 -115 -129 -246h16zM530 1227q55 0 93.5 -36t38.5 -89q0 -55 -38 -92t-92 -37q-55 0 -94 41t-39 119q0 92 59.5 195.5t176.5 158.5l8 -14 q-100 -115 -129 -246h16z" glyph-name="quotedblleft" horiz-adv-x="714" unicode="“"/><glyph d="M186 1489q55 0 94 -41t39 -119q0 -92 -59 -195.5t-176 -160.5l-8 16q98 113 129 244h-17q-55 0 -93 37t-38 90t38 91t91 38zM528 1489q55 0 94.5 -41t39.5 -119q0 -92 -59.5 -195.5t-178.5 -160.5l-6 16q98 113 129 244h-17q-55 0 -93 37t-38 90t38 91t91 38z" glyph-name="quotedblright" horiz-adv-x="714" unicode="”"/><glyph d="M246 274q59 0 101 -45t42 -131q0 -102 -64.5 -214.5t-193.5 -178.5l-8 16q119 137 147 277h-20q-59 0 -101.5 40t-42.5 97.5t42.5 98t97.5 40.5zM606 274q59 0 101.5 -45t42.5 -131q0 -102 -64.5 -214.5t-193.5 -178.5l-9 16q119 137 148 277h-21q-59 0 -101 40t-42 97.5 t41 98t98 40.5z" glyph-name="quotedblbase" horiz-adv-x="851" unicode="„"/><glyph d="M668 1204v-43h-246v-575h-41v575h-246v43h246v260h41v-260h246z" glyph-name="dagger" horiz-adv-x="796" unicode="†"/><glyph d="M668 1161h-246v-237h246v-43h-246v-295h-41v295h-246v43h246v237h-246v43h246v260h41v-260h246v-43z" glyph-name="daggerdbl" horiz-adv-x="796" unicode="‡"/><glyph d="M391 289q-123 0 -214 91t-91 214q0 121 91 213t214 92t214 -92t91 -213q0 -123 -91 -214t-214 -91z" glyph-name="bullet" horiz-adv-x="776" unicode="•"/><glyph d="M252 -14q-59 0 -102.5 42t-43.5 101t43.5 102t102.5 43t101 -43t42 -102t-42 -101t-101 -42zM702.5 -14q-59.5 0 -101.5 42t-42 101t42 102t101.5 43t102.5 -43t43 -102q0 -57 -43 -100t-102.5 -43zM1155 -14q-59 0 -102 42t-43 101t43 102t102 43t101 -43t42 -102 t-43 -101t-100 -42z" glyph-name="ellipsis" horiz-adv-x="1400" unicode="…"/><glyph d="M457 -29l-43 27l997 1501l41 -31zM446 539q-174 0 -281.5 130t-107.5 322q0 195 107.5 333t288.5 138q174 0 281.5 -130t107.5 -324q0 -193 -108 -331t-288 -138zM475 578q78 0 130 86t52 249q0 115 -23.5 227.5t-78.5 197.5t-131 85q-78 0 -131 -86t-53 -250 q0 -115 24.5 -227t79.5 -197t131 -85zM1427 913q174 0 281 -129t107 -323q0 -193 -108 -332t-288 -139q-174 0 -281.5 131t-107.5 325q0 193 107.5 330t289.5 137zM2314 913q176 0 282.5 -130t106.5 -322.5t-107.5 -331.5t-287.5 -139q-174 0 -281.5 130t-107.5 326 q0 193 107.5 330t287.5 137zM1397 874q-78 0 -130.5 -86t-52.5 -249q0 -115 24 -226.5t79 -196.5t131 -85q78 0 131 86t53 250q0 115 -23.5 226.5t-79.5 196t-132 84.5zM2286 874q-80 0 -132.5 -86t-52.5 -249q0 -186 62.5 -347t173.5 -161q78 0 131 86t53 250 q0 115 -24.5 226.5t-79.5 196t-131 84.5z" glyph-name="perthousand" horiz-adv-x="2756" unicode="‰"/><glyph d="M610 938q-123 -217 -278 -424q156 -207 278 -424h-43q-219 207 -481 414v20q262 209 481 414h43z" glyph-name="guilsinglleft" horiz-adv-x="692" unicode="‹"/><glyph d="M86 938h43q217 -205 481 -414v-20q-264 -207 -481 -414h-43q119 217 279 424q-160 207 -279 424z" glyph-name="guilsinglright" horiz-adv-x="692" unicode="›"/><glyph d="M-293 0l1008 1464h55l-1008 -1464h-55z" glyph-name="fraction" horiz-adv-x="389" unicode="⁄"/><glyph d="M909 31q102 0 218 113.5t208 267.5h15l-37 -367q-215 -72 -424 -72q-279 0 -449 184.5t-186 491.5h-193v51h191v15q0 88 12 164h-203v49h213q53 250 224.5 393t402.5 143q170 0 412 -71l37 -361h-13q-96 156 -212.5 267.5t-225.5 111.5q-117 0 -212 -127t-124 -356h576 l-9 -49h-573q-6 -74 -6 -156v-23h524l-8 -51h-514q12 -295 118.5 -456.5t237.5 -161.5z" glyph-name="Euro" horiz-adv-x="1476" unicode="€"/><glyph d="M664 1464l18 -204h-6q-25 68 -75 120t-120 52h-32v-572q0 -59 11 -78.5t66 -42.5v-8h-317v8q55 23 68.5 43.5t13.5 77.5v572h-37q-70 0 -120 -52.5t-75 -119.5h-6l19 204h592zM1618 1456q-55 -23 -66.5 -43t-11.5 -76v-477q0 -59 12.5 -77.5t65.5 -43.5v-6h-315v6 q55 23 67 44.5t12 76.5v469h-2q-203 -391 -245 -485h-21q-102 203 -264 479v-377q0 -106 15.5 -142t84.5 -65v-8h-233v8q72 31 86 66t14 141v424q-29 49 -100 86v8h237q129 -223 230 -426l227 426h207v-8z" glyph-name="trademark" horiz-adv-x="1667" unicode="™"/><glyph d="M63 612v9q63 27 79 50t16 95v502q0 47 -23.5 69.5t-91.5 46.5v9l293 104v-731q0 -72 15.5 -95.5t80.5 -49.5v-9h-369zM213 0l1008 1464h55l-1008 -1464h-55zM1247 -14q-123 0 -209 62.5t-86 168.5q0 82 53.5 138.5t137.5 78.5q-158 86 -158 223q0 102 78 162t192 60 q111 0 186 -54.5t75 -134.5q0 -68 -57.5 -118t-119.5 -70q41 -20 67 -36.5t64.5 -49.5t59 -79t20.5 -101q0 -115 -88 -182.5t-215 -67.5zM1317 516q82 72 82 176q0 68 -40 111t-99 43q-57 0 -92 -37t-35 -96q0 -61 44 -103.5t140 -93.5zM1251 18q66 0 107 42t41 108 q0 70 -56.5 127t-177.5 125q-88 -68 -88 -195q0 -96 48 -151.5t126 -55.5z" glyph-name="oneeighth" horiz-adv-x="1626" unicode="⅛"/><glyph d="M45 1305q129 184 305 184q88 0 144.5 -47t56.5 -119q0 -141 -217 -219v-2q25 6 51 6q90 0 156.5 -61.5t66.5 -169.5q0 -129 -93 -204t-222 -75q-117 0 -256 51l72 176l10 -2q78 -190 186 -190q59 0 100 59.5t41 147.5q0 90 -44 147t-121 57q-47 0 -105 -24l-8 24 q231 111 231 236q0 57 -35.5 86t-93.5 29q-119 0 -209 -105zM330 0l1007 1464h56l-1008 -1464h-55zM1364 -14q-123 0 -209 62.5t-86 168.5q0 82 53.5 138.5t137.5 78.5q-158 86 -158 223q0 102 77.5 162t192.5 60q111 0 185.5 -54.5t74.5 -134.5q0 -68 -57 -118t-119 -70 q41 -20 66.5 -36.5t64.5 -49.5t59.5 -79t20.5 -101q0 -115 -88 -182.5t-215 -67.5zM1434 516q82 72 82 176q0 68 -40 111t-100 43q-57 0 -92 -37t-35 -96q0 -61 44.5 -103.5t140.5 -93.5zM1368 18q66 0 107 42t41 108q0 70 -56.5 127t-177.5 125q-88 -68 -88 -195 q0 -96 48 -151.5t126 -55.5z" glyph-name="threeeighths" horiz-adv-x="1740" unicode="⅜"/><glyph d="M305 1147q131 0 215 -71.5t84 -194.5q0 -137 -97 -211t-218 -74q-113 0 -254 55l61 205h8q31 -92 79 -160.5t108 -68.5q55 0 101 60.5t46 160.5q0 106 -54 158.5t-138 52.5q-90 0 -174 -49l114 465h277q61 0 90 14t68 57l6 -2l-80 -219h-361l-47 -207q68 29 166 29z M348 0l1008 1464h55l-1008 -1464h-55zM1380 -14q-123 0 -209 62.5t-86 168.5q0 82 53.5 138.5t137.5 78.5q-158 86 -158 223q0 102 78 162t193 60q111 0 185.5 -54.5t74.5 -134.5q0 -68 -57.5 -118t-118.5 -70q41 -20 66.5 -36.5t64 -49.5t59 -79t20.5 -101 q0 -115 -88 -182.5t-215 -67.5zM1450 516q82 72 82 176q0 68 -40 111t-99 43q-57 0 -92 -37t-35 -96q0 -61 44 -103.5t140 -93.5zM1384 18q66 0 107 42t41 108q0 70 -56.5 127t-177.5 125q-88 -68 -88 -195q0 -96 48 -151.5t126 -55.5z" glyph-name="fiveeighths" horiz-adv-x="1759" unicode="⅝"/><glyph d="M135 612q70 356 346 697h-286q-70 0 -101 -18.5t-71 -73.5l-9 2l72 256h537v-27q-162 -186 -227.5 -373.5t-100.5 -462.5h-160zM197 0l1007 1464h56l-1008 -1464h-55zM1231 -14q-123 0 -209 62.5t-86 168.5q0 82 53 138.5t137 78.5q-158 86 -157 223q0 102 77.5 162 t192.5 60q111 0 185.5 -54.5t74.5 -134.5q0 -68 -57.5 -118t-118.5 -70q41 -20 66.5 -36.5t64.5 -49.5t59.5 -79t20.5 -101q0 -115 -88 -182.5t-215 -67.5zM1300 516q82 72 82 176q0 68 -39.5 111t-99.5 43q-57 0 -92 -37t-35 -96q0 -61 44 -103.5t140 -93.5zM1235 18 q66 0 106.5 42t40.5 108q0 70 -56 127t-177 125q-88 -68 -88 -195q0 -96 48 -151.5t126 -55.5z" glyph-name="seveneighths" horiz-adv-x="1609" unicode="⅞"/><glyph d="M1118 565v-61h-897q135 -57 261 -156.5t180 -189.5l-218 -70q-100 250 -378 447q279 197 378 446l218 -70q-53 -90 -179.5 -189t-261.5 -157h897z" glyph-name="arrowleft" horiz-adv-x="1179" unicode="←"/><glyph d="M512 1061q195 -283 449 -381l-72 -217q-90 53 -189.5 180t-156.5 262v-899h-62v899q-57 -135 -156.5 -262t-189.5 -180l-69 217q251 100 446 381z" glyph-name="arrowup" horiz-adv-x="1019" unicode="↑"/><glyph d="M739 981q100 -250 379 -446q-279 -197 -379 -447l-217 70q53 90 179 189t264 157h-899v61h899q-137 57 -263.5 156.5t-179.5 189.5z" glyph-name="arrowright" horiz-adv-x="1179" unicode="→"/><glyph d="M889 604l72 -217q-254 -98 -449 -381q-195 281 -446 381l69 217q90 -53 189.5 -180t156.5 -262v899h62v-899q57 135 156.5 262t189.5 180z" glyph-name="arrowdown" horiz-adv-x="1019" unicode="↓"/><glyph d="M879 188l-43 -43l-637 639q84 -207 84 -424q0 -82 -15 -137l-205 105q70 158 70 354q0 113 -20 229q117 -20 229 -20q197 0 354 70l105 -205q-51 -14 -135 -15q-219 0 -420 82z" glyph-name="uni2196" horiz-adv-x="940" unicode="↖"/><glyph d="M831 915q-23 -131 -22 -231q0 -193 70 -354l-203 -105q-14 55 -14 137q0 221 81 422l-634 -637l-43 43l634 637q-201 -82 -419 -82q-82 0 -138 15l105 203q158 -70 352 -70q100 -1 231 22z" glyph-name="uni2197" horiz-adv-x="940" unicode="↗"/><glyph d="M879 741q-70 -162 -70 -354q0 -100 22 -231q-131 23 -231 22q-193 0 -354 -69l-105 202q55 14 138 15q221 0 421 -82l-637 637l43 43l637 -637q-82 201 -81 422q0 82 14 137z" glyph-name="uni2198" horiz-adv-x="940" unicode="↘"/><glyph d="M244 256q201 82 420 82q82 0 137 -14l-105 -203q-158 70 -352 69q-100 0 -231 -22q20 117 20 229q0 197 -70 355l205 104q14 -55 15 -137q0 -219 -82 -420l635 635l43 -43z" glyph-name="uni2199" horiz-adv-x="940" unicode="↙"/><glyph d="M764 715v-56h-727v56h727z" glyph-name="minus" horiz-adv-x="794" unicode="−"/><glyph d="M264 1561h-20q25 162 45 327h266q-172 -200 -291 -327zM41 -268l-6 20q168 98 168 293v1161q0 125 -28 163t-142 81v14h620v-14q-115 -43 -142.5 -81t-27.5 -163v-987q0 -117 -38.5 -206t-109.5 -143t-138.5 -84.5t-155.5 -53.5z" glyph-name="J.aalt" horiz-adv-x="675"/><glyph d="M1241 190q57 -86 174 -176v-14h-373q-250 381 -442 713l-113 -6v-449q0 -127 28 -164t140 -80v-14h-618v14q115 43 142.5 81t27.5 163v948q0 125 -27.5 163t-142.5 81v14h637q250 0 400.5 -95t150.5 -259q0 -160 -137.5 -271.5t-348.5 -111.5h-67v-6q92 -53 225 -53 q12 0 41 4q113 -203 303 -482zM487 1407v-641h164q129 0 212 86t83 246q0 309 -319 309h-140z" glyph-name="R.aalt" horiz-adv-x="1433"/><glyph d="M256 1155q-57 0 -100 41t-43 96q0 53 43 94t100 41t100 -40.5t43 -94.5q0 -55 -43 -96t-100 -41zM20 0v14q88 37 113 75t25 153v424q0 139 -26 181t-112 83v14q215 16 386 70v-772q0 -115 24.5 -153t110.5 -75v-14h-521z" glyph-name="i.aalt" horiz-adv-x="557"/><glyph d="M193 1137h-19q29 178 43 327h268q-173 -202 -292 -327zM-35 -428l-6 16q104 55 147.5 138.5t43.5 238.5v701q0 139 -26 181t-112 83v14q211 16 385 70v-910q0 -428 -432 -532z" glyph-name="j.aalt" horiz-adv-x="534"/><glyph d="M956 -27q-172 0 -358 74l68 318h10q55 -135 133 -235.5t162 -100.5q80 0 144.5 80.5t64.5 207.5t-74 223.5t-170 142.5t-209 67l-53 84l362 483q-115 115 -280 115q-123 0 -196 -80t-73 -205v-1147h-450v14q115 43 142.5 81t27.5 163v735q0 242 133 370t387 128 q172 0 302 -52.5t202 -119.5v-21l-311 -389q90 -20 170.5 -58t155.5 -98.5t119 -152.5t44 -205q0 -197 -127 -309.5t-326 -112.5z" glyph-name="germandbls.aalt" horiz-adv-x="1480"/><glyph d="M446 -20q-162 0 -277.5 135t-115.5 366q0 242 124 385.5t300 143.5q86 0 158 -37t120 -74t79 -37q61 0 145 148h29v-813q0 -63 25.5 -88t109.5 -56v-12l-377 -66v189h-2q-49 -78 -133.5 -131t-184.5 -53zM545 74q113 0 215 141v428q-39 127 -105.5 217t-154.5 90 q-98 0 -144.5 -113.5t-46.5 -287.5q0 -211 63.5 -343t172.5 -132z" glyph-name="a.salt" horiz-adv-x="1159"/><glyph d="M539 1133h-19q29 178 43 327h268q-173 -202 -292 -327zM446 -20q-162 0 -277.5 135t-115.5 366q0 242 124 385.5t300 143.5q86 0 158 -37t120 -74t79 -37q61 0 145 148h29v-813q0 -63 25.5 -88t109.5 -56v-12l-377 -66v189h-2q-49 -78 -133.5 -131t-184.5 -53zM545 74 q113 0 215 141v428q-39 127 -105.5 217t-154.5 90q-98 0 -144.5 -113.5t-46.5 -287.5q0 -211 63.5 -343t172.5 -132z" glyph-name="aacute.aalt" horiz-adv-x="1159"/><glyph d="M829 1456h19q-31 -334 -252 -334q-223 0 -254 334h18q25 -86 92.5 -135t143.5 -49q74 0 141 49t92 135zM446 -20q-162 0 -277.5 135t-115.5 366q0 242 124 385.5t300 143.5q86 0 158 -37t120 -74t79 -37q61 0 145 148h29v-813q0 -63 25.5 -88t109.5 -56v-12l-377 -66v189 h-2q-49 -78 -133.5 -131t-184.5 -53zM545 74q113 0 215 141v428q-39 127 -105.5 217t-154.5 90q-98 0 -144.5 -113.5t-46.5 -287.5q0 -211 63.5 -343t172.5 -132z" glyph-name="abreve.aalt" horiz-adv-x="1159"/><glyph d="M350 1112l-12 12q51 68 131 183.5t121 173.5h12q147 -221 250 -357l-12 -12l-244 162zM446 -20q-162 0 -277.5 135t-115.5 366q0 242 124 385.5t300 143.5q86 0 158 -37t120 -74t79 -37q61 0 145 148h29v-813q0 -63 25.5 -88t109.5 -56v-12l-377 -66v189h-2 q-49 -78 -133.5 -131t-184.5 -53zM545 74q113 0 215 141v428q-39 127 -105.5 217t-154.5 90q-98 0 -144.5 -113.5t-46.5 -287.5q0 -211 63.5 -343t172.5 -132z" glyph-name="acircumflex.aalt" horiz-adv-x="1159"/><glyph d="M420 1159q-51 0 -88 38t-37 89t37 88t88 37t89 -37t38 -88t-38 -89t-89 -38zM772 1159q-51 0 -88 38t-37 89t37 88t88 37t89 -37t38 -88q0 -53 -38 -90t-89 -37zM446 -20q-162 0 -277.5 135t-115.5 366q0 242 124 385.5t300 143.5q86 0 158 -37t120 -74t79 -37 q61 0 145 148h29v-813q0 -63 25.5 -88t109.5 -56v-12l-377 -66v189h-2q-49 -78 -133.5 -131t-184.5 -53zM545 74q113 0 215 141v428q-39 127 -105.5 217t-154.5 90q-98 0 -144.5 -113.5t-46.5 -287.5q0 -211 63.5 -343t172.5 -132z" glyph-name="adieresis.aalt" horiz-adv-x="1159"/><glyph d="M659 1133q-102 106 -290 327h266q18 -168 45 -327h-21zM446 -20q-162 0 -277.5 135t-115.5 366q0 242 124 385.5t300 143.5q86 0 158 -37t120 -74t79 -37q61 0 145 148h29v-813q0 -63 25.5 -88t109.5 -56v-12l-377 -66v189h-2q-49 -78 -133.5 -131t-184.5 -53zM545 74 q113 0 215 141v428q-39 127 -105.5 217t-154.5 90q-98 0 -144.5 -113.5t-46.5 -287.5q0 -211 63.5 -343t172.5 -132z" glyph-name="agrave.aalt" horiz-adv-x="1159"/><glyph d="M864 1335v-135h-522v135h522zM446 -20q-162 0 -277.5 135t-115.5 366q0 242 124 385.5t300 143.5q86 0 158 -37t120 -74t79 -37q61 0 145 148h29v-813q0 -63 25.5 -88t109.5 -56v-12l-377 -66v189h-2q-49 -78 -133.5 -131t-184.5 -53zM545 74q113 0 215 141v428 q-39 127 -105.5 217t-154.5 90q-98 0 -144.5 -113.5t-46.5 -287.5q0 -211 63.5 -343t172.5 -132z" glyph-name="amacron.aalt" horiz-adv-x="1159"/><glyph d="M938 6q-131 -106 -131 -207q0 -41 25.5 -62.5t62.5 -21.5q78 0 143 62l15 -10q-39 -68 -112 -109t-148 -41q-72 0 -118 35t-46 94q0 127 223 244l-86 -15v189h-2q-49 -78 -133 -131t-185 -53q-162 0 -277.5 135t-115.5 366q0 242 124 385.5t300 143.5q86 0 158 -37 t120 -74t79 -37q61 0 145 148h29v-813q0 -63 25.5 -88t109.5 -56v-12zM760 215v428q-39 127 -105.5 217t-154.5 90q-98 0 -144.5 -113.5t-46.5 -287.5q0 -211 63.5 -343t172.5 -132q113 0 215 141z" glyph-name="aogonek.aalt" horiz-adv-x="1159"/><glyph d="M598 1081q-78 0 -132 56.5t-54 134.5q0 80 54 135t132 55q76 0 131 -55t55 -135q0 -78 -54 -134.5t-132 -56.5zM604 1133q51 0 84 43t33 98q0 57 -38 98t-89 41t-85 -40t-34 -97q0 -55 39 -99t90 -44zM446 -20q-162 0 -277.5 135t-115.5 366q0 242 124 385.5t300 143.5 q86 0 158 -37t120 -74t79 -37q61 0 145 148h29v-813q0 -63 25.5 -88t109.5 -56v-12l-377 -66v189h-2q-49 -78 -133.5 -131t-184.5 -53zM545 74q113 0 215 141v428q-39 127 -105.5 217t-154.5 90q-98 0 -144.5 -113.5t-46.5 -287.5q0 -211 63.5 -343t172.5 -132z" glyph-name="aring.aalt" horiz-adv-x="1159"/><glyph d="M539 1507h-19q29 178 43 328h268q-173 -203 -292 -328zM598 1081q-78 0 -132 56.5t-54 134.5q0 80 54 135t132 55q76 0 131 -55t55 -135q0 -78 -54 -134.5t-132 -56.5zM604 1133q51 0 84 43t33 98q0 57 -38 98t-89 41t-85 -40t-34 -97q0 -55 39 -99t90 -44zM446 -20 q-162 0 -277.5 135t-115.5 366q0 242 124 385.5t300 143.5q86 0 158 -37t120 -74t79 -37q61 0 145 148h29v-813q0 -63 25.5 -88t109.5 -56v-12l-377 -66v189h-2q-49 -78 -133.5 -131t-184.5 -53zM545 74q113 0 215 141v428q-39 127 -105.5 217t-154.5 90 q-98 0 -144.5 -113.5t-46.5 -287.5q0 -211 63.5 -343t172.5 -132z" glyph-name="aringacute.aalt" horiz-adv-x="1159"/><glyph d="M889 1386l18 -4q-35 -197 -194 -196q-49 0 -142 31q-104 35 -137 34q-68 0 -121 -59l-16 4q23 113 73 156t152 43q14 0 110.5 -33t123.5 -33q53 0 74.5 10t58.5 47zM446 -20q-162 0 -277.5 135t-115.5 366q0 242 124 385.5t300 143.5q86 0 158 -37t120 -74t79 -37 q61 0 145 148h29v-813q0 -63 25.5 -88t109.5 -56v-12l-377 -66v189h-2q-49 -78 -133.5 -131t-184.5 -53zM545 74q113 0 215 141v428q-39 127 -105.5 217t-154.5 90q-98 0 -144.5 -113.5t-46.5 -287.5q0 -211 63.5 -343t172.5 -132z" glyph-name="atilde.aalt" horiz-adv-x="1159"/><glyph d="M582 1464q213 0 367.5 -206.5t154.5 -544.5q0 -334 -151.5 -537t-368.5 -203t-370 205t-153 539q0 340 155 543.5t366 203.5zM580 1413q-115 0 -191 -176t-76 -518q0 -137 13 -244q63 88 244.5 275.5t252.5 302.5q-31 178 -96 269t-147 91zM584 25q123 0 194.5 183 t71.5 507q0 145 -16 270q-66 -94 -248.5 -281.5t-249.5 -297.5q29 -190 95.5 -285.5t152.5 -95.5z" glyph-name="zero.zero" horiz-adv-x="1163"/><glyph d="M389 887q-135 0 -231.5 120.5t-96.5 321.5q0 205 98.5 328t229.5 123t229.5 -123t98.5 -328q0 -203 -96.5 -322.5t-231.5 -119.5zM391.5 920q65.5 0 104.5 107.5t39 303.5q0 207 -41 310.5t-107 103.5q-63 0 -102 -102.5t-39 -309.5q0 -211 40 -312t105.5 -101z" glyph-name="zero.superior" horiz-adv-x="778"/><glyph d="M63 901v8q61 27 78 50.5t17 95.5v504q0 45 -23.5 67.5t-91.5 48.5v6l293 105v-731q0 -70 15.5 -93.5t80.5 -52.5v-8h-369z" glyph-name="one.superior" horiz-adv-x="452"/><glyph d="M414 1053q66 0 98.5 18.5t75.5 73.5l8 -2l-76 -242h-514v29q195 197 283 332t88 241q0 78 -40 121t-99 43q-102 0 -197 -108l-18 8q49 88 126.5 150.5t169.5 62.5q88 0 154 -60.5t66 -160.5q0 -115 -89.5 -224.5t-285.5 -281.5h250z" glyph-name="two.superior" horiz-adv-x="616"/><glyph d="M45 1593q129 186 305 187q88 0 144.5 -47t56.5 -121q0 -143 -217 -217v-2q23 4 31 4q111 0 177 -60.5t66 -169.5q0 -131 -93 -205.5t-222 -74.5q-115 0 -256 53l72 174l10 -2q78 -190 186 -190q59 0 100 60t41 148q0 90 -44 146.5t-119 56.5q-49 0 -107 -24l-8 24 q231 111 231 238q0 55 -35.5 83.5t-93.5 28.5q-117 0 -209 -102z" glyph-name="three.superior" horiz-adv-x="669"/><glyph d="M680 1155h-117v-100q0 -72 15.5 -94.5t78.5 -51.5v-8h-352v8q66 29 80 52.5t14 93.5v100h-372v19l505 604h31v-553h129zM115 1225h284v350z" glyph-name="four.superior" horiz-adv-x="716"/><glyph d="M305 1436q131 0 215 -72t84 -197q0 -135 -97 -207.5t-220 -72.5q-111 0 -252 53l61 205h8q31 -92 79 -161t108 -69q55 0 101 60.5t46 161.5q0 106 -54 159.5t-136 53.5q-92 0 -176 -50l114 465h277q63 0 92 13.5t66 56.5l6 -2l-80 -219h-361l-47 -207q70 29 166 29z" glyph-name="five.superior" horiz-adv-x="688"/><glyph d="M428 1391q104 0 182 -62.5t78 -173.5q0 -119 -89 -193.5t-224 -74.5q-137 0 -225.5 82t-88.5 243q0 219 157 372t376 192l4 -17q-145 -61 -240.5 -178t-124.5 -268q82 78 195 78zM377 915q61 0 102 55.5t41 145.5q0 92 -41 152.5t-119 60.5q-76 0 -133 -61l-2 -15v-24 q0 -152 41 -233t111 -81z" glyph-name="six.superior" horiz-adv-x="749"/><glyph d="M135 901q68 354 346 698h-286q-68 0 -100 -18t-72 -76l-9 2l72 258h537v-26q-162 -188 -227.5 -376.5t-100.5 -461.5h-160z" glyph-name="seven.superior" horiz-adv-x="632"/><glyph d="M358 887q-125 0 -211 62.5t-86 168.5q0 82 53.5 138.5t137.5 78.5q-158 86 -158 224q0 100 77 160.5t194 60.5q113 0 186.5 -54.5t73.5 -132.5q0 -68 -57.5 -119t-118.5 -71q41 -20 66.5 -36.5t64 -49.5t59 -79t20.5 -101q0 -115 -87 -182.5t-214 -67.5zM426 1417 q82 76 82 170q0 74 -40 117t-99 43q-57 0 -92 -37t-35 -96q0 -61 44 -103.5t140 -93.5zM358 920q66 0 108 42t42 107q0 70 -56.5 127t-179.5 125q-86 -70 -86 -199q0 -94 48 -148t124 -54z" glyph-name="eight.superior" horiz-adv-x="718"/><glyph d="M350 1780q135 0 223.5 -82t88.5 -242q0 -221 -155 -373.5t-378 -193.5l-4 16q147 63 241.5 181t120.5 268q-78 -78 -192 -78q-106 0 -183 61.5t-77 171.5q0 119 89 195t226 76zM360.5 1337q77.5 0 135.5 62q2 20 2 61q0 131 -43 210t-113 79q-59 0 -100 -55.5t-41 -145.5 t41 -150.5t118.5 -60.5z" glyph-name="nine.superior" horiz-adv-x="696"/><glyph d="M362.5 1780q131.5 0 230.5 -123t99 -328q0 -203 -98 -322.5t-232 -119.5q-137 0 -232 121.5t-95 322.5q0 205 98 327t229.5 122zM360 1745q-68 0 -104.5 -108.5t-36.5 -297.5q0 -51 4 -120q31 39 131.5 142t141.5 167q-36 217 -136 217zM365 920q66 0 104.5 104t38.5 307 q0 78 -6 135q-33 -43 -132.5 -146t-140.5 -165q30 -235 136 -235z" glyph-name="zero.superior.zero" horiz-adv-x="724"/><glyph d="M563 -25q-223 0 -366.5 148.5t-143.5 361.5q0 215 144.5 370t365.5 155q219 0 360.5 -155t141.5 -370q0 -213 -140.5 -361.5t-361.5 -148.5zM561 25q178 0 312.5 121.5t134.5 338.5q0 219 -133.5 347.5t-311.5 128.5q-182 0 -317 -128t-135 -348q0 -217 136 -338.5 t314 -121.5z" glyph-name="zero.oldstyle" horiz-adv-x="1118"/><glyph d="M442 242q0 -115 25 -153t113 -75v-14h-506v14q86 37 110.5 75t24.5 153v460q0 86 -31 115t-141 47v15l405 135v-772z" glyph-name="one.oldstyle" horiz-adv-x="593"/><glyph d="M641 195q78 0 126 17t69.5 37.5t70.5 80.5l15 -4l-52 -172l-45 -154h-780v49q291 223 419 366.5t128 266.5q0 88 -58.5 138t-146.5 50q-121 0 -268 -141l-35 10q176 270 412 271q131 0 222 -74t91 -188q0 -123 -122 -252t-394 -301h348z" glyph-name="two.oldstyle" horiz-adv-x="952"/><glyph d="M49 735q199 274 463 275q137 0 224 -73t87 -187q0 -217 -325 -336v-2q35 6 69 6q137 0 241.5 -94.5t104.5 -264.5q0 -197 -144 -314.5t-339 -117.5q-182 0 -397 82l104 232l10 -2q135 -264 304 -265q104 0 174.5 96.5t70.5 235.5q0 141 -72.5 229.5t-197.5 88.5 q-80 0 -172 -39l-10 32q373 178 372 381q0 90 -56 135.5t-152 45.5q-186 0 -338 -162z" glyph-name="three.oldstyle" horiz-adv-x="954"/><glyph d="M1047 45h-193v-156q0 -111 23.5 -147.5t138.5 -79.5v-12h-539v12q109 43 135.5 78t26.5 149v156h-594v33l760 928h49v-856h211zM164 150h475v585z" glyph-name="four.oldstyle" horiz-adv-x="1105"/><glyph d="M453 475q195 0 323.5 -110.5t128.5 -301.5q0 -205 -146.5 -322.5t-340.5 -117.5q-172 0 -385 86l94 266h12q121 -309 287 -309q98 0 178 95.5t80 261.5q0 168 -85 249.5t-218 81.5q-152 0 -291 -80l174 711h418q100 0 144 23.5t106 97.5l10 -4l-119 -322h-551l-86 -352 q105 47 267 47z" glyph-name="five.oldstyle" horiz-adv-x="983"/><glyph d="M633 813q180 0 303 -107.5t123 -283.5q0 -190 -142.5 -319.5t-357.5 -129.5q-98 0 -184 30t-161 91.5t-118 169t-43 250.5q0 340 232.5 597t617.5 347l6 -26q-248 -113 -410.5 -311.5t-203.5 -448.5q137 141 338 141zM565 18q109 0 185.5 94.5t76.5 256.5 q0 152 -71.5 253t-210.5 101q-150 0 -260 -121q-4 -61 -4 -98q0 -207 75.5 -346.5t208.5 -139.5z" glyph-name="six.oldstyle" horiz-adv-x="1112"/><glyph d="M213 -354q115 580 553 1114h-457q-109 0 -160 -27.5t-116 -128.5l-13 4l107 377h827v-37q-250 -295 -359.5 -593t-160.5 -709h-221z" glyph-name="seven.oldstyle" horiz-adv-x="958"/><glyph d="M522 -27q-195 0 -332 103.5t-137 277.5q0 133 84 229.5t230 141.5q-262 131 -263 354q0 160 122 258.5t302 98.5q174 0 291 -89.5t117 -216.5q0 -113 -91 -199.5t-194 -123.5q68 -35 110 -61.5t104.5 -79t95 -124t32.5 -159.5q0 -178 -134 -294t-337 -116zM616 827 q152 121 152 299q0 113 -65.5 186.5t-172.5 73.5q-98 0 -159.5 -64.5t-61.5 -164.5q0 -102 71.5 -172t235.5 -158zM524 25q117 0 189.5 74.5t72.5 189.5q0 123 -95 217t-292 196q-166 -106 -166 -337q0 -156 81 -248t210 -92z" glyph-name="eight.oldstyle" horiz-adv-x="1044"/><glyph d="M528 1012q92 0 175 -28t153 -85t111 -157.5t41 -231.5q0 -313 -219.5 -555t-587.5 -326l-4 25q236 104 390 290.5t193 417.5q-135 -131 -323 -131q-170 0 -287 99.5t-117 263.5q0 176 135 297t340 121zM541 315q141 0 247 111q4 57 5 88q0 201 -75 328t-196 127 q-104 0 -177 -87t-73 -232.5t69 -240t200 -94.5z" glyph-name="nine.oldstyle" horiz-adv-x="1060"/><glyph d="M553 -27q-209 0 -356.5 205t-147.5 539q0 338 149.5 543.5t352.5 205.5q201 0 352.5 -203.5t151.5 -547.5q0 -338 -147.5 -540t-354.5 -202zM553 25q115 0 182.5 183t67.5 511q0 344 -73 520t-181 176q-106 0 -177 -176t-71 -520q0 -346 71.5 -520t180.5 -174z" glyph-name="zero.tnum"/><glyph d="M291 0v14q119 45 144.5 85t25.5 159v866q0 76 -40 112t-161 73v10l445 158v-1219q0 -119 25.5 -159t143.5 -85v-14h-583z" glyph-name="one.tnum"/><glyph d="M713 217q115 0 169 33t128 133l12 -4l-119 -379h-844v45q328 328 482.5 563.5t154.5 415.5q0 127 -66.5 203t-170.5 76q-86 0 -177.5 -54.5t-164.5 -140.5l-29 12q82 145 210 245.5t273 100.5q143 0 248 -99t105 -263q0 -184 -148.5 -380t-484.5 -507h422z" glyph-name="two.tnum"/><glyph d="M106 1169q211 295 488 295q141 0 235.5 -77.5t94.5 -202.5q0 -227 -344 -361v-2q33 8 73 8q154 0 259.5 -107.5t105.5 -283.5q0 -211 -151.5 -337t-356.5 -126q-193 0 -420 88l109 246l12 -4q137 -276 317 -276q111 0 185.5 102t74.5 254t-77.5 246t-208.5 94 q-84 0 -178 -41l-13 35q393 195 394 411q0 96 -60.5 145.5t-161.5 49.5q-195 0 -354 -174z" glyph-name="three.tnum"/><glyph d="M1069 426h-203v-168q0 -119 26 -159t144 -85v-14h-567v14q119 45 144.5 85t25.5 159v168h-625v37l801 997h51v-923h224zM141 537h498v639z" glyph-name="four.tnum"/><glyph d="M512 893q207 0 344 -120t137 -324q0 -221 -155.5 -348.5t-358.5 -127.5q-186 0 -407 97l98 280h14q127 -330 301 -330q104 0 188.5 103.5t84.5 282.5q0 180 -89 269t-231 89q-158 0 -305 -86l182 762h441q106 0 154 27.5t110 105.5l10 -4l-125 -344h-581l-88 -383 q116 51 276 51z" glyph-name="five.tnum"/><glyph d="M629 815q180 0 303 -107.5t123 -283.5q0 -190 -142.5 -320.5t-359.5 -130.5q-96 0 -183 30t-161 91.5t-118 169t-44 250.5q0 340 232.5 597t619.5 349l6 -26q-248 -111 -409.5 -310.5t-204.5 -449.5q137 141 338 141zM559 18q111 0 186.5 95.5t75.5 255.5 q0 152 -71.5 254t-208.5 102q-150 0 -260 -121q-4 -61 -5 -96q0 -215 78 -352.5t205 -137.5z" glyph-name="six.tnum"/><glyph d="M264 0q121 625 582 1202h-479q-115 0 -169.5 -30.5t-123.5 -135.5l-13 4l113 400h873v-37q-264 -319 -379 -638t-170 -765h-234z" glyph-name="seven.tnum"/><glyph d="M549 -27q-199 0 -339 106.5t-140 285.5q0 141 90 236t229 138q-264 139 -264 365q0 164 125 263t305 99q174 0 296 -91t122 -220q0 -115 -93.5 -204t-197.5 -126q70 -37 113 -63.5t106.5 -81.5t96 -128t32.5 -163q0 -182 -137 -299t-344 -117zM647 846q154 127 154 305 q0 115 -67.5 190.5t-174.5 75.5q-98 0 -162.5 -66.5t-64.5 -166.5q0 -104 73.5 -176t241.5 -162zM553 25q117 0 190.5 76.5t73.5 193.5q0 125 -96 221t-297 201q-74 -45 -121 -133t-47 -211q0 -160 82 -254t215 -94z" glyph-name="eight.tnum"/><glyph d="M551 1466q96 0 182 -29.5t160 -90t118 -168t44 -250.5q0 -342 -233.5 -599t-616.5 -349l-6 28q246 111 407.5 309.5t204.5 448.5q-137 -141 -338 -141q-178 0 -302 108.5t-124 284.5q0 188 143.5 318t360.5 130zM563 715q143 0 258 119q4 66 4 102q0 207 -76.5 346 t-207.5 139q-109 0 -184.5 -94t-75.5 -256q0 -152 71.5 -254t210.5 -102z" glyph-name="nine.tnum"/><glyph d="M551 1466q199 0 351.5 -203.5t152.5 -547.5q0 -336 -146.5 -539t-355.5 -203t-356.5 205t-147.5 539q0 338 149.5 543.5t352.5 205.5zM549 1415q-111 0 -179.5 -181t-68.5 -513q0 -123 10 -240q61 84 231.5 259t241.5 280q-29 197 -92 296t-143 99zM553 25 q115 0 182.5 182t67.5 508q0 121 -10 237q-59 -76 -232.5 -255t-241.5 -287q29 -193 91.5 -289t142.5 -96z" glyph-name="zero.tnum.zero"/><glyph d="M555 -25q-221 0 -365.5 149.5t-144.5 360.5q0 215 144.5 371t365.5 156q219 0 361.5 -156t142.5 -371q0 -211 -141.5 -360.5t-362.5 -149.5zM553 25q178 0 313 122.5t135 337.5q0 219 -133 348.5t-313 129.5q-182 0 -317.5 -129t-135.5 -349q0 -215 136.5 -337.5 t314.5 -122.5z" glyph-name="zero.tnum.oldstyle"/><glyph d="M696 242q0 -115 24.5 -153t113.5 -75v-14h-506v14q86 37 110.5 75t24.5 153v463q0 86 -31 114.5t-141 46.5v15l405 135v-774z" glyph-name="one.tnum.oldstyle"/><glyph d="M715 195q78 0 126 17t71.5 38.5t70.5 79.5l12 -4l-51 -172l-45 -154h-780v49q289 221 418 366.5t129 268.5q0 88 -58.5 138t-144.5 50q-121 0 -268 -141l-35 10q172 270 407 271q133 0 224.5 -74t91.5 -193q0 -123 -122 -250.5t-394 -299.5h348z" glyph-name="two.tnum.oldstyle"/><glyph d="M129 737q92 125 211 200t252 75q135 0 223 -73t88 -189q0 -211 -325 -336v-2q35 6 69 6q145 0 245.5 -99.5t100.5 -261.5q0 -197 -144 -313.5t-337 -116.5q-184 0 -399 82l104 232l10 -2q135 -264 303 -265q104 0 175 96.5t71 238t-72.5 228.5t-197.5 87q-80 0 -170 -39 l-12 32q373 178 372 383q0 90 -57 135.5t-152 45.5q-188 0 -335 -162z" glyph-name="three.tnum.oldstyle"/><glyph d="M1044 45h-194v-156q0 -111 23.5 -147.5t140.5 -79.5v-12h-541v12q115 43 138.5 79t23.5 148v156h-594v33l760 930h49v-858h213zM162 150h473v587z" glyph-name="four.tnum.oldstyle"/><glyph d="M516 475q195 0 324 -110.5t129 -301.5q0 -205 -146.5 -322.5t-341.5 -117.5q-172 0 -385 86l94 266h13q121 -309 286 -309q98 0 178.5 95.5t80.5 261.5q0 168 -85 249.5t-219 81.5q-152 0 -290 -80l174 713h415q98 0 144.5 22.5t107.5 98.5l11 -4l-119 -322h-551 l-86 -354q104 47 266 47z" glyph-name="five.tnum.oldstyle"/><glyph d="M629 815q180 0 303 -107.5t123 -283.5q0 -190 -142.5 -320.5t-359.5 -130.5q-96 0 -183 30t-161 91.5t-118 169t-44 250.5q0 340 232.5 597t619.5 349l6 -26q-248 -111 -409.5 -310.5t-204.5 -449.5q137 141 338 141zM559 18q111 0 186.5 95.5t75.5 255.5 q0 152 -71.5 254t-208.5 102q-150 0 -260 -121q-4 -61 -5 -96q0 -215 78 -352.5t205 -137.5z" glyph-name="six.tnum.oldstyle"/><glyph d="M279 -354q113 575 552 1116h-456q-104 0 -155.5 -26.5t-119.5 -129.5l-14 4l107 377h829v-37q-252 -297 -361.5 -595t-158.5 -709h-223z" glyph-name="seven.tnum.oldstyle"/><glyph d="M551 -27q-195 0 -332 103.5t-137 279.5q0 143 90 235.5t223 135.5q-262 131 -262 354q0 160 123 258.5t301 98.5q170 0 289 -89t119 -216q0 -113 -91.5 -200t-193.5 -124q68 -35 111 -62.5t105 -81t94 -126t32 -160.5q0 -176 -134 -291t-337 -115zM645 829 q152 121 152 299q0 113 -66.5 187t-171.5 74q-98 0 -159.5 -66t-61.5 -164q0 -102 71.5 -172t235.5 -158zM553 25q115 0 188.5 75.5t73.5 188.5q0 123 -94 218t-293 198q-166 -113 -166 -340q0 -156 81 -248t210 -92z" glyph-name="eight.tnum.oldstyle"/><glyph d="M549 1014q92 0 174 -28t152.5 -85t111.5 -158.5t41 -234.5q0 -315 -221 -555t-584 -324l-6 25q233 102 388 287.5t196 418.5q-139 -129 -322 -129q-170 0 -287.5 100.5t-117.5 264.5q0 176 135 297t340 121zM561 315q141 0 248 111q4 57 4 88q0 203 -74.5 330t-197.5 127 q-102 0 -174 -89t-72 -239q0 -141 67.5 -234.5t198.5 -93.5z" glyph-name="nine.tnum.oldstyle"/><glyph d="M362 -301q-137 0 -232 122t-95 322q0 205 98 327t229.5 122t230.5 -123t99 -328q0 -203 -98.5 -322.5t-231.5 -119.5zM365 -268q68 0 105.5 106.5t37.5 304.5q0 209 -41 311.5t-104.5 102.5t-103.5 -102.5t-40 -309.5q0 -211 40 -312t106 -101z" glyph-name="zero.inferior" horiz-adv-x="724"/><glyph d="M63 -287v8q61 27 78 50.5t17 95.5v504q0 45 -22.5 67.5t-92.5 48.5v7l293 104v-731q0 -70 14.5 -93.5t81.5 -52.5v-8h-369z" glyph-name="one.inferior" horiz-adv-x="452"/><glyph d="M414 -135q66 0 98.5 18.5t75.5 73.5l8 -2l-76 -242h-514v29q371 373 371 573q0 78 -40 121t-99 43q-102 0 -197 -108l-18 8q49 86 127.5 149.5t168.5 63.5q88 0 154 -60.5t66 -160.5q0 -115 -89.5 -224.5t-285.5 -281.5h250z" glyph-name="two.inferior" horiz-adv-x="616"/><glyph d="M45 406q129 186 305 186q88 0 144.5 -46t56.5 -120q0 -145 -217 -219v-2q23 4 31 4q111 0 177 -60.5t66 -168.5q0 -131 -93 -206t-222 -75q-115 0 -256 53l72 174l10 -2q78 -190 186 -190q59 0 100 59.5t41 147.5q0 90 -44 147t-119 57q-49 0 -107 -24l-8 24 q231 111 231 238q0 55 -35.5 84t-93.5 29q-117 0 -209 -103z" glyph-name="three.inferior" horiz-adv-x="643"/><glyph d="M680 -33h-117v-100q0 -72 15.5 -94.5t78.5 -51.5v-8h-352v8q66 29 80 52.5t14 93.5v100h-372v19l505 604h31v-553h129zM115 37h284v350z" glyph-name="four.inferior" horiz-adv-x="716"/><glyph d="M305 248q131 0 215 -72t84 -196q0 -135 -97 -208t-220 -73q-111 0 -252 53l61 205h8q31 -92 79 -160.5t108 -68.5q55 0 101 60t46 161q0 106 -54 159.5t-136 53.5q-92 0 -176 -49l114 465h277q63 0 92 13t66 56l6 -2l-80 -219h-361l-47 -207q70 29 166 29z" glyph-name="five.inferior" horiz-adv-x="661"/><glyph d="M428 203q104 0 182 -62.5t78 -173.5q0 -119 -89 -193.5t-224 -74.5q-137 0 -225.5 81t-88.5 240q0 223 155 376t378 192l4 -17q-145 -61 -240.5 -178t-124.5 -268q82 78 195 78zM377 -272q61 0 102 55t41 145q0 92 -41 152.5t-119 60.5q-76 0 -133 -61l-2 -14v-25 q0 -152 41 -232.5t111 -80.5z" glyph-name="six.inferior" horiz-adv-x="749"/><glyph d="M135 -287q68 354 346 699h-286q-68 0 -100 -18.5t-72 -76.5l-9 2l72 259h537v-27q-162 -188 -227.5 -376.5t-100.5 -461.5h-160z" glyph-name="seven.inferior" horiz-adv-x="632"/><glyph d="M330 -301q-123 0 -209 62.5t-86 168.5q0 82 53 138.5t137 78.5q-158 86 -157 224q0 102 77.5 161.5t192.5 59.5q111 0 185.5 -54.5t74.5 -134.5q0 -68 -57.5 -117.5t-118.5 -70.5q41 -20 66.5 -36.5t64.5 -49.5t59.5 -79t20.5 -101q0 -115 -88 -182.5t-215 -67.5z M399 229q82 72 82 177q0 68 -40 110.5t-99 42.5q-57 0 -92 -37t-35 -96q0 -61 44 -103.5t140 -93.5zM334 -268q66 0 106.5 42t40.5 107q0 70 -56 127.5t-177 124.5q-88 -68 -88 -194q0 -96 48 -151.5t126 -55.5z" glyph-name="eight.inferior" horiz-adv-x="667"/><glyph d="M350 592q135 0 223.5 -82t88.5 -242q0 -221 -155 -373.5t-378 -193.5l-4 16q147 63 241.5 181t120.5 268q-78 -78 -192 -78q-106 0 -183 61.5t-77 172.5q0 119 89 194.5t226 75.5zM360.5 150q77.5 0 135.5 61q0 18 2 25v10q0 154 -41 234.5t-113 80.5q-61 0 -102 -55 t-41 -145.5t41 -150.5t118.5 -60z" glyph-name="nine.inferior" horiz-adv-x="696"/><glyph d="M403 -14q-137 0 -232 121.5t-95 322.5q0 205 98 327t229.5 122t230.5 -123t99 -328q0 -203 -98.5 -322.5t-231.5 -119.5zM406 18q68 0 105.5 106.5t37.5 305.5q0 209 -41 311.5t-104.5 102.5t-103.5 -102.5t-40 -309.5q0 -211 40 -312.5t106 -101.5z" glyph-name="zero.dnom" horiz-adv-x="806"/><glyph d="M104 0v8q61 27 78 50.5t17 95.5v503q0 45 -23.5 68t-91.5 49v6l293 105v-731q0 -70 15.5 -93.5t80.5 -52.5v-8h-369z" glyph-name="one.dnom" horiz-adv-x="534"/><glyph d="M455 152q66 0 98.5 18t75.5 74l8 -2l-76 -242h-514v29q371 373 371 573q0 78 -40 121t-99 43q-102 0 -197 -109l-19 9q49 86 128 149.5t169 63.5q88 0 154 -60.5t66 -161.5q0 -115 -89.5 -224t-285.5 -281h250z" glyph-name="two.dnom" horiz-adv-x="698"/><glyph d="M86 692q129 186 305 187q88 0 144.5 -46.5t56.5 -119.5q0 -145 -217 -219v-2q25 4 31 4q111 0 177 -60.5t66 -169.5q0 -131 -93 -205.5t-222 -74.5q-115 0 -256 53l72 174l10 -2q78 -190 186 -191q59 0 100 60.5t41 148.5q0 90 -44 146.5t-119 56.5q-49 0 -107 -24l-8 24 q231 111 231 238q0 55 -35.5 83.5t-93.5 28.5q-117 0 -209 -102z" glyph-name="three.dnom" horiz-adv-x="724"/><glyph d="M721 254h-117v-100q0 -72 15.5 -94.5t78.5 -51.5v-8h-352v8q66 29 80 52.5t14 93.5v100h-372v18l505 605h31v-553h129zM156 324h284v350z" glyph-name="four.dnom" horiz-adv-x="798"/><glyph d="M346 535q131 0 215 -72t84 -197q0 -135 -97 -207.5t-220 -72.5q-111 0 -252 53l61 205h8q31 -92 79 -161t108 -69q55 0 101 60.5t46 161.5q0 106 -54 159.5t-136 53.5q-92 0 -176 -50l114 465h277q63 0 92 13.5t66 56.5l6 -2l-80 -219h-361l-47 -207q70 29 166 29z" glyph-name="five.dnom" horiz-adv-x="743"/><glyph d="M438 487q104 0 182 -61t78 -172q0 -117 -89 -193.5t-224 -76.5q-133 0 -220 81.5t-87 245.5q0 217 152.5 370t373.5 196l4 -19q-147 -63 -243.5 -182t-122.5 -268q83 79 196 79zM395 14q61 0 102.5 55.5t41.5 147.5q0 90 -42 151.5t-120 61.5q-76 0 -141 -65 q0 -10 -1.5 -30t-1.5 -36q0 -127 44 -206t118 -79z" glyph-name="six.dnom" horiz-adv-x="776"/><glyph d="M176 0q68 354 346 698h-286q-70 0 -100 -18t-73 -76l-8 2l72 258h537v-26q-162 -188 -227.5 -377t-100.5 -461h-160z" glyph-name="seven.dnom" horiz-adv-x="714"/><glyph d="M371 -14q-123 0 -209 62.5t-86 168.5q0 82 53 138.5t137 78.5q-158 86 -157 223q0 102 77.5 162t192.5 60q111 0 185.5 -54.5t74.5 -134.5q0 -68 -57.5 -118t-118.5 -70q41 -20 66.5 -36.5t64.5 -49.5t59.5 -79t20.5 -101q0 -115 -88 -182.5t-215 -67.5zM440 516 q82 72 82 176q0 68 -40 111t-99 43q-57 0 -92 -37t-35 -96q0 -61 44 -103.5t140 -93.5zM375 18q66 0 106.5 42t40.5 108q0 70 -56 127t-177 125q-88 -68 -88 -195q0 -96 48 -151.5t126 -55.5z" glyph-name="eight.dnom" horiz-adv-x="749"/><glyph d="M391 879q135 0 223 -82t88 -242q0 -221 -154.5 -373.5t-377.5 -193.5l-4 16q147 63 241.5 181t120.5 268q-78 -78 -192 -78q-106 0 -183 61.5t-77 171.5q0 119 89 195t226 76zM401.5 436q77.5 0 135.5 62q2 20 2 61q0 131 -43 210t-113 79q-59 0 -100 -55.5t-41 -145.5 t41 -150.5t118.5 -60.5z" glyph-name="nine.dnom" horiz-adv-x="778"/><glyph d="M362 596q-135 0 -231 122t-96 322q0 205 98 328t229.5 123t230.5 -123t99 -328q0 -201 -96.5 -322.5t-233.5 -121.5zM365 629q68 0 105.5 107.5t37.5 301.5q0 209 -41 313.5t-104.5 104.5t-103.5 -103.5t-40 -310t40 -310t106 -103.5z" glyph-name="zero.numr" horiz-adv-x="724"/><glyph d="M63 612v9q63 27 79 50t16 95v502q0 47 -23.5 69.5t-91.5 46.5v9l293 104v-731q0 -72 15.5 -95.5t80.5 -49.5v-9h-369z" glyph-name="one.numr" horiz-adv-x="452"/><glyph d="M414 762q66 0 98.5 18.5t75.5 73.5l8 -2l-76 -240h-514v29q195 195 283 331t88 240q0 78 -40 122t-99 44q-100 0 -197 -110l-18 8q49 88 127.5 151.5t168.5 63.5q88 0 154 -60.5t66 -160.5q0 -115 -88.5 -223.5t-286.5 -284.5h250z" glyph-name="two.numr" horiz-adv-x="616"/><glyph d="M45 1305q129 184 305 184q88 0 144.5 -47t56.5 -119q0 -141 -217 -219v-2q25 6 51 6q90 0 156.5 -61.5t66.5 -169.5q0 -129 -93 -204t-222 -75q-117 0 -256 51l72 176l10 -2q78 -190 186 -190q59 0 100 59.5t41 147.5q0 90 -44 147t-121 57q-47 0 -105 -24l-8 24 q231 111 231 236q0 57 -35.5 86t-93.5 29q-119 0 -209 -105z" glyph-name="three.numr" horiz-adv-x="643"/><glyph d="M680 866h-117v-100q0 -72 15.5 -95.5t78.5 -49.5v-9h-352v9q63 27 78.5 50t15.5 95v100h-372v19l505 602h31v-553h129zM115 934h284v350z" glyph-name="four.numr" horiz-adv-x="716"/><glyph d="M305 1147q131 0 215 -71.5t84 -194.5q0 -137 -97 -211t-218 -74q-113 0 -254 55l61 205h8q31 -92 79 -160.5t108 -68.5q55 0 101 60.5t46 160.5q0 106 -54 158.5t-138 52.5q-90 0 -174 -49l114 465h277q61 0 90 14t68 57l6 -2l-80 -219h-361l-47 -207q68 29 166 29z" glyph-name="five.numr" horiz-adv-x="661"/><glyph d="M428 1100q104 0 182 -61.5t78 -172.5q0 -119 -89 -194.5t-224 -75.5q-137 0 -225.5 82t-88.5 242q0 221 155 373.5t378 193.5l4 -17q-147 -63 -242.5 -181t-122.5 -267q82 78 195 78zM377 625q61 0 102 56t41 144q0 92 -41 152.5t-119 60.5q-76 0 -133 -61l-2 -14v-25 q0 -152 41 -232.5t111 -80.5z" glyph-name="six.numr" horiz-adv-x="749"/><glyph d="M135 612q70 356 346 697h-286q-70 0 -101 -18.5t-71 -73.5l-9 2l72 256h537v-27q-162 -186 -227.5 -373.5t-100.5 -462.5h-160z" glyph-name="seven.numr" horiz-adv-x="632"/><glyph d="M330 596q-123 0 -209 62.5t-86 168.5q0 82 54 139.5t136 80.5q-158 82 -157 223q0 102 78.5 161.5t193.5 59.5q111 0 184.5 -55.5t73.5 -132.5q0 -68 -56.5 -118t-119.5 -71q39 -20 65.5 -36.5t65.5 -49.5t59.5 -80t20.5 -102q0 -115 -88 -182.5t-215 -67.5zM399 1128 q82 72 82 177q0 70 -40 111.5t-99 41.5q-57 0 -92 -37t-35 -96q0 -61 45 -104.5t139 -92.5zM334 631q66 0 106.5 42t40.5 107q0 72 -56 128.5t-177 121.5q-88 -68 -88 -192q0 -98 48 -152.5t126 -54.5z" glyph-name="eight.numr" horiz-adv-x="667"/><glyph d="M348 1491q137 0 225.5 -83t88.5 -241q0 -221 -155 -374.5t-378 -194.5l-4 18q147 63 241.5 181t120.5 268q-78 -78 -192 -78q-104 0 -182 61.5t-78 172.5q0 119 89 194.5t224 75.5zM360.5 1049q77.5 0 133.5 59q4 41 4 70q0 125 -43 203.5t-113 78.5q-59 0 -100 -55 t-41 -145.5t41 -150.5t118.5 -60z" glyph-name="nine.numr" horiz-adv-x="696"/><glyph d="M362.5 592q131.5 0 230.5 -123t99 -328q0 -203 -98 -322.5t-232 -119.5q-137 0 -232 122t-95 322q0 205 98 327t229.5 122zM360 557q-68 0 -104.5 -108.5t-36.5 -296.5q0 -51 4 -121q31 39 131.5 142t141.5 167q-36 217 -136 217zM365 -268q66 0 104.5 104.5t38.5 306.5 q0 78 -6 136q-35 -43 -133.5 -145.5t-139.5 -164.5q30 -237 136 -237z" glyph-name="zero.inferior.zero" horiz-adv-x="724"/><glyph d="M389 879q131 0 229.5 -123t98.5 -328q0 -203 -96.5 -322.5t-231.5 -119.5q-133 0 -230.5 118.5t-97.5 327.5q0 203 98.5 325t229.5 122zM385 844q-139 0 -139 -447v-32l2 -21q27 29 90 95.5t106 117.5t72 105q-39 182 -131 182zM391 18q68 0 106 109t38 299q0 76 -9 170 q-41 -59 -139 -159.5t-135 -149.5q26 -269 139 -269z" glyph-name="zero.dnom.zero" horiz-adv-x="778"/><glyph d="M389 1491q131 0 229.5 -123t98.5 -328q0 -201 -95.5 -322.5t-232.5 -121.5q-135 0 -231.5 123t-96.5 323q0 203 98.5 326t229.5 123zM387 1456q-61 0 -101 -103.5t-40 -308.5q0 -59 2 -88q27 29 90 95.5t106 118t72 104.5q-39 182 -129 182zM391 629q68 0 106 109.5 t38 299.5q0 76 -9 170q-41 -59 -139 -161.5t-135 -149.5q26 -268 139 -268z" glyph-name="zero.numr.zero" horiz-adv-x="778"/><glyph d="M231.5 844q-59.5 0 -102.5 43t-43 102.5t43 102.5t102.5 43t102.5 -43t43 -102.5t-43 -102.5t-102.5 -43zM231.5 145q-59.5 0 -102.5 43t-43 102.5t43 102.5t102.5 43t102.5 -43t43 -102.5t-43 -102.5t-102.5 -43z" glyph-name="colon.aalt" horiz-adv-x="458"/><glyph d="M192.5 1479q59.5 0 102.5 -42t43 -99.5t-43 -100.5t-102 -43q-57 0 -101.5 43t-44.5 100.5t43 99.5t102.5 42zM166 1047h53q70 -756 109 -1029v-18h-271v18q37 247 109 1029z" glyph-name="exclamdown.aalt" horiz-adv-x="380"/><glyph d="M571.5 1489q59.5 0 102.5 -42t43 -99q0 -59 -43 -101.5t-102.5 -42.5t-102.5 43t-43 100.5t43 99.5t102.5 42zM616 1055q-6 -104 -40.5 -196.5t-79.5 -158t-90.5 -127t-76 -133t-30.5 -149.5q0 -104 49 -181t129 -77q88 0 155.5 95t106.5 228h6l138 -229 q-211 -143 -416 -143q-172 0 -282.5 87t-110.5 240q0 90 43 170t106.5 142.5t129 123t119.5 140.5t69 168h75z" glyph-name="questiondown.aalt" horiz-adv-x="950"/><glyph d="M6 -199l592 1821h53l-592 -1821h-53z" glyph-name="slash.case" horiz-adv-x="684"/><glyph d="M682 -199h-53l-592 1821h53z" glyph-name="backslash.aalt" horiz-adv-x="673"/><glyph d="M322 706.5q0 -243.5 56 -439t134 -312.5t193 -229l-11 -19q-571 330 -571 1000q0 672 571 1001l11 -18q-115 -113 -193 -231t-134 -313.5t-56 -439z" glyph-name="parenleft.aalt" horiz-adv-x="739"/><glyph d="M49 1708q571 -332 572 -1001q0 -668 -572 -1000l-12 19q180 174 282.5 400t102.5 580.5t-102.5 583t-282.5 400.5z" glyph-name="parenright.aalt" horiz-adv-x="681"/><glyph d="M434 227q-18 -100 -18 -178q0 -285 252 -340l-9 -18q-119 12 -211 54t-156.5 136t-64.5 230q0 57 13 125l14 77q10 55 10 107q0 125 -55 192.5t-115 77.5v25q59 12 114.5 78.5t55.5 191.5q0 51 -10 107l-14 77q-12 68 -13 125q0 135 64.5 229.5t157 136.5t210.5 54l9 -18 q-252 -57 -252 -342q0 -78 18 -176l17 -91q8 -41 8 -86q0 -137 -76 -218t-154 -81q78 0 154 -80.5t76 -218.5q0 -45 -8 -86z" glyph-name="braceleft.aalt" horiz-adv-x="741"/><glyph d="M451 1090q-10 -57 -11 -105q0 -127 55.5 -194.5t114.5 -77.5v-25q-59 -10 -114.5 -76.5t-55.5 -193.5q0 -47 11 -105l14 -80q12 -68 12 -127q0 -195 -124 -296t-310 -119l-6 18q125 29 188.5 109t63.5 231q0 76 -19 178l-16 88q-8 43 -8 88q0 131 68.5 210t144.5 87 q-78 10 -145.5 90t-67.5 209q0 45 8 86l16 91q18 102 19 178q0 283 -252 340l6 18q119 -12 212 -54t157.5 -136.5t64.5 -229.5q0 -57 -12 -125z" glyph-name="braceright.aalt" horiz-adv-x="700"/><glyph d="M565 1642h-217v-1875h217v-46h-389v1969h389v-48z" glyph-name="bracketleft.aalt" horiz-adv-x="638"/><glyph d="M61 1642v48h390v-1969h-390v46h218v1875h-218z" glyph-name="bracketright.aalt" horiz-adv-x="622"/><glyph d="M674 684v-76h-596v76h596z" glyph-name="hyphen.aalt" horiz-adv-x="747"/><glyph d="M907 668v-60h-829v60h829z" glyph-name="endash.aalt" horiz-adv-x="980"/><glyph d="M1739 668v-60h-1661v60h1661z" glyph-name="emdash.aalt" horiz-adv-x="1812"/><glyph d="M610 1130q-123 -217 -278 -423q156 -207 278 -424h-43q-219 207 -481 413v21q262 209 481 413h43zM1010 1130q-119 -217 -279 -423q160 -207 279 -424h-43q-217 207 -482 413v21q264 209 482 413h43z" glyph-name="guillemotleft.aalt" horiz-adv-x="1091"/><glyph d="M86 1130h43q217 -205 481 -413v-21q-264 -207 -481 -413h-43q119 217 279 424q-160 206 -279 423zM485 1130h43q219 -205 482 -413v-21q-262 -207 -482 -413h-43q111 203 279 424q-168 220 -279 423z" glyph-name="guillemotright.aalt" horiz-adv-x="1091"/><glyph d="M610 1130q-123 -217 -278 -423q156 -207 278 -424h-43q-219 207 -481 413v21q262 209 481 413h43z" glyph-name="guilsinglleft.aalt" horiz-adv-x="692"/><glyph d="M86 1130h43q217 -205 481 -413v-21q-264 -207 -481 -413h-43q119 217 279 424q-160 206 -279 423z" glyph-name="guilsinglright.aalt" horiz-adv-x="692"/><glyph d="M932 346q-29 -145 -125 -253.5t-268 -112.5v-168h-54v170q-184 14 -308 153t-124 361q0 223 124 362t308 150v137h54v-135q217 -12 354 -213l-184 -144l-11 4q-14 109 -54 191t-105 104v-780q43 -14 96 -14q104 0 175 58t103 138zM279 592q0 -145 55 -249.5t151 -149.5 v768q-78 -4 -142 -102.5t-64 -266.5z" glyph-name="cent.oldstyle" horiz-adv-x="962"/><glyph d="M1059 385q0 -201 -134 -305.5t-317 -106.5v-159h-67v161q-193 18 -412 125l-25 373h15q76 -168 186.5 -290t235.5 -144v555l-29 16q-55 31 -74.5 43.5t-67.5 42t-67.5 47t-55.5 47t-52.5 56t-36 61.5t-26.5 73t-7 81q0 168 117.5 269.5t298.5 109.5v141h67v-143 q156 -10 338 -76l41 -361h-14q-66 135 -162 244t-203 133v-495l41 -23q92 -51 136 -77.5t107.5 -73.5t92.5 -88t51.5 -102.5t22.5 -133.5zM336 1171q0 -80 45 -132t160 -117v464q-84 -4 -144.5 -60.5t-60.5 -154.5zM608 33q98 4 163 67.5t65 165.5q0 94 -55.5 156.5 t-172.5 132.5v-522z" glyph-name="dollar.oldstyle" horiz-adv-x="1150"/><glyph d="M823 31q90 0 195.5 113.5t189.5 263.5h15l-33 -365q-205 -70 -383 -70q-266 0 -417.5 189.5t-164.5 476.5h-172v49h170v12q0 86 13 162h-183v51h191q49 246 205.5 386.5t367.5 140.5q145 0 373 -70l33 -358h-13q-92 158 -196.5 267.5t-198.5 109.5t-176 -121t-109 -355 h508l-8 -51h-504q-6 -72 -6 -153v-21h461l-8 -49h-451q10 -291 100 -449.5t201 -158.5z" glyph-name="Euro.oldstyle" horiz-adv-x="1335"/><glyph d="M1001 412h13l-53 -412h-902v78q117 78 183.5 181t66.5 271q0 111 -57 234h-199v51h178q-49 113 -49 213q0 182 123 305t338 123q143 0 318 -53l40 -305h-14q-78 125 -180 217t-199 92q-86 0 -151.5 -65.5t-65.5 -172.5q0 -74 55.5 -186.5t69.5 -167.5h299v-51h-289 q6 -43 6 -98q0 -61 -6 -102.5t-31.5 -106t-91 -133t-167.5 -142.5h522q68 0 133 70t110 160z" glyph-name="sterling.oldstyle" horiz-adv-x="1114"/><glyph d="M973 1417h391v-14q-55 -29 -99 -69t-67.5 -74.5t-60.5 -96.5l-275 -461h258v-49h-289v-172h291v-49h-291v-174q0 -125 28 -163t142 -81v-14h-620v14q115 43 142.5 81t27.5 163v174h-287v49h287v156l-10 16h-279v49h248l-334 549q-31 53 -61.5 83t-102.5 69v14h602v-14 q-78 -41 -107.5 -65.5t-29.5 -53.5q0 -27 49 -106l281 -459l258 444q35 61 35 103q0 76 -127 137v14z" glyph-name="yen.oldstyle" horiz-adv-x="1372"/><glyph d="M999 346q-29 -154 -128 -259t-265 -107v-168h-51v170q-184 16 -309 155t-125 359q0 223 125 363t309 153v135h51v-135q117 -6 210 -68.5t147 -144.5l-185 -146l-12 4q-12 109 -53 192t-107 105v-782q43 -14 99 -14q104 0 174.5 58t103.5 138zM346 592q0 -145 55.5 -249.5 t153.5 -152.5v773q-80 -4 -144.5 -103.5t-64.5 -267.5z" glyph-name="cent.tnum"/><glyph d="M1034 389q0 -203 -134 -307.5t-314 -108.5v-161h-70v163q-199 18 -410 127l-24 377h12q76 -168 186.5 -292t235.5 -148v567q-4 4 -13 8t-14 9q-80 47 -117.5 69.5t-100 70.5t-91 88t-53.5 101.5t-25 130.5q0 170 118 272.5t296 110.5v146h70v-148q158 -8 338 -75l39 -367 h-13q-66 135 -161 244.5t-203 138.5v-506q6 -4 41 -25q76 -45 98.5 -58t82.5 -52t79.5 -59.5t57.5 -60.5t51.5 -73.5t25.5 -81t12 -100.5zM313 1194q0 -82 44 -134t159 -120v473q-84 -4 -143.5 -61.5t-59.5 -157.5zM586 33q98 4 162.5 69.5t64.5 169.5q0 96 -55.5 160 t-171.5 133v-532z" glyph-name="dollar.tnum"/><glyph d="M696 31q82 0 181.5 113.5t183.5 267.5h12l-31 -367q-193 -72 -360 -72q-244 0 -389.5 189.5t-159.5 486.5h-160v51h158v15q0 78 10 166h-168v49h177q47 250 194.5 393t341.5 143q143 0 358 -71l31 -361h-12q-88 156 -186.5 267.5t-180.5 111.5q-88 0 -161.5 -123 t-96.5 -360h469l-8 -49h-465q-6 -74 -6 -158v-23h422l-6 -51h-414q10 -295 90 -456.5t176 -161.5z" glyph-name="Euro.tnum"/><glyph d="M995 416h15l-56 -416h-899v78q248 162 248 467q0 70 -12 113.5t-45 119.5h-199v53h176q-47 121 -47 220q0 184 124 309t339 125q145 0 315 -55l43 -310h-16q-80 127 -180.5 220.5t-196.5 93.5q-84 0 -150.5 -68t-66.5 -174q0 -76 55.5 -189.5t69.5 -171.5h297v-53h-287 q6 -47 6 -102q0 -49 -3 -81t-18 -86t-45 -99t-88.5 -105.5t-142.5 -122.5h523q66 0 130 70t111 164z" glyph-name="sterling.tnum"/><glyph d="M805 1442h344v-12q-72 -45 -113 -99.5t-86 -144.5l-235 -473h227v-49h-248v-177h250v-49h-250v-180q0 -125 28 -163t142 -81v-14h-616v14q115 43 142.5 81t27.5 163v180h-250v49h250v160l-8 17h-244v49h219l-289 561q-27 51 -53.5 81.5t-83.5 74.5v12h545v-12 q-63 -39 -87 -64t-24 -53q0 -33 41 -111l236 -463l215 447q31 61 30 104q0 78 -110 140v12z" glyph-name="yen.tnum"/><glyph d="M999 346q-29 -154 -128 -259t-265 -107v-168h-51v170q-184 16 -309 155t-125 359q0 223 125 363t309 153v135h51v-135q117 -6 210 -68.5t147 -144.5l-185 -146l-12 4q-12 109 -53 192t-107 105v-782q43 -14 99 -14q104 0 174.5 58t103.5 138zM346 592q0 -145 55.5 -249.5 t153.5 -152.5v773q-80 -4 -144.5 -103.5t-64.5 -267.5z" glyph-name="cent.tnum.oldstyle"/><glyph d="M1034 393q0 -205 -134 -310.5t-314 -109.5v-161h-70v163q-199 18 -410 127l-24 377h12q76 -168 186.5 -292t235.5 -148v569q-4 2 -29 17q-188 113 -251 170q-133 123 -134 290q0 168 118 271.5t296 111.5v146h70v-148q156 -10 338 -75l39 -367h-13q-66 135 -161 244.5 t-203 138.5v-508q12 -8 41 -25q92 -53 139 -82.5t108.5 -77.5t90 -89t49 -100.5t20.5 -131.5zM313 1196q0 -84 44 -135t159 -121v475q-82 -4 -142.5 -62.5t-60.5 -156.5zM586 33q98 4 162.5 69.5t64.5 169.5q0 96 -54 159t-173 134v-532z" glyph-name="dollar.tnum.oldstyle"/><glyph d="M692 31q74 0 168 111.5t178 265.5h13l-29 -365q-176 -70 -348 -70q-231 0 -371.5 187.5t-152.5 478.5h-152v49h149v12q0 78 11 164h-160v51h168q45 244 186.5 385.5t327.5 141.5q133 0 342 -70l31 -358h-13q-84 154 -179 265.5t-171 111.5q-78 0 -145.5 -121t-89.5 -355 h438l-8 -51h-436q-4 -98 -5 -155v-21h396l-6 -49h-388q8 -289 83 -448.5t163 -159.5z" glyph-name="Euro.tnum.oldstyle"/><glyph d="M995 412h15l-56 -412h-899v78q125 84 186.5 188.5t61.5 268.5q0 70 -11 112.5t-46 118.5h-199v51h176q-47 117 -47 213q0 180 124 304t339 124q147 0 315 -53l43 -305h-16q-78 123 -178.5 216t-198.5 93q-84 0 -150.5 -65.5t-66.5 -172.5q0 -74 55.5 -186.5t69.5 -167.5 h297v-51h-287q6 -45 6 -100q0 -61 -6 -102.5t-31.5 -106t-91 -133t-168.5 -142.5h523q68 0 132 69t109 161z" glyph-name="sterling.tnum.oldstyle"/><glyph d="M805 1419h344v-14q-72 -47 -113 -99.5t-86 -140.5l-235 -463h227v-49h-248v-172h250v-49h-250v-174q0 -125 28 -163t142 -81v-14h-616v14q115 43 142.5 81t27.5 163v174h-250v49h250v156l-8 16h-244v49h217l-289 551q-27 49 -53.5 81t-81.5 71v14h545v-14 q-63 -37 -88 -62.5t-25 -52.5q0 -29 43 -110l236 -453l215 438q31 61 30 103q0 76 -110 137v14z" glyph-name="yen.tnum.oldstyle"/><glyph d="M1343 176l113 -125q-90 -51 -238.5 -93t-302.5 -42q-229 0 -423.5 100.5t-312.5 286.5t-118 416q0 209 93.5 393t268.5 300t390 116q250 0 414 -147.5t159 -383.5l-14 -708h-18q-102 96 -160 96q-29 0 -61.5 -20.5t-62.5 -44t-81 -44t-110 -20.5q-170 0 -269.5 139.5 t-99.5 333.5q0 203 108.5 348.5t286.5 145.5q168 0 285 -109v21q0 49 -24.5 106t-73 111.5t-130 90.5t-184.5 36q-70 0 -135 -15.5t-138 -61.5t-127 -118t-89 -195.5t-35 -285.5q0 -401 194.5 -621.5t466.5 -220.5q150 0 258.5 63.5t169.5 151.5zM1167 465l17 463 q-33 92 -104.5 171t-161.5 79q-190 0 -191 -381q0 -244 71.5 -352.5t164.5 -108.5q108 0 204 129z" glyph-name="at.aalt" horiz-adv-x="1515"/><glyph d="M217 -199h-57v1821h57v-1821z" glyph-name="bar.aalt" horiz-adv-x="372"/></font>
</defs>
</svg>
